<?xml version="1.0" encoding="UTF-8"?>
<svg id="Layer_2" data-name="Layer 2" xmlns="http://www.w3.org/2000/svg" viewBox="0 0 116.42 126.51">
  <defs>
    <style>
      .cls-1 {
        fill: #7ebd42;
      }

      .cls-2 {
        fill: #79868f;
      }
    </style>
  </defs>
  <g id="Layer_1-2" data-name="Layer 1">
    <g>
      <path class="cls-1" d="M88.01,44.11c-.37-2.01-1.89-3.69-3.85-4.28-.58-.18-1.2-.26-1.81-.23-4.09.17-12.22,1.37-21.53,7.44-.35-.84-.72-1.66-1.11-2.47-3.17-6.56-7.01-10.69-9.67-12.99-1.52-1.32-3.73-1.69-5.6-.98-.6.23-1.15.56-1.63.98-3.11,2.69-7.51,7.58-10.82,15.57-.2.49.03,1.06.52,1.26.49.2,1.06-.03,1.26-.52,2.65-6.38,6-10.67,8.75-13.41-1.19,2.4-2.53,5.76-3.71,10.27-2.02,7.75-3.04,16.98-3.04,27.43,0,6.94,1.01,12.87,2.92,17.15.66,1.47,1.41,2.71,2.24,3.7-2.47-.95-4.69-2.54-6.5-4.71-3.3-3.98-5.05-9.56-5.05-16.14,0-7.63,1.04-14.64,3.09-20.82.17-.51-.11-1.05-.61-1.22-.51-.17-1.05.11-1.22.61-2.12,6.38-3.19,13.59-3.19,21.43,0,7.04,1.9,13.04,5.5,17.37,3.43,4.13,8.22,6.41,13.47,6.41,1.62,0,3.2-.22,4.7-.64,1.51.42,3.07.64,4.65.64,2.37,0,4.79-.47,7.17-1.41,4.24-1.67,8.3-4.83,11.73-9.13,2.98-3.73,5.52-7.56,7.55-11.37.25-.47.07-1.05-.4-1.31-.47-.25-1.05-.07-1.31.4-1.98,3.71-4.46,7.44-7.36,11.08-3.22,4.04-7,6.99-10.93,8.54-2.59,1.02-5.22,1.43-7.75,1.22,2.02-1.07,3.85-2.56,5.4-4.43.57-.68,1.09-1.41,1.57-2.17,2.25-1.99,4.51-4.39,6.71-7.15,6.52-8.17,11.48-16.02,14.73-23.34,1.89-4.25,2.94-7.71,3.5-10.33.56,4.91.36,13.11-4.2,23.16-.2.45-.03.99.4,1.24.49.28,1.13.07,1.36-.44,5.52-12.15,4.89-21.76,4.03-26.42ZM63.73,56.23c9.2-8.98,16.19-12.47,19.74-13.79l-18.35,22.99c-.27-3.2-.74-6.28-1.4-9.21ZM80.3,41.69c-6.73,3.14-13.13,8.6-17.1,12.38-.47-1.79-1.02-3.52-1.65-5.19,7.64-5.07,14.44-6.7,18.75-7.18ZM37.71,72.18c0-10.29,1-19.35,2.98-26.94,1.57-6.03,3.43-9.89,4.78-12.12v60.8c-1.9-.47-3.65-2.34-5-5.37-1.8-4.03-2.75-9.69-2.75-16.36ZM58.42,88.32c-1.8,2.17-4.02,3.77-6.5,4.71.83-1,1.58-2.24,2.24-3.7,1.91-4.28,2.92-10.21,2.92-17.15,0-.53-.43-.96-.96-.96s-.96.43-.96.96c0,6.67-.95,12.33-2.75,16.36-1.36,3.03-3.11,4.9-5,5.37v-60.8c2.7,4.48,7.1,14.74,7.69,34.6.02.53.47.95.99.94.53-.02.95-.46.94-.99-.52-17.38-3.94-27.65-6.67-33.17,2.33,2.32,5.18,5.85,7.63,10.92,3.65,7.54,5.49,16.54,5.49,26.77,0,6.58-1.75,12.16-5.05,16.14ZM81.16,56.11c-3.19,7.16-8.06,14.87-14.48,22.92-.93,1.17-1.88,2.27-2.82,3.31,1.02-3.04,1.55-6.45,1.55-10.15,0-1.31-.03-2.6-.09-3.88l19.67-24.65c-.34,2.59-1.29,6.77-3.82,12.46Z"/>
      <g>
        <path class="cls-2" d="M17,100.45c-9.46-10.57-14.49-24.37-14.06-38.55.43-14.18,6.29-27.65,16.37-37.63l-2.04-2.07C6.65,32.71.48,46.89.03,61.81c-.45,14.92,4.85,29.45,14.8,40.58l2.17-1.94Z"/>
        <path class="cls-2" d="M116.4,61.91c-.43-14.86-6.52-28.99-17.03-39.5l-2.05,2.05c9.98,9.98,15.77,23.41,16.18,37.53.4,14.11-4.61,27.85-14,38.39l2.17,1.93c9.89-11.09,15.16-25.55,14.74-40.41Z"/>
        <path class="cls-2" d="M69.2,8.92l-.82-.11-.48,1.48s-.05.11-.12.17c-.06.06-.13.09-.19.08l-3.87-.53.58-4.22,2.3.31c.06,0,.12.05.17.12.05.07.07.14.07.19v1.08s.79.11.79.11l.47-3.42-.78-.11-.3,1.03c0,.05-.05.11-.11.16-.06.05-.13.07-.2.06l-2.3-.31.52-3.82,3.32.45c.07,0,.13.05.17.12.05.07.07.14.06.21l.06,1.29.92.13.31-2.28L62.31.12l-.09.66.78.17c.11.02.19.07.23.15.05.08.07.15.06.23l-1.11,8.17c-.01.07-.05.14-.12.2-.06.06-.15.09-.26.09l-.8-.05-.09.66,7.94,1.08.35-2.56Z"/>
        <path class="cls-2" d="M30.47,14.06c.48.49,1.04.88,1.67,1.16.63.28,1.32.42,2.05.42.73,0,1.49-.18,2.28-.54.48-.22.91-.46,1.29-.74.38-.28.68-.52.9-.73.23-.21.35-.33.37-.35l-1.03-2.28-.82.37.37,1.68c.03.15-.02.28-.14.4-.01.01-.1.1-.27.27-.17.17-.42.33-.75.48-1.11.5-2.16.53-3.12.07-.97-.46-1.75-1.34-2.34-2.65-.41-.9-.6-1.73-.58-2.48.02-.75.22-1.39.58-1.94.37-.55.88-.97,1.51-1.25.33-.15.63-.23.91-.25.28-.03.49-.04.63-.04h.07s.11.02.19.06c.08.04.14.09.2.16l.78,1.19.85-.38-1-2.21c-.65.08-1.2.17-1.67.26-.46.09-.92.24-1.38.45-.98.44-1.75,1.04-2.3,1.79-.55.75-.86,1.59-.94,2.52-.08.92.1,1.87.54,2.85.29.65.68,1.22,1.17,1.72Z"/>
        <path class="cls-2" d="M90.66,10.15c.01.09,0,.17-.05.23l-4.62,6.83c-.04.06-.11.11-.2.13-.09.03-.18.01-.27-.04l-.7-.4-.37.55,6.64,4.49,1.45-2.14-.69-.47-1.09,1.11s-.09.07-.19.1c-.09.03-.16.02-.21-.01l-3.24-2.19,2.39-3.53,1.92,1.3c.05.04.09.1.1.19.01.09,0,.15-.03.2l-.47.98.65.44,1.93-2.86-.65-.44-.73.79s-.09.08-.17.09c-.08.02-.15,0-.21-.03l-1.92-1.3,2.16-3.19,2.78,1.88c.06.04.09.1.11.18.01.08,0,.15-.04.22l-.52,1.18.77.52,1.29-1.91-6.22-4.21-.37.55.63.5c.09.07.14.15.14.24Z"/>
        <path class="cls-2" d="M47.3,1.53c.11-.01.2.01.26.08.06.06.1.12.11.2l1.2,8.16c.01.07,0,.15-.05.23-.04.08-.11.13-.22.15l-.9.19.1.66,4.03-.59-.1-.66-.94.08c-.11,0-.19-.02-.26-.08-.06-.06-.1-.13-.11-.2l-1.2-8.16c-.01-.07,0-.15.05-.22.04-.08.12-.13.22-.15l.93-.2-.1-.67-4.03.59.1.67.92-.07Z"/>
        <path class="cls-2" d="M37.78,3.93c.11-.02.2,0,.27.05.08.05.13.11.15.19l2.21,7.94c.02.07.01.15-.03.24-.03.08-.1.14-.21.18l-.75.27.18.64,7.72-2.15-.69-2.49-.8.22.14,1.55s0,.12-.04.21c-.03.08-.08.13-.15.15l-3.77,1.05-1.14-4.1,2.23-.62c.06-.02.13,0,.21.04.08.05.12.1.14.15l.44.99.76-.21-.93-3.32-.76.21.13,1.07c.01.05,0,.12-.04.19-.04.07-.09.12-.16.14l-2.23.62-1.03-3.71,3.23-.9c.07-.02.14,0,.21.04.07.04.12.1.14.17l.57,1.16.89-.25-.62-2.22-7.24,2.02.18.64.79-.16Z"/>
        <path class="cls-2" d="M52.78,2.64l.18-1.45c.02-.18.11-.27.26-.27l2.23-.05.19,8.55c0,.08-.02.15-.08.22-.05.07-.13.11-.24.13l-.99.08v.66s4.2-.09,4.2-.09v-.66s-1.01-.04-1.01-.04c-.11,0-.19-.05-.25-.12-.05-.07-.08-.14-.08-.22l-.19-8.55,2.21-.05c.14,0,.22.08.26.26l.25,1.44.91-.02-.05-2.47-8.76.2.06,2.47.9-.02Z"/>
        <path class="cls-2" d="M81.67,15.71c.74.02,1.41-.11,1.99-.38.59-.27,1.11-.66,1.54-1.14.44-.49.79-1.04,1.07-1.65.49-1.09.66-2.08.52-2.98-.14-.9-.52-1.68-1.15-2.37-.63-.69-1.44-1.25-2.42-1.7l-3.63-1.64-.27.61.72.39c.1.05.16.12.18.21.03.09.02.17,0,.24l-3.39,7.52c-.03.07-.09.12-.17.16-.08.04-.17.04-.28,0l-.77-.28-.27.61,3.92,1.77c.89.4,1.7.61,2.43.63ZM81.76,5.65l1.07.48c.74.33,1.33.76,1.75,1.27.43.51.66,1.14.69,1.87.04.73-.17,1.59-.61,2.57-.44.97-.94,1.68-1.5,2.13-.56.45-1.17.69-1.83.72-.66.02-1.35-.12-2.08-.44l-1.15-.5,3.65-8.11Z"/>
        <path class="cls-2" d="M22.64,22.27l.38.55,2.57-1.76-.38-.55-.8.45s-.09.03-.17.02c-.08-.02-.13-.06-.16-.11-.01-.02-.02-.03-.02-.04l-.73-2.88,2.95-2.02,2.48,1.73s.02.01.03.03c.03.04.04.09.04.15,0,.06-.02.1-.05.13l-.69.57.38.55,3.03-2.08-.38-.55-.64.29c-.11.05-.18.07-.23.06s-.11-.05-.21-.11l-8.35-5.85-.96.66,2.55,10.1-.63.66ZM23.13,17.19l-1.05-4.19,3.54,2.49-2.49,1.71Z"/>
        <path class="cls-2" d="M84.7,119.43c-.3-.02-.56-.1-.77-.25-.21-.15-.39-.35-.56-.58-.17-.23-.34-.47-.51-.71-.17-.24-.37-.47-.6-.67-.23-.2-.51-.34-.84-.43-.33-.1-.74-.11-1.22-.03.36-.26.69-.56.96-.89.28-.33.47-.7.56-1.11.09-.41.03-.87-.18-1.37-.4-.94-.98-1.47-1.77-1.58-.78-.12-1.71.05-2.79.51l-3.72,1.56.26.61.76-.25c.1-.04.2-.03.28.02.08.04.14.1.17.17l3.19,7.6c.03.07.03.15,0,.24-.02.09-.08.16-.18.21l-.71.37.26.61,3.54-1.49-.26-.61-.78.26c-.11.03-.2.03-.28-.02-.07-.05-.13-.1-.15-.17l-1.36-3.25s.08-.04.21-.1c.13-.07.27-.13.42-.19.5-.21.93-.3,1.29-.26.36.04.68.16.95.36.27.2.52.44.75.72.23.28.45.56.67.84.23.28.47.52.74.73.27.2.58.32.93.36.36.04.78-.04,1.26-.24.21-.09.4-.2.55-.34.15-.13.26-.22.31-.25l-.27-.64c-.45.19-.82.27-1.12.26ZM78.4,117.17c-.11.05-.25.1-.43.17-.17.07-.27.1-.29.11l-1.64-3.91.65-.27c.9-.38,1.61-.48,2.14-.31.53.17.92.55,1.17,1.16.32.76.33,1.38.03,1.85-.3.47-.85.87-1.64,1.2Z"/>
        <path class="cls-2" d="M99.63,106.34c-.51-.58-1.11-.87-1.78-.86-.67,0-1.48.18-2.41.54-.7.26-1.29.39-1.78.41-.48,0-.88-.16-1.19-.52-.35-.39-.5-.84-.46-1.33.04-.5.29-.95.76-1.36.33-.29.6-.46.82-.53.23-.06.36-.1.41-.1.06,0,.13,0,.19,0,.06-.01.12,0,.17.05l1.15.96.66-.58-1.59-1.81-.13.06c-.32.14-.67.31-1.05.51-.39.2-.79.48-1.21.84-.51.45-.88.95-1.12,1.49-.24.54-.33,1.08-.26,1.63s.3,1.05.71,1.51c.35.39.71.64,1.1.75.39.11.8.13,1.22.06.42-.07.86-.17,1.31-.3.3-.08.62-.17.95-.27.33-.1.67-.17.99-.22.33-.05.63-.04.92.03.29.06.53.2.74.44.38.43.51.91.41,1.43-.11.52-.41,1-.9,1.44-.36.32-.68.52-.96.61-.28.09-.43.14-.45.15-.05.01-.13.01-.21,0-.09-.02-.16-.04-.2-.08l-1.31-1.18-.73.64,1.81,2.06s.12-.04.35-.12c.23-.08.54-.22.91-.42.37-.2.77-.48,1.18-.85.73-.64,1.22-1.28,1.46-1.9.25-.63.31-1.22.2-1.77-.11-.55-.33-1.02-.68-1.41Z"/>
        <path class="cls-2" d="M94.4,113.57c-.11.05-.18.06-.23.05s-.11-.05-.2-.12l-8.17-6.1-.98.63,2.24,10.17-.65.64.36.56,2.62-1.68-.36-.56-.81.43s-.1.03-.17.01c-.07-.02-.13-.06-.16-.11-.01-.02-.02-.03-.02-.04l-.64-2.9,3.01-1.93,2.42,1.81s.02.01.03.03c.02.04.04.09.04.16,0,.06-.02.1-.05.12l-.71.54.36.56,3.09-1.99-.36-.56-.65.27ZM87.05,113.78l-.92-4.22,3.47,2.59-2.54,1.63Z"/>
        <path class="cls-2" d="M73.06,116.21c-.64-.64-1.42-1.05-2.33-1.22-.91-.18-1.9-.15-2.96.07l-3.81.82-3.16.08.02.66.88.04c.11,0,.19.04.24.11.06.07.09.14.09.22l.18,7.09-5.34-7.65v-.39s-3.07.08-3.07.08l.02.66.91.04c.11,0,.19.04.25.11.06.07.09.14.1.22l.2,8.24c0,.08-.03.15-.09.22-.05.07-.14.11-.25.13l-.88.08.02.66,3.34-.08-.02-.66-.88-.04c-.11,0-.19-.05-.25-.11-.05-.07-.08-.14-.08-.22l-.19-7.59,5.97,8.51,1.21-.03-.23-9.31c0-.08.02-.15.07-.22.05-.08.14-.12.25-.13l.86-.08h0s.71-.11.71-.11c.11-.02.2,0,.27.07.07.06.12.12.13.2l1.74,8.06c.02.07,0,.15-.04.23-.04.08-.11.14-.22.17l-.78.23.14.65,4.2-.91c.95-.2,1.73-.52,2.33-.94.61-.42,1.07-.92,1.38-1.49.31-.57.5-1.18.56-1.84.06-.65.02-1.31-.12-1.97-.25-1.17-.7-2.07-1.35-2.71ZM72.76,121.92c-.18.7-.53,1.26-1.05,1.67-.51.41-1.16.7-1.93.88l-1.22.28-1.88-8.69,1.15-.25c.8-.17,1.52-.18,2.17-.02.65.16,1.21.52,1.66,1.09.46.56.81,1.38,1.03,2.43.22,1.04.24,1.91.06,2.61Z"/>
        <path class="cls-2" d="M42.97,113.82l-.15.43-5.18,6.17-.09-8.09.14-.39-3.26-1.16-.22.63.81.35c.1.04.17.11.19.19.03.08.03.16,0,.23l-2.77,7.77c-.03.07-.08.13-.15.18-.07.05-.16.06-.27.03l-.85-.24-.22.63,3.15,1.12.22-.63-.81-.35c-.1-.05-.17-.11-.2-.2-.03-.08-.03-.16,0-.23l2.82-7.89.06,10.05.73.26,6.57-7.84-2.86,8.03c-.03.07-.08.13-.16.18-.08.05-.17.06-.28.03l-.8-.22-.22.63,3.68,1.31.22-.63-.77-.34c-.1-.05-.17-.11-.2-.2-.03-.08-.03-.16,0-.23l2.77-7.77c.03-.07.08-.13.15-.18.08-.05.18-.06.28-.03l.81.22h0s.65.14.65.14c.11.02.18.07.23.16.05.08.07.16.06.23l-1.23,8.15c-.01.07-.05.14-.12.2-.07.06-.15.09-.26.08l-.8-.06-.1.66,7.93,1.2.39-2.55-.82-.12-.51,1.47s-.05.11-.13.17c-.07.06-.13.09-.19.08l-3.87-.59.64-4.21,2.29.35c.06,0,.12.05.17.13.05.07.07.14.06.19v1.08s.77.12.77.12l.52-3.41-.78-.12-.32,1.03c0,.05-.05.11-.12.16-.06.05-.13.07-.2.06l-2.29-.35.58-3.81,3.31.5c.07.01.13.05.17.12.05.07.07.14.06.22l.04,1.29.92.14.34-2.28-7.33-1.11-3.2-1.14Z"/>
        <path class="cls-2" d="M21.96,114.29s.02-.12.05-.23l3.3-9.64-.9-.74-8.99,5.25-.81-.43-.42.51,2.4,1.98.42-.51-.66-.64s-.06-.08-.06-.16c0-.08.02-.14.06-.19.01-.02.02-.03.03-.03l2.56-1.5,2.76,2.27-.98,2.86s0,.02-.02.03c-.03.04-.07.06-.14.08-.06.02-.1.01-.14-.01l-.74-.51-.42.51,2.84,2.34.42-.51-.46-.53c-.08-.09-.12-.16-.12-.2ZM19.63,107.57l3.74-2.17-1.41,4.09-2.33-1.92Z"/>
        <path class="cls-2" d="M30.26,117l-1.14,1.48c-.04.05-.1.09-.2.1-.09.01-.17,0-.23-.04l-2.81-1.62,4.27-7.41c.04-.07.1-.11.18-.15.09-.04.18-.03.28.02l.74.36.33-.58-3.42-1.97-.33.58.75.5c.09.06.14.13.15.23.01.09,0,.17-.04.23l-4.12,7.14c-.04.07-.1.11-.18.15-.08.04-.17.03-.27-.02l-.81-.4-.33.58,6.51,3.76,1.44-2.49-.78-.45Z"/>
      </g>
    </g>
  </g>
</svg>