<?xml version="1.0" encoding="UTF-8"?>
<svg id="Layer_2" data-name="Layer 2" xmlns="http://www.w3.org/2000/svg" viewBox="0 0 116.42 126.63">
  <defs>
    <style>
      .cls-1 {
        fill: #7ebd42;
      }

      .cls-2 {
        fill: #79868f;
      }
    </style>
  </defs>
  <g id="Layer_1-2" data-name="Layer 1">
    <g>
      <path class="cls-1" d="M67.44,22.92c3.68,1.39,6.02,4.45,6.25,8.16.23,3.55-1.51,7.1-4.65,9.6l.21,3.24,3.06-.48c1.65-3.75,4.57-6.28,7.91-6.8,3.5-.55,6.83,1.21,8.91,4.7.15.25.17.55.05.83-1.6,4.06-4.63,6.8-8.13,7.35-2.41.38-4.73-.33-6.62-1.93-.75-.64-1.44-1.42-2.04-2.32l-2.99.47c.07,1.26.02,3.67-.94,6.94-.62,2.13-1.71,4.85-3.57,8.02l2.55.32c2.46-3.27,5.85-4.96,9.14-4.55,3.45.44,6.17,3.1,7.29,7.12.08.29.02.6-.15.84-2.48,3.57-6.03,5.43-9.47,5-1.52-.19-2.9-.82-4.07-1.82-1.34-1.14-2.4-2.78-3.06-4.78l-3.3-.42c-1.92,2.96-4.5,6.25-8,9.75-.07.08-3.36,3.47-6.81,7.19l2.17.28c2.47-3.26,5.84-4.96,9.13-4.54,3.45.44,6.17,3.1,7.29,7.12.08.29.02.6-.15.84-2.48,3.57-6.03,5.43-9.47,5-1.52-.19-2.89-.82-4.07-1.82-1.36-1.15-2.41-2.79-3.06-4.79l-3.39-.43c-2.72,2.97-5.27,5.88-6.13,7.25-.02.02-.04.05-.05.07l-6.43,8.41c-.31.4-.85.49-1.2.19-.37-.31-.39-.88-.07-1.27l6.4-8.37s.05-.07.07-.11l-1.13-3.43c-1.99-.24-3.73-.97-5.08-2.13-1.16-.99-2.03-2.27-2.55-3.8-1.14-3.45-.16-7.49,2.62-10.82.2-.24.48-.35.75-.33,3.96.29,7.01,2.53,8.14,5.99,1.08,3.3.23,7.13-2.26,10.37l.8,2.43c1.3-1.61,3.18-3.72,5.12-5.84.08-.14.19-.26.32-.35,3.76-4.09,7.65-8.11,7.94-8.41.42-.42.82-.84,1.21-1.25l-1.1-3.33c-1.98-.25-3.71-.97-5.06-2.12-1.17-.99-2.04-2.28-2.56-3.81-1.13-3.45-.15-7.49,2.62-10.82.2-.24.48-.36.75-.33,3.97.3,7.02,2.54,8.16,5.99,1.09,3.3.23,7.14-2.27,10.38l.84,2.56c2.28-2.55,4.05-4.94,5.43-7.13.01-.03.03-.05.05-.08,2.15-3.42,3.35-6.32,4.01-8.54,1.22-4.12.89-6.72.84-7.11-.02-.06-.03-.13-.03-.2,0-.03,0-.06,0-.09l-.26-4.04c-.96-.42-1.83-.95-2.58-1.59-1.89-1.61-3.04-3.84-3.2-6.38-.24-3.72,1.67-7.44,5.09-9.95.24-.18.52-.22.79-.12ZM60.02,76.93c-2.38-.3-4.85.79-6.82,2.97l8.75,1.11c.47.06.76.51.68,1.02-.09.51-.54.86-1.01.8l-8.74-1.11c1.11,2.56,3.08,4.21,5.46,4.51,2.66.34,5.45-1.08,7.52-3.81-1-3.12-3.16-5.15-5.84-5.5ZM34.85,68.58c-2.09,2.69-2.81,5.86-1.93,8.55.8,2.39,2.75,4.07,5.36,4.67l-2.89-8.78c-.15-.47.08-1,.53-1.21.45-.2.94,0,1.09.48l2.89,8.78c1.59-2.48,2.08-5.25,1.3-7.65-.89-2.68-3.24-4.47-6.35-4.84ZM76.29,58.31c-2.38-.3-4.85.79-6.82,2.97l8.75,1.11c.47.06.76.51.68,1.02-.09.51-.53.86-1,.81l-8.74-1.11c1.11,2.56,3.07,4.22,5.46,4.52,2.66.34,5.45-1.08,7.52-3.81-1.01-3.12-3.16-5.15-5.84-5.5ZM50.78,51.1c-2.09,2.69-2.81,5.86-1.93,8.55.79,2.38,2.74,4.06,5.34,4.66l-2.89-8.77c-.15-.47.08-1.01.53-1.21.45-.2.94,0,1.09.48l2.89,8.79c1.6-2.49,2.09-5.27,1.31-7.66-.89-2.68-3.24-4.47-6.34-4.84ZM87.42,42.02c-1.75-2.68-4.37-3.99-7.1-3.58-2.42.39-4.59,2.09-6,4.69l8.91-1.4c.47-.06.88.28.91.78.02.5-.34.97-.8,1.04l-8.93,1.4c1.72,2.13,4.08,3.15,6.5,2.77,2.72-.44,5.13-2.54,6.5-5.7ZM67.16,24.81c-2.64,2.09-4.09,5.02-3.9,7.91.17,2.58,1.61,4.79,3.94,6.1l-.62-9.51c-.02-.5.33-.97.8-1.04.47-.06.88.28.91.78l.61,9.5c2.11-2.02,3.25-4.62,3.08-7.19-.2-2.9-1.97-5.32-4.83-6.55Z"/>
      <g>
        <path class="cls-2" d="M20.13,103.69c-5.37-5.1-9.66-11.22-12.62-18.01-2.96-6.79-4.52-14.1-4.61-21.5-.08-7.4,1.33-14.75,4.13-21.59,2.81-6.85,6.97-13.06,12.22-18.28l-2.05-2.06c-5.53,5.49-9.91,12.03-12.86,19.24C1.4,48.69-.08,56.42,0,64.21c.09,7.79,1.73,15.49,4.85,22.63,3.11,7.14,7.63,13.59,13.28,18.95l2-2.11Z"/>
        <path class="cls-2" d="M111.99,41.3c-2.93-7.06-7.21-13.48-12.62-18.89l-2.05,2.05c5.14,5.14,9.21,11.23,11.99,17.94,2.78,6.71,4.21,13.9,4.21,21.16s-1.43,14.45-4.21,21.16c-2.78,6.71-6.85,12.81-11.99,17.94l2.05,2.05c5.41-5.41,9.69-11.82,12.62-18.89,2.93-7.06,4.43-14.63,4.43-22.28s-1.51-15.21-4.43-22.28Z"/>
        <path class="cls-2" d="M69.2,8.92l-.82-.11-.48,1.48s-.05.11-.12.17c-.06.06-.13.09-.19.08l-3.87-.53.58-4.22,2.3.31c.06,0,.12.05.17.12.05.07.07.14.07.19v1.08s.79.11.79.11l.47-3.42-.78-.11-.3,1.03c0,.05-.05.11-.11.16-.06.05-.13.07-.2.06l-2.3-.31.52-3.82,3.32.45c.07,0,.13.05.17.12.05.07.07.14.06.21l.06,1.29.92.13.31-2.28L62.31.12l-.09.66.78.17c.11.02.19.07.23.15.05.08.07.15.06.23l-1.11,8.17c-.01.07-.05.14-.12.2-.06.06-.15.09-.26.09l-.8-.05-.09.66,7.94,1.08.35-2.56Z"/>
        <path class="cls-2" d="M52.78,2.64l.18-1.45c.02-.18.11-.27.26-.27l2.23-.05.19,8.55c0,.08-.02.15-.08.22-.05.07-.13.11-.24.13l-.99.08v.66s4.2-.09,4.2-.09v-.66s-1-.04-1-.04c-.11,0-.19-.05-.25-.12-.05-.07-.08-.14-.08-.22l-.19-8.55,2.21-.05c.14,0,.22.08.26.26l.25,1.44.91-.02-.06-2.47-8.76.2.06,2.47.9-.02Z"/>
        <path class="cls-2" d="M22.64,22.27l.38.55,2.57-1.76-.38-.55-.8.45s-.09.03-.17.02c-.08-.02-.13-.06-.16-.11-.01-.02-.02-.03-.02-.04l-.73-2.88,2.95-2.02,2.48,1.73s.02.01.03.03c.03.04.04.09.04.15,0,.06-.02.1-.05.13l-.69.57.38.55,3.03-2.08-.38-.55-.64.29c-.11.05-.18.07-.23.06-.04-.01-.11-.05-.21-.11l-8.35-5.85-.96.66,2.55,10.1-.63.66ZM23.13,17.19l-1.05-4.19,3.54,2.49-2.49,1.71Z"/>
        <path class="cls-2" d="M47.3,1.53c.11-.01.2.01.26.08.06.06.1.12.11.2l1.2,8.16c.01.07,0,.15-.05.23-.04.08-.11.13-.22.15l-.9.19.1.66,4.03-.59-.1-.66-.94.08c-.11,0-.19-.02-.26-.08-.06-.06-.1-.13-.11-.2l-1.2-8.16c-.01-.07,0-.15.05-.22.04-.08.12-.13.22-.15l.92-.2-.1-.67-4.03.59.1.67.92-.07Z"/>
        <path class="cls-2" d="M37.78,3.93c.11-.02.2,0,.27.05.08.05.13.11.15.19l2.21,7.94c.02.07.01.15-.03.24-.03.08-.1.14-.21.18l-.75.27.18.64,7.72-2.15-.69-2.49-.8.22.14,1.55s0,.12-.04.21c-.03.08-.08.13-.15.15l-3.77,1.05-1.14-4.1,2.23-.62c.06-.02.13,0,.21.04.08.05.12.1.14.15l.44.99.76-.21-.93-3.32-.76.21.13,1.07c.01.05,0,.12-.04.19-.04.07-.09.12-.16.14l-2.23.62-1.03-3.71,3.23-.9c.07-.02.14,0,.21.04.07.04.12.1.14.17l.57,1.16.89-.25-.62-2.22-7.24,2.02.18.64.79-.16Z"/>
        <path class="cls-2" d="M30.47,14.06c.48.49,1.04.88,1.67,1.16.63.28,1.32.42,2.05.42.73,0,1.49-.18,2.28-.54.48-.22.91-.46,1.29-.74.38-.28.68-.52.9-.73.23-.21.35-.33.37-.35l-1.03-2.28-.82.37.37,1.68c.03.15-.02.28-.14.4-.01.01-.1.1-.27.27-.17.17-.42.33-.75.48-1.11.5-2.16.53-3.12.07-.97-.46-1.75-1.34-2.34-2.65-.41-.9-.6-1.73-.58-2.48.02-.75.22-1.39.58-1.94.37-.55.88-.97,1.51-1.25.33-.15.63-.23.91-.25.28-.03.49-.04.63-.04h.07s.11.02.19.06c.08.04.14.09.2.16l.78,1.19.85-.38-1-2.21c-.65.08-1.2.17-1.67.26-.46.09-.92.24-1.38.45-.98.44-1.75,1.04-2.3,1.79-.55.75-.86,1.59-.94,2.52-.08.92.1,1.87.54,2.85.29.65.68,1.22,1.17,1.72Z"/>
        <path class="cls-2" d="M81.67,15.71c.74.02,1.41-.11,1.99-.38.59-.27,1.11-.66,1.54-1.14.44-.49.79-1.04,1.07-1.65.49-1.09.66-2.08.52-2.98-.14-.9-.52-1.68-1.15-2.37-.63-.69-1.44-1.25-2.42-1.7l-3.63-1.64-.27.61.72.39c.1.05.16.12.18.21.03.09.02.17,0,.24l-3.39,7.52c-.03.07-.09.12-.17.16-.08.04-.17.04-.28,0l-.77-.28-.27.61,3.92,1.77c.89.4,1.7.61,2.43.63ZM81.76,5.65l1.07.48c.74.34,1.33.76,1.75,1.27.43.51.66,1.14.69,1.87.04.73-.17,1.59-.61,2.57-.44.97-.94,1.68-1.5,2.13-.56.45-1.17.69-1.83.72-.66.02-1.35-.12-2.08-.44l-1.15-.5,3.65-8.11Z"/>
        <path class="cls-2" d="M89.89,9.42l.63.5c.09.07.14.15.14.24.01.09,0,.17-.05.23l-4.62,6.83c-.04.06-.11.11-.2.13-.09.03-.18.01-.27-.04l-.7-.4-.37.55,6.64,4.49,1.45-2.14-.69-.47-1.09,1.11s-.09.07-.19.1c-.09.03-.16.02-.21-.01l-3.24-2.19,2.39-3.53,1.92,1.3c.05.04.09.1.1.19.01.09,0,.15-.03.2l-.47.98.65.44,1.93-2.86-.65-.44-.73.79s-.09.08-.17.09c-.08.02-.15,0-.21-.03l-1.92-1.3,2.16-3.19,2.78,1.88c.06.04.09.1.11.18.01.08,0,.15-.04.22l-.52,1.18.77.52,1.29-1.91-6.22-4.21-.37.55Z"/>
        <path class="cls-2" d="M75.42,113.78c-.8-.25-1.89-.15-3.29.27l-3.54,1.08.19.64.91-.21c.11-.03.2-.01.27.04.08.05.13.11.15.18l2.42,7.88c.02.07.01.15-.02.24-.03.08-.1.15-.2.19l-.76.3.19.64,3.88-1.19-.19-.64-.99.24c-.11.02-.2,0-.27-.04-.07-.05-.11-.12-.14-.19l-.84-2.75s.18-.04.42-.09c.24-.06.46-.12.65-.18h.04c.71-.23,1.31-.54,1.82-.96.5-.42.85-.92,1.05-1.5.2-.58.18-1.23-.04-1.95-.33-1.09-.9-1.76-1.7-2ZM75.48,118.35c-.33.54-.87.92-1.64,1.16h-.04c-.14.06-.31.1-.52.13-.2.03-.31.05-.34.06l-1.43-4.66s.09-.03.27-.09c.18-.06.34-.11.47-.15.94-.29,1.68-.29,2.2-.01.53.28.9.77,1.12,1.49.26.85.22,1.54-.11,2.08Z"/>
        <path class="cls-2" d="M69.18,124.82c-.11,0-.19-.02-.26-.08-.07-.06-.11-.13-.12-.2l-1.38-8.13c-.01-.07,0-.15.05-.22.04-.08.12-.13.22-.15l.92-.22-.11-.67-4.02.68.11.67.92-.1c.11-.01.2.01.26.07.07.06.1.12.12.19l1.38,8.13c.01.07,0,.15-.05.23-.04.08-.11.13-.22.16l-.9.21.11.66,4.02-.68-.11-.65-.94.1Z"/>
        <path class="cls-2" d="M85.26,119.18c-.1.04-.2.04-.28,0-.08-.04-.13-.1-.16-.16l-3.7-7.71,1.99-.96c.12-.06.24-.02.35.13l.82,1.21.82-.4-1.07-2.23-7.9,3.79,1.07,2.23.81-.39-.44-1.4c-.05-.17-.01-.29.12-.35l2.01-.96,3.7,7.71c.03.07.04.15.02.23-.01.09-.07.16-.17.21l-.87.48.29.6,3.78-1.81-.29-.6-.92.37Z"/>
        <path class="cls-2" d="M95.02,107.47c-.44-.61-.95-1.11-1.53-1.49-.58-.4-1.19-.67-1.84-.81-.65-.15-1.31-.16-1.98-.02-.67.13-1.31.43-1.93.87-.62.45-1.1.97-1.44,1.56-.34.59-.54,1.21-.61,1.88-.07.66,0,1.33.19,2,.2.67.51,1.3.96,1.92.61.84,1.32,1.47,2.15,1.89.82.42,1.68.6,2.57.54.89-.06,1.75-.39,2.57-.98.61-.44,1.09-.96,1.42-1.55.34-.59.54-1.22.61-1.88.07-.66,0-1.33-.19-2-.19-.67-.5-1.31-.94-1.92ZM94.71,112.56c-.15.62-.52,1.15-1.13,1.59-.59.43-1.21.61-1.84.56-.64-.06-1.25-.31-1.85-.73-.6-.43-1.14-.98-1.63-1.65-.48-.66-.83-1.35-1.04-2.04-.21-.7-.24-1.35-.09-1.97.15-.62.53-1.16,1.13-1.59.58-.42,1.19-.61,1.82-.55.63.05,1.25.29,1.85.71.6.42,1.15.97,1.64,1.65.48.66.82,1.34,1.03,2.05.21.7.25,1.36.1,1.98Z"/>
        <path class="cls-2" d="M24.54,112.56l.64.46,2.01-2.8-.64-.46-.75.77s-.09.07-.17.09c-.08.02-.15,0-.21-.04l-1.88-1.35,2.25-3.13,2.72,1.96c.06.04.09.1.1.18s0,.15-.05.22l-.55,1.17.75.54,1.34-1.87-6.1-4.39-.39.54.61.52c.09.07.13.15.13.24,0,.09-.01.17-.05.23l-4.81,6.69c-.04.06-.11.1-.2.12-.09.02-.18,0-.27-.05l-.68-.42-.39.54,6.51,4.68,1.51-2.1-.67-.48-1.12,1.08s-.1.07-.19.1c-.09.03-.16.02-.21-.02l-3.18-2.28,2.49-3.46,1.88,1.35c.05.04.09.1.1.19.01.09,0,.16-.03.2l-.5.96Z"/>
        <path class="cls-2" d="M63.91,123.39l-.15,1.87c0,.07-.04.13-.11.19-.07.06-.14.09-.21.1l-3.24.18-.48-8.54c0-.08.02-.15.07-.22.06-.08.14-.12.25-.13l.82-.11-.04-.66-3.94.22.04.66h.9c.11,0,.19.04.25.12.06.07.09.14.1.21l.46,8.23c0,.08-.02.15-.07.22-.05.07-.12.12-.23.13l-.89.11.04.66,7.51-.42-.16-2.87-.9.05Z"/>
        <path class="cls-2" d="M38.13,113.25c.08-.04.18-.04.28,0l.83.34.29-.6-3.02-1.48-.29.6.77.44c.1.05.15.13.17.22.02.09.02.17-.01.24l-2.41,4.92c-.25.51-.54.94-.88,1.29-.33.35-.73.57-1.19.65-.46.07-1.01-.05-1.65-.36-.64-.31-1.08-.67-1.3-1.07-.23-.4-.3-.83-.22-1.3.08-.47.25-.98.52-1.52l2.41-4.92c.03-.07.09-.12.16-.16.08-.04.18-.04.28,0l.82.33.29-.6-3.53-1.73-.29.6.71.42c.1.05.15.12.16.21.02.09.01.17-.02.23l-2.58,5.28c-.53,1.09-.66,2.05-.38,2.88.29.83,1,1.53,2.15,2.08,1.16.57,2.18.73,3.04.5.87-.23,1.59-.92,2.14-2.06l2.58-5.28c.03-.07.09-.12.16-.16Z"/>
        <path class="cls-2" d="M46.85,117.98l.67-2.33c-.55-.36-1.03-.65-1.44-.88-.41-.23-.86-.41-1.34-.55-1.03-.3-2.01-.34-2.92-.13-.91.21-1.69.65-2.35,1.31-.66.65-1.14,1.49-1.44,2.52-.2.68-.27,1.37-.23,2.06.05.69.22,1.34.52,1.96.3.62.73,1.17,1.29,1.65.56.47,1.26.83,2.09,1.07.51.15.99.24,1.46.27.47.04.85.05,1.16.03.31-.01.48-.02.51-.03l.7-2.41-.86-.25-.81,1.52c-.07.13-.2.2-.37.22-.02,0-.14.01-.39.03-.24.02-.54-.02-.88-.12-1.17-.34-1.98-1-2.42-1.97-.44-.98-.46-2.16-.06-3.54.28-.95.66-1.71,1.17-2.26.5-.56,1.07-.92,1.7-1.1.64-.18,1.29-.17,1.96.03.34.1.63.23.85.4.23.16.39.29.5.38l.05.05s.07.09.11.17c.04.08.05.16.05.25l-.17,1.41.89.26Z"/>
        <path class="cls-2" d="M55.51,125.68s-.05-.11-.08-.22l-2.59-9.86-1.16-.12-4.58,9.35-.91.1-.07.66,3.09.32.07-.66-.9-.17s-.09-.04-.14-.1c-.04-.07-.06-.13-.06-.19,0-.02,0-.03.01-.04l1.31-2.67,3.55.36.77,2.92s0,.02,0,.04c0,.05-.03.09-.07.14-.04.05-.08.07-.12.06l-.89-.02-.07.66,3.66.38.07-.66-.68-.19c-.11-.03-.18-.07-.21-.1ZM49.84,121.37l1.91-3.88,1.1,4.19-3-.31Z"/>
      </g>
    </g>
  </g>
</svg>