<?xml version="1.0" encoding="UTF-8"?>
<svg id="Layer_2" data-name="Layer 2" xmlns="http://www.w3.org/2000/svg" viewBox="0 0 116.42 126.63">
  <defs>
    <style>
      .cls-1 {
        fill: #7ebd42;
      }

      .cls-2 {
        fill: #79868f;
      }
    </style>
  </defs>
  <g id="Layer_1-2" data-name="Layer 1">
    <g>
      <path class="cls-1" d="M67.93,54.95c4.36-.11,8.87-2.31,12.42-6.07,3.69-3.91,5.78-8.89,5.73-13.67,0-.65-.5-1.18-1.12-1.18-.05,0-.09,0-.14,0-4.47,0-9.12,2.21-12.76,6.07-3.56,3.77-5.62,8.54-5.72,13.16l-9.7,10.28v-6.77c3.01-3.34,4.73-8.27,4.73-13.59s-1.85-10.61-5.07-13.96c-.44-.45-1.14-.45-1.58,0-3.22,3.35-5.07,8.43-5.07,13.96s1.72,10.25,4.73,13.59v9.16l-6.06,6.42v-5.55c1.98-.68,3.41-3.14,3.41-6.16,0-3.56-1.99-6.35-4.54-6.35s-4.54,2.79-4.54,6.35c0,3.01,1.43,5.47,3.41,6.16v7.94l-7.66,8.12v-5.55c1.98-.68,3.41-3.14,3.41-6.16,0-3.56-1.99-6.35-4.54-6.35s-4.54,2.79-4.54,6.35c0,3.01,1.43,5.47,3.41,6.16v7.94l-10.54,11.17c-.44.47-.44,1.22,0,1.69.22.23.51.35.8.35s.58-.12.8-.35l5.56-5.89h7.54c.65,2.1,2.97,3.61,5.81,3.61,3.36,0,5.99-2.11,5.99-4.81s-2.63-4.81-5.99-4.81c-2.84,0-5.16,1.51-5.81,3.61h-5.29l2.91-3.08c.11-.08.2-.18.27-.29l2.9-3.07h8.64c3.16,3.19,7.8,5.01,12.83,5.01s10.02-1.96,13.17-5.37c.43-.46.43-1.21,0-1.67-3.16-3.41-7.96-5.37-13.17-5.37s-9.67,1.82-12.83,5.01h-6.39l4.49-4.76c.11-.08.2-.18.27-.29l10.67-11.31h7.54c.65,2.1,2.97,3.61,5.81,3.61,3.36,0,5.99-2.11,5.99-4.81s-2.63-4.81-5.99-4.81c-2.84,0-5.16,1.51-5.81,3.61h-5.29l6.88-7.29ZM55.51,31.83c2.27,2.87,3.6,7.01,3.6,11.35s-1.33,8.48-3.6,11.35c-2.27-2.87-3.6-7.01-3.6-11.35s1.33-8.48,3.6-11.35ZM44.92,60.64c0-2.11,1.07-3.96,2.28-3.96s2.28,1.85,2.28,3.96-1.07,3.96-2.28,3.96-2.28-1.85-2.28-3.96ZM35,71.14c0-2.11,1.07-3.96,2.28-3.96s2.28,1.85,2.28,3.96-1.07,3.96-2.28,3.96-2.28-1.85-2.28-3.96ZM46.12,88.6c1.99,0,3.74,1.13,3.74,2.42s-1.75,2.42-3.74,2.42-3.74-1.13-3.74-2.42,1.75-2.42,3.74-2.42ZM62.57,78.36c4.09,0,8,1.41,10.71,3.82-2.71,2.41-6.62,3.82-10.71,3.82s-8-1.41-10.71-3.82c2.71-2.41,6.62-3.82,10.71-3.82ZM72.15,61.02c1.99,0,3.74,1.13,3.74,2.42s-1.75,2.42-3.74,2.42-3.74-1.13-3.74-2.42,1.75-2.42,3.74-2.42ZM73.66,41.79c2.93-3.11,6.57-5.01,10.12-5.33-.31,3.73-2.13,7.66-5.02,10.73-2.93,3.11-6.57,5.01-10.12,5.33.31-3.73,2.13-7.66,5.02-10.73Z"/>
      <g>
        <path class="cls-2" d="M13.21,95.73c-4.99-6.98-8.29-15.03-9.63-23.51-1.34-8.48-.69-17.15,1.9-25.34,2.59-8.18,7.05-15.65,13.03-21.81l-2.09-2.02c-6.29,6.48-10.99,14.34-13.71,22.96C-.01,54.61-.7,63.74.71,72.67c1.41,8.92,4.88,17.4,10.13,24.75,5.25,7.35,12.14,13.38,20.13,17.61l1.36-2.57c-7.59-4.02-14.13-9.74-19.12-16.73Z"/>
        <path class="cls-2" d="M113.46,45.23c-2.86-8.6-7.68-16.41-14.08-22.81l-2.05,2.05c6.09,6.09,10.67,13.51,13.38,21.67,2.71,8.17,3.48,16.86,2.25,25.37-1.24,8.52-4.44,16.63-9.36,23.69-4.92,7.06-11.42,12.87-18.99,16.98l1.39,2.55c7.96-4.32,14.8-10.44,19.98-17.87,5.18-7.43,8.55-15.97,9.86-24.93s.49-18.11-2.36-26.71Z"/>
        <path class="cls-2" d="M37.78,3.93c.11-.02.2,0,.27.05.08.05.13.11.15.19l2.21,7.94c.02.07.01.15-.03.24-.03.08-.1.14-.21.18l-.75.27.18.64,7.72-2.15-.69-2.49-.8.22.14,1.55s0,.12-.04.21c-.03.08-.08.13-.15.15l-3.77,1.05-1.14-4.1,2.23-.62c.06-.02.13,0,.21.04.08.05.12.1.14.15l.44.99.76-.21-.93-3.32-.76.21.13,1.07c.01.05,0,.12-.04.19-.04.07-.09.12-.16.14l-2.23.62-1.03-3.71,3.23-.9c.07-.02.14,0,.21.04.07.04.12.1.14.17l.57,1.16.89-.25-.62-2.22-7.24,2.02.18.64.79-.16Z"/>
        <path class="cls-2" d="M47.3,1.53c.11-.01.2.01.26.08.06.06.1.12.11.2l1.2,8.16c.01.07,0,.15-.05.23-.04.08-.11.13-.22.15l-.9.19.1.66,4.03-.59-.1-.66-.94.08c-.11,0-.19-.02-.26-.08-.06-.06-.1-.13-.11-.2l-1.2-8.16c-.01-.07,0-.15.05-.22.04-.08.12-.13.22-.15l.92-.2-.1-.67-4.03.59.1.67.92-.07Z"/>
        <path class="cls-2" d="M69.2,8.92l-.82-.11-.48,1.48s-.05.11-.12.17c-.06.06-.13.09-.19.08l-3.88-.53.58-4.22,2.3.31c.06,0,.12.05.17.12.05.07.07.14.07.19v1.08s.79.11.79.11l.47-3.42-.78-.11-.3,1.03c0,.05-.05.11-.11.16-.06.05-.13.07-.2.06l-2.3-.31.52-3.82,3.32.45c.07,0,.13.05.17.12.05.07.07.14.06.21l.06,1.29.92.13.31-2.28L62.3.12l-.09.66.78.17c.11.02.19.07.23.15.05.08.07.15.06.23l-1.11,8.17c-.01.07-.05.14-.12.2-.06.06-.15.09-.26.09l-.8-.05-.09.66,7.94,1.08.35-2.56Z"/>
        <path class="cls-2" d="M52.78,2.64l.18-1.45c.02-.18.11-.27.26-.27l2.23-.05.19,8.55c0,.08-.02.15-.08.22-.05.07-.13.11-.24.13l-.99.08v.66s4.2-.09,4.2-.09v-.66s-1.01-.04-1.01-.04c-.11,0-.19-.05-.25-.12-.05-.07-.08-.14-.08-.22l-.19-8.55,2.21-.05c.14,0,.22.08.26.26l.25,1.44.91-.02-.06-2.47-8.76.2.06,2.47.9-.02Z"/>
        <path class="cls-2" d="M22.64,22.27l.38.55,2.57-1.76-.38-.55-.8.45s-.09.03-.17.02c-.08-.02-.13-.06-.16-.11-.01-.02-.02-.03-.02-.04l-.73-2.88,2.95-2.02,2.48,1.73s.02.01.03.03c.03.04.04.09.04.15,0,.06-.02.1-.05.13l-.69.57.38.55,3.03-2.08-.38-.55-.64.29c-.11.05-.18.07-.23.06-.04-.01-.11-.05-.21-.11l-8.35-5.85-.96.66,2.55,10.1-.63.66ZM23.13,17.19l-1.05-4.19,3.54,2.49-2.49,1.71Z"/>
        <path class="cls-2" d="M92.54,19.81l-.69-.47-1.09,1.11s-.09.07-.19.1c-.09.03-.16.02-.21-.01l-3.24-2.19,2.39-3.53,1.92,1.3c.05.04.09.1.1.19.01.09,0,.15-.03.2l-.47.98.65.44,1.93-2.86-.65-.44-.73.79s-.09.08-.17.09c-.08.02-.15,0-.21-.03l-1.92-1.3,2.16-3.19,2.78,1.88c.06.04.09.1.11.18.01.08,0,.15-.04.22l-.52,1.18.77.52,1.29-1.91-6.22-4.21-.37.55.63.5c.09.07.14.15.14.24.01.09,0,.17-.05.23l-4.62,6.83c-.04.06-.11.11-.2.13-.09.03-.18.01-.27-.04l-.7-.4-.37.55,6.64,4.49,1.45-2.14Z"/>
        <path class="cls-2" d="M86.27,12.54c.49-1.09.66-2.08.52-2.98-.14-.9-.52-1.68-1.15-2.37-.63-.69-1.44-1.25-2.42-1.7l-3.63-1.64-.27.61.72.39c.1.05.16.12.18.21.03.09.02.17,0,.24l-3.39,7.52c-.03.07-.09.12-.17.16-.08.04-.17.04-.28,0l-.77-.28-.27.61,3.92,1.77c.89.4,1.7.61,2.43.63.74.02,1.41-.11,1.99-.38.59-.27,1.11-.65,1.54-1.14.44-.49.79-1.04,1.07-1.65ZM83.16,13.98c-.56.45-1.17.69-1.83.72-.66.02-1.35-.12-2.08-.44l-1.15-.5,3.65-8.11,1.07.48c.74.33,1.33.76,1.75,1.27.43.51.66,1.14.69,1.87.04.73-.17,1.59-.61,2.57-.44.97-.94,1.68-1.5,2.13Z"/>
        <path class="cls-2" d="M38.66,13.63c.23-.21.35-.33.37-.35l-1.03-2.28-.82.37.37,1.68c.03.15-.02.28-.14.4-.01.01-.1.1-.27.27s-.42.33-.75.48c-1.11.5-2.16.53-3.12.07-.97-.46-1.75-1.34-2.34-2.65-.41-.9-.6-1.73-.58-2.48.02-.75.22-1.39.58-1.94.37-.55.88-.97,1.51-1.25.33-.15.63-.23.91-.25.28-.03.49-.04.63-.04h.07s.11.02.19.06c.08.04.14.09.2.16l.78,1.19.85-.38-1-2.21c-.65.08-1.2.17-1.67.26-.46.09-.92.24-1.38.45-.98.44-1.75,1.04-2.3,1.79-.55.75-.86,1.59-.94,2.52-.08.92.1,1.87.54,2.85.29.65.68,1.22,1.17,1.72.48.49,1.04.88,1.67,1.16.63.28,1.32.42,2.05.42.73,0,1.49-.18,2.28-.54.48-.22.91-.46,1.29-.74.38-.28.68-.52.9-.73Z"/>
        <path class="cls-2" d="M64.75,123.58l-.18,1.55c0,.05-.03.12-.09.19-.05.07-.11.11-.17.12l-3.9.26-.28-4.25,2.31-.15c.07,0,.13.02.19.09.06.06.1.12.1.17l.23,1.06.78-.05-.23-3.44-.78.05-.09,1.07c0,.06-.02.12-.08.18-.05.06-.11.1-.18.1l-2.31.15-.25-3.84,3.34-.22c.07,0,.14.02.19.08.06.06.09.12.1.2l.32,1.25.93-.06-.15-2.3-7.5.49.04.66h.8c.11,0,.2.04.26.11.06.07.1.14.1.21l.54,8.23c0,.08-.02.15-.08.22-.05.07-.13.12-.24.14l-.79.11.04.66,8-.53-.17-2.58-.83.05Z"/>
        <path class="cls-2" d="M55.03,116.84c.07,0,.13.04.18.11.05.07.07.14.07.21l.12,1.28.92.08.2-2.29-7.43-.65-3.08-.84-.17.64.84.29c.1.03.17.09.2.18.03.08.04.16.02.23l-1.87,6.85-2.92-8.86.1-.37-2.96-.81-.17.64.87.3c.11.03.17.09.21.18.04.08.05.16.03.23l-2.17,7.95c-.02.07-.07.14-.15.19-.07.05-.16.07-.27.05l-.87-.17-.17.64,3.23.88.17-.64-.84-.29c-.1-.04-.17-.1-.21-.18-.03-.08-.04-.16-.02-.23l2-7.33,3.27,9.87,1.17.32,2.45-8.98c.02-.07.06-.14.13-.19.07-.06.16-.08.27-.05l.85.17h0s.74.12.74.12c.11.01.19.06.24.14.05.08.08.15.07.23l-.72,8.21c0,.08-.04.15-.11.21-.06.07-.15.1-.26.1h-.8s-.06.65-.06.65l7.99.7.23-2.57-.83-.07-.41,1.5s-.05.11-.11.18c-.06.07-.12.1-.19.09l-3.9-.34.37-4.24,2.31.2c.07,0,.13.04.18.11.05.07.08.13.07.19l.06,1.08.78.07.3-3.44-.78-.07-.25,1.05c0,.06-.04.11-.11.17-.06.06-.13.08-.2.07l-2.31-.2.34-3.84,3.34.29Z"/>
        <path class="cls-2" d="M78.67,122.06c-.11.02-.2,0-.28-.05-.07-.05-.12-.12-.14-.19l-2.14-7.96c-.02-.07-.01-.15.02-.23.04-.09.11-.15.22-.18l.79-.28-.17-.64-3.43.92.12.44-.75,8.02-4.68-6.61-.11-.4-3.35.9.17.64.87-.17c.11-.02.2,0,.26.05.07.05.12.12.14.19l2.14,7.96c.02.07.01.15-.02.23-.03.08-.1.14-.2.18l-.84.29.17.64,3.23-.87-.17-.64-.87.17c-.11.02-.2,0-.28-.05-.07-.05-.12-.12-.14-.19l-2.17-8.09,5.77,8.23.74-.2.95-10.18,2.21,8.23c.02.07,0,.15-.03.24-.04.08-.1.14-.21.18l-.78.27.17.64,3.77-1.01-.17-.64-.82.16Z"/>
      </g>
    </g>
  </g>
</svg>