<?xml version="1.0" encoding="UTF-8"?>
<svg id="Layer_2" data-name="Layer 2" xmlns="http://www.w3.org/2000/svg" viewBox="0 0 116.42 126.54">
  <defs>
    <style>
      .cls-1 {
        fill: #7ebd42;
      }

      .cls-2 {
        fill: #79868f;
      }
    </style>
  </defs>
  <g id="Layer_1-2" data-name="Layer 1">
    <g>
      <path class="cls-1" d="M79.66,49.5c.52-.22,1.1.04,1.29.57.19.53-.08,1.14-.6,1.36l-9.01,3.78c-.29.88-.58,1.76-.87,2.64l7.44-3.12c.52-.22,1.1.04,1.29.57.19.53-.08,1.14-.6,1.36l-9.03,3.78c-.31.89-.63,1.78-.95,2.67l7.38-3.09c.52-.22,1.1.04,1.29.57.19.53-.08,1.14-.6,1.36l-9.04,3.79c-.34.91-.68,1.81-1.03,2.71l7.31-3.06c.52-.22,1.1.04,1.29.57.19.53-.08,1.14-.6,1.36l-9.05,3.79c-.32.81-.65,1.61-.98,2.41,4.31-1.29,11.01-2.62,15.94-.44,4.19,1.85,5.64,5.89,3.69,10.31-.27.62-.61,1.25-1.01,1.88-.31.49-.94.64-1.4.34-.46-.3-.58-.95-.27-1.44.24-.37.45-.75.63-1.12-.29-.42-.87-1.03-1.72-1.69-.34,1.5-1.1,3.1-1.56,3.98.09.67-.02,1.45-.23,2.25.17-.16.33-.32.49-.48.41-.41,1.04-.41,1.42,0,.38.41.36,1.07-.05,1.48-3.41,3.45-8.59,6.66-14.2,8.8-5.46,2.09-10.17,2.7-12.59,1.63-.52-.23-1.01-.49-1.48-.77-1.45,2.39-2.94,4.65-4.42,6.74-.34.47-.97.59-1.41.26-.44-.33-.53-.98-.2-1.45,1.48-2.08,2.96-4.35,4.41-6.74-1.33-1.18-2.34-2.63-2.93-4.28-.19-.53.08-1.14.6-1.36.52-.22,1.1.04,1.29.57.81,2.27,2.53,4.04,4.97,5.12.96.42,2.55.47,4.5.17-.82-.54-2.02-1.13-3.4-1.6-.28-.09-.5-.31-.6-.6-.1-.28-.08-.61.07-.88,1.03-1.92,1.96-4.49,1.69-5.25-.22-.61-2.09-1.82-4.52-2.65-.28-.09-.5-.31-.6-.6-.1-.28-.08-.61.07-.88.63-1.16,1.21-2.56,1.52-3.65-1.62,1.2-2.77,2.38-3.22,3.41-.57,1.3-.9,2.6-.97,3.89-.03.58-.51,1.03-1.07,1.02-.56-.01-.98-.49-.95-1.07.09-1.54.48-3.11,1.16-4.65.41-.94,1.14-1.84,1.99-2.66l-8.69-2.27c-.53-.14-.84-.71-.69-1.27.09-.33.33-.59.62-.71.19-.08.41-.1.63-.05l8.23,2.15c-.25-.97-.5-1.92-.76-2.86l-9.63-2.52c-.53-.14-.84-.71-.69-1.27.09-.33.33-.59.62-.71.19-.08.41-.1.63-.05l8.42,2.2c-.29-1.04-.59-2.06-.89-3.05l-9.65-2.52c-.53-.14-.84-.71-.69-1.27.09-.33.33-.59.62-.71.19-.08.41-.1.63-.05l8.37,2.19c-.3-.98-.61-1.94-.91-2.88l-4.04-1.06c-.53-.14-.84-.71-.68-1.26.16-.56.71-.9,1.25-.76l2.69.7c-.31-.93-.62-1.84-.93-2.72l-9.67-2.53c-.53-.14-.84-.71-.69-1.27.09-.33.33-.59.62-.71.19-.08.41-.1.63-.05l8.26,2.16c-.32-.88-.63-1.74-.94-2.56l-9.69-2.53c-.53-.14-.84-.71-.69-1.27.09-.33.33-.59.62-.71.19-.08.41-.1.63-.05l8.21,2.14c-.33-.85-.65-1.65-.95-2.41l-9.16-2.39c-.53-.14-.84-.71-.69-1.26.09-.34.33-.59.62-.71.19-.08.41-.1.63-.05l8.89,2.32,4.58-7.94c.29-.5.91-.68,1.38-.4.47.28.62.92.33,1.42l-4.71,8.17c.31.76.63,1.57.96,2.43l4.19-7.27c.29-.5.91-.68,1.38-.4.47.28.62.92.33,1.42l-4.99,8.66c.3.8.61,1.63.92,2.5l4.16-7.22c.29-.5.91-.68,1.38-.4.47.28.62.92.33,1.42l-5,8.68c.29.83.58,1.69.88,2.57l4.13-7.17c.12-.21.31-.37.51-.46.28-.12.6-.11.87.06.47.28.62.92.33,1.42l-5.01,8.69c.28.86.56,1.74.84,2.64l4.1-7.1c.29-.5.91-.68,1.38-.4.47.28.62.92.33,1.42l-5.02,8.7c.27.89.53,1.8.79,2.72l4.06-7.04c.29-.5.91-.68,1.38-.4.47.28.62.92.33,1.42l-5.03,8.72c.25.92.49,1.85.74,2.79l3.17-5.32c.3-.5.92-.67,1.39-.38.47.29.61.93.32,1.42l-2.33,3.91c1.57-.92,3.33-1.8,5.17-2.57.36-.15.72-.29,1.08-.44l-3.29-4.68c-.32-.46-.21-1.11.24-1.46.07-.06.15-.1.24-.14.42-.17.9-.05,1.17.33l3.13,4.46c.38-.91.76-1.83,1.13-2.76l-5.79-8.24c-.32-.46-.21-1.11.24-1.46.07-.06.15-.1.24-.14.42-.17.9-.05,1.17.33l5.06,7.2c.39-1.01.78-2.02,1.16-3.04l-5.8-8.26c-.32-.46-.21-1.11.24-1.46.07-.06.15-.11.24-.14.42-.17.9-.05,1.17.33l5.03,7.16c.35-.97.7-1.94,1.04-2.91l-5.81-8.27c-.32-.46-.21-1.11.24-1.46.07-.06.16-.1.24-.14.42-.17.9-.05,1.17.33l5,7.12c.31-.93.62-1.86.93-2.79l-5.82-8.28c-.32-.46-.21-1.11.24-1.46.07-.06.15-.1.24-.14.42-.17.9-.05,1.17.33l5.67,8.07,8.74-3.66ZM58.84,89.96c-.2,1.4-.85,2.99-1.38,4.09,1.08.43,2.55,1.13,3.57,2.02.93-1.8,1.51-3.53,1.32-4.07-.19-.53-1.7-1.39-3.51-2.05ZM64.29,93.11c-.2,1.04-.65,2.18-1.13,3.17.82-.25,1.68-.54,2.54-.88.53-.2,1.06-.42,1.59-.64-.66-.51-1.72-1.11-3-1.65ZM66.45,86.78c-.14.78-.45,1.7-.94,2.77-.25.55-.51,1.06-.74,1.48,1.21.49,2.9,1.28,4.03,2.26.86-1.77,1.49-3.63,1.26-4.27-.19-.53-1.62-1.47-3.61-2.25ZM60.95,83.64c-.25,1.44-1.02,3.09-1.64,4.25,1.18.41,2.78,1.06,3.86,1.95,1.02-1.93,1.51-3.59,1.32-4.12-.19-.53-1.59-1.4-3.54-2.08ZM74.64,90.78c-.59-.32-1.54-.65-2.57-.88-.11.82-.41,1.82-.9,2.99,1.22-.66,2.39-1.37,3.48-2.11ZM55.48,80.58c-.2,1.4-.85,2.99-1.38,4.09,1.08.43,2.55,1.13,3.57,2.02.93-1.8,1.51-3.53,1.32-4.07-.19-.53-1.7-1.39-3.51-2.05ZM74.05,83.65c-.13.67-.39,1.55-.87,2.71-.22.54-.45,1.05-.66,1.48,1.08.24,2.45.65,3.45,1.31.74-1.67,1.08-3.1.92-3.55-.16-.45-1.27-1.25-2.84-1.95ZM68.51,80.32c-.13.79-.43,1.72-.89,2.81-.25.59-.51,1.13-.74,1.58.44.17.98.38,1.53.63,1.02.47,1.82.94,2.41,1.43.9-1.93,1.47-3.75,1.29-4.25-.18-.5-1.73-1.43-3.6-2.2ZM62.95,76.97c-.22,1.55-.98,3.36-1.57,4.61.43.14.94.33,1.47.55,1.03.43,1.83.89,2.42,1.36.87-1.78,1.5-3.65,1.27-4.29-.19-.53-1.61-1.47-3.59-2.24ZM60.93,76.99c-1.41.58-2.76,1.22-4,1.89.96.38,2.01.89,2.8,1.52.56-1.23,1.01-2.5,1.2-3.41ZM75.69,77.89c-.2,1.26-.76,2.65-1.22,3.64.96.4,2.24,1.02,3.17,1.8.66-1.48,1.13-3.01.94-3.52-.19-.52-1.49-1.3-2.89-1.92ZM70.83,74.81c-.32,1.21-1.09,2.52-1.73,3.48.42.17.91.38,1.41.62,1.08.51,1.82.97,2.34,1.37.72-1.66,1.04-3.06.88-3.51-.16-.45-1.3-1.26-2.89-1.95ZM68.83,74.57c-1.25.25-2.55.57-3.88.97,1.1.51,1.94,1.02,2.53,1.55.61-.93,1.11-1.86,1.35-2.53ZM39.42,61.37c.53.14.84.71.69,1.27-.16.56-.72.9-1.25.76l-2.04-.53c-.53-.14-.84-.71-.69-1.27.09-.33.33-.59.62-.71.19-.08.41-.1.63-.05l2.04.53ZM81.23,75.92c-.09,1.1-.34,2.24-.53,3,.61.42,1.51,1.08,2.26,1.83.17-.97.12-1.89-.18-2.7-.29-.82-.82-1.54-1.55-2.13ZM79.24,74.81c-1.5-.57-3.34-.83-5.42-.8.65.43,1.22.93,1.57,1.49.88.32,2.44.94,3.63,1.8.18-.93.29-1.88.23-2.5ZM40.85,34.46c.54.11.88.66.75,1.22l-1.55,6.87,2.94-5.1c.29-.5.91-.68,1.38-.4.47.28.62.92.33,1.42l-4.01,6.95c-.24.41-.7.62-1.14.5l-7.75-2.02c-.53-.14-.84-.71-.68-1.26.09-.33.33-.59.62-.71.19-.08.41-.1.63-.05l4.98,1.3-5.57-3.3c-.47-.28-.62-.92-.33-1.42.29-.5.91-.68,1.38-.4l3.76,2.23c-.73-1.51-1.44-2.9-2.13-4.17-.27-.49-.09-1.13.4-1.43.05-.03.09-.05.14-.07.46-.19.98-.02,1.23.43.78,1.43,1.58,3.02,2.41,4.74l1.01-4.49c.08-.36.33-.64.63-.77.18-.07.38-.1.58-.06ZM77.25,27.61c.55.07.92.6.82,1.17-.27,1.66-.61,3.46-1.02,5.39l3.47-2.97c.44-.37,1.07-.32,1.41.11.34.44.27,1.1-.17,1.47l-5.3,4.55,5.3-2.22c.52-.22,1.1.04,1.29.57.19.53-.08,1.14-.6,1.36l-6.73,2.82c-.21.84-.43,1.69-.66,2.55l7.12-2.98c.52-.22,1.1.04,1.29.57.19.53-.08,1.14-.6,1.36l-8.49,3.56c-.24.85-.48,1.71-.73,2.58l7.55-3.16c.52-.22,1.1.04,1.29.57.19.53-.08,1.14-.6,1.36l-9.46,3.96c-.43.18-.91.04-1.17-.33l-6.12-8.7c-.32-.46-.21-1.11.24-1.46.07-.06.16-.1.24-.14.42-.17.9-.05,1.17.33l4.94,7.03c.25-.86.49-1.72.73-2.56l-5.51-7.84c-.32-.46-.21-1.11.24-1.46.07-.06.16-.1.24-.14.42-.17.9-.05,1.17.33l4.57,6.51c.22-.82.42-1.63.62-2.43l-4.39-6.25c-.32-.46-.21-1.11.24-1.46.07-.06.16-.1.24-.14.42-.17.9-.05,1.17.33l2.99,4.26-2.24-6.26c-.19-.53.08-1.14.6-1.36.52-.22,1.1.03,1.29.57l1.51,4.22c.35-1.68.65-3.27.89-4.74.06-.39.32-.69.65-.83.16-.07.33-.09.51-.07Z"/>
      <g>
        <path class="cls-2" d="M23.21,22.27l.38.55,2.57-1.76-.38-.55-.8.45s-.09.03-.17.02c-.08-.02-.13-.06-.16-.11-.01-.02-.02-.03-.02-.04l-.73-2.88,2.95-2.02,2.48,1.73s.02.01.03.03c.03.04.04.09.04.15,0,.06-.02.1-.05.13l-.69.57.38.55,3.03-2.08-.38-.55-.64.29c-.11.05-.18.07-.23.06-.04-.01-.11-.05-.21-.11l-8.35-5.85-.96.66,2.55,10.1-.63.66ZM23.71,17.19l-1.05-4.19,3.54,2.49-2.49,1.71Z"/>
        <path class="cls-2" d="M37.76,11.36l.37,1.68c.03.15-.02.28-.14.4-.01.01-.1.1-.27.27-.17.17-.42.33-.75.48-1.11.5-2.16.53-3.12.07s-1.75-1.34-2.34-2.65c-.41-.9-.6-1.73-.58-2.48.02-.75.22-1.39.58-1.94.37-.55.88-.97,1.51-1.25.33-.15.63-.23.91-.25.28-.03.49-.04.63-.04h.07s.11.02.19.06c.08.04.14.09.2.16l.78,1.19.85-.38-1-2.21c-.65.08-1.2.17-1.67.26-.46.09-.92.24-1.38.45-.98.44-1.75,1.04-2.3,1.79-.55.75-.86,1.59-.94,2.52-.08.92.1,1.87.54,2.85.29.65.68,1.22,1.17,1.72.48.49,1.04.88,1.67,1.16.63.28,1.32.42,2.05.42.73,0,1.49-.18,2.28-.54.48-.22.91-.46,1.29-.74.38-.28.68-.52.9-.73.23-.21.35-.33.37-.35l-1.03-2.28-.82.37Z"/>
        <path class="cls-2" d="M47.87,1.53c.11-.01.2.01.26.08.06.06.1.12.11.2l1.2,8.16c.01.07,0,.15-.05.23-.04.08-.11.13-.22.15l-.9.19.1.66,4.03-.59-.1-.66-.94.08c-.11,0-.19-.02-.26-.08-.06-.06-.1-.13-.11-.2l-1.2-8.16c-.01-.07,0-.15.05-.22.04-.08.12-.13.22-.15l.92-.2-.1-.67-4.03.59.1.67.92-.07Z"/>
        <path class="cls-2" d="M53.36,2.64l.18-1.45c.02-.18.11-.27.26-.27l2.23-.05.19,8.55c0,.08-.02.15-.08.22-.05.07-.13.11-.24.13l-.99.08v.66s4.2-.09,4.2-.09v-.66s-1-.04-1-.04c-.11,0-.19-.05-.25-.12-.05-.07-.08-.14-.08-.22l-.19-8.55,2.21-.05c.14,0,.22.08.26.26l.25,1.44.91-.02-.06-2.47-8.76.2.06,2.47.9-.02Z"/>
        <path class="cls-2" d="M91.23,10.15c.01.09,0,.17-.05.23l-4.62,6.83c-.04.06-.11.11-.2.13-.09.03-.18.01-.27-.04l-.7-.4-.37.55,6.64,4.49,1.45-2.14-.69-.47-1.09,1.11s-.09.07-.19.1c-.09.03-.16.02-.21-.01l-3.24-2.19,2.39-3.53,1.92,1.3c.05.04.09.1.1.19.01.09,0,.15-.03.2l-.47.98.65.44,1.93-2.86-.65-.44-.73.79s-.09.08-.17.09c-.08.02-.15,0-.21-.03l-1.92-1.3,2.16-3.19,2.78,1.88c.06.04.09.1.11.18.01.08,0,.15-.04.22l-.52,1.18.77.52,1.29-1.91-6.22-4.21-.37.55.63.5c.09.07.14.15.14.24Z"/>
        <path class="cls-2" d="M69.77,8.92l-.82-.11-.48,1.48s-.05.11-.12.17c-.06.06-.13.09-.19.08l-3.87-.53.58-4.22,2.3.31c.06,0,.12.05.17.12.05.07.07.14.07.19v1.08s.79.11.79.11l.47-3.42-.78-.11-.3,1.03c0,.05-.05.11-.11.16-.06.05-.13.07-.2.06l-2.3-.31.52-3.82,3.32.45c.07,0,.13.05.17.12.05.07.07.14.06.21l.06,1.29.92.13.31-2.28L62.88.12l-.09.66.78.17c.11.02.19.07.23.15.05.08.07.15.06.23l-1.11,8.17c-.01.07-.05.14-.12.2-.06.06-.15.09-.26.09l-.8-.05-.09.66,7.94,1.08.35-2.56Z"/>
        <path class="cls-2" d="M85.78,14.19c.44-.49.79-1.04,1.07-1.65.49-1.09.66-2.08.52-2.98-.14-.9-.52-1.68-1.15-2.37-.63-.69-1.44-1.25-2.42-1.7l-3.63-1.64-.27.61.72.39c.1.05.16.12.18.21.03.09.02.17,0,.24l-3.39,7.52c-.03.07-.09.12-.17.16-.08.04-.17.04-.28,0l-.77-.28-.27.61,3.92,1.77c.89.4,1.7.61,2.43.63.74.02,1.41-.11,1.99-.38.59-.27,1.11-.66,1.54-1.14ZM81.91,14.7c-.66.02-1.35-.12-2.08-.44l-1.15-.5,3.65-8.11,1.07.48c.74.34,1.33.76,1.75,1.27.43.51.66,1.14.69,1.87.04.73-.17,1.59-.61,2.57-.44.97-.94,1.68-1.5,2.13-.56.45-1.17.69-1.83.72Z"/>
        <path class="cls-2" d="M47.21,8.8l-.8.22.14,1.55s0,.12-.04.21c-.03.08-.08.13-.15.15l-3.77,1.05-1.14-4.1,2.23-.62c.06-.02.13,0,.21.04.08.05.12.1.14.15l.44.99.76-.21-.93-3.32-.76.21.13,1.07c.01.05,0,.12-.04.19-.04.07-.09.12-.16.14l-2.23.62-1.03-3.71,3.23-.9c.07-.02.14,0,.21.04.07.04.12.1.14.17l.57,1.16.89-.25-.62-2.22-7.24,2.02.18.64.79-.16c.11-.02.2,0,.27.05.08.05.13.11.15.19l2.21,7.94c.02.07.01.15-.03.24-.03.08-.1.14-.21.18l-.75.27.18.64,7.72-2.15-.69-2.49Z"/>
        <path class="cls-2" d="M50.55,116.42l.91.16c.11.02.19.06.23.14.05.07.07.14.06.22l-.85,8.2c0,.08-.04.14-.11.21-.06.06-.14.1-.25.1l-.92-.04-.07.66,4.05.42.07-.66-.93-.16c-.1-.02-.18-.07-.23-.15-.05-.08-.07-.15-.06-.23l.85-8.2c0-.07.04-.14.1-.2.06-.06.15-.09.25-.09l.94.04.07-.68-4.06-.42-.07.68Z"/>
        <path class="cls-2" d="M61.73,115.95l.02.66.88.03c.11,0,.19.04.25.11.06.07.09.14.09.22l.23,7.09-5.4-7.6v-.38s-3.08.1-3.08.1l.02.66.91.03c.11,0,.2.04.25.11.06.07.1.14.1.22l.27,8.24c0,.08-.03.15-.08.22-.05.07-.13.12-.25.13l-.88.09.02.66,3.34-.11-.02-.66-.88-.03c-.11,0-.2-.04-.25-.11-.05-.07-.08-.14-.08-.22l-.25-7.59,6.03,8.47,1.21-.04-.3-9.3c0-.08.02-.15.07-.22.05-.08.13-.12.25-.13l.86-.09-.02-.66-3.31.11Z"/>
        <path class="cls-2" d="M75.05,116.67c-.38-.59-.84-1.08-1.38-1.46-.54-.39-1.15-.65-1.82-.79-.67-.14-1.37-.12-2.12.05-.75.17-1.4.47-1.94.88-.54.41-.97.91-1.29,1.49s-.52,1.22-.6,1.91c-.08.69-.03,1.4.14,2.14.23,1.01.65,1.87,1.24,2.57.6.7,1.32,1.2,2.16,1.5.85.29,1.76.32,2.75.09.74-.17,1.37-.46,1.91-.87.54-.41.97-.91,1.29-1.5.32-.59.52-1.22.6-1.91.09-.69.05-1.4-.12-2.13-.17-.73-.44-1.39-.83-1.97ZM74.3,121.34c-.08.73-.3,1.35-.68,1.87-.38.52-.93.86-1.65,1.02-.71.16-1.35.1-1.91-.2-.56-.3-1.03-.77-1.42-1.39-.39-.63-.67-1.35-.86-2.15-.18-.8-.24-1.56-.16-2.29.08-.73.3-1.34.68-1.85.38-.52.94-.86,1.66-1.03.7-.16,1.33-.09,1.89.2.56.29,1.04.75,1.43,1.37.39.62.68,1.34.87,2.16.18.79.24,1.56.16,2.29Z"/>
        <path class="cls-2" d="M49.11,116.13c-.57-.61-1.56-1.08-2.98-1.41l-3.6-.83-.15.65.89.27c.11.03.18.09.22.17.04.08.06.16.04.23l-1.86,8.03c-.02.07-.06.14-.14.19-.07.06-.16.08-.27.06l-.81-.12-.15.65,3.96.92.15-.65-.98-.29c-.11-.03-.18-.09-.22-.17-.03-.08-.04-.16-.02-.23l.65-2.8s.17.06.4.13c.24.07.45.13.65.17h.04c.72.18,1.4.21,2.05.1.65-.11,1.2-.37,1.66-.77.46-.4.78-.98.95-1.71.26-1.11.1-1.98-.47-2.59ZM48.01,118.38c-.2.86-.58,1.44-1.13,1.75-.55.3-1.22.36-1.99.18h-.04c-.14-.04-.31-.1-.51-.17-.19-.07-.3-.12-.32-.12l1.1-4.74s.09.02.28.06c.19.04.35.07.49.1.96.22,1.6.59,1.91,1.09.32.5.39,1.12.22,1.85Z"/>
        <path class="cls-2" d="M15.12,98.25c-5.76-7.15-9.64-15.63-11.31-24.66-1.66-9.03-1.05-18.33,1.78-27.07,2.83-8.74,7.79-16.63,14.44-22.97l-2.01-2.1c-6.99,6.67-12.22,14.98-15.2,24.17C-.14,54.82-.79,64.61.96,74.12c1.75,9.51,5.84,18.43,11.9,25.96,6.06,7.53,13.9,13.43,22.81,17.17l1.13-2.68c-8.47-3.56-15.91-9.16-21.67-16.32Z"/>
        <path class="cls-2" d="M113.66,45.84c-2.83-8.84-7.72-16.87-14.28-23.43l-2.05,2.05c6.23,6.23,10.88,13.86,13.57,22.26,2.69,8.39,3.33,17.31,1.87,26-1.46,8.69-4.97,16.91-10.25,23.97-5.28,7.06-12.17,12.75-20.09,16.61l1.27,2.61c8.34-4.06,15.59-10.05,21.15-17.48,5.55-7.43,9.25-16.08,10.79-25.23,1.53-9.15.86-18.53-1.97-27.37Z"/>
      </g>
    </g>
  </g>
</svg>