<?xml version="1.0" encoding="UTF-8"?>
<svg id="Layer_2" data-name="Layer 2" xmlns="http://www.w3.org/2000/svg" viewBox="0 0 120.73 123.52">
  <defs>
    <style>
      .cls-1 {
        fill: #7ebd42;
      }

      .cls-2 {
        fill: #79868f;
      }
    </style>
  </defs>
  <g id="Layer_1-2" data-name="Layer 1">
    <g>
      <g>
        <path class="cls-1" d="M86.05,37.04c-2.38-2.44-5.61-3.78-9.07-3.78s-6.6.95-8.88,2.65v-9.53c0-.47-.38-.85-.85-.85s-.85.38-.85.85v10.1c0,.44-.03.87-.08,1.29,0,.04-.01.09-.02.13-.69,4.93-4.94,8.74-10.06,8.74h-13.45c-.47,0-.85.38-.85.85s.38.85.85.85h13.45c5.92,0,10.84-4.35,11.72-10.02,1.97-2.14,5.24-3.36,9.02-3.36,3,0,5.79,1.16,7.86,3.27,2.11,2.11,3.27,4.92,3.27,7.9v3.48c0,7.83-6.37,14.19-14.19,14.19h-27.8c-3.39,0-6.16,2.76-6.16,6.16v4.71c0,.47.38.85.85.85s.85-.38.85-.85v-4.71c0-2.45,2-4.45,4.45-4.45h27.54s.07,0,.11,0h.38c4.6,0,8.34,3.74,8.34,8.39.18,2.87-.58,5.31-2.22,7.05-1.53,1.63-3.71,2.53-6.13,2.53h-5.43c-2.5,0-4.54,2.04-4.54,4.54v12.4c0,.47.38.85.85.85s.85-.38.85-.85v-12.4c0-1.56,1.27-2.83,2.83-2.83h5.43c2.9,0,5.51-1.09,7.37-3.07,1.96-2.09,2.89-4.97,2.68-8.27,0-3.96-2.31-7.4-5.65-9.03,6.52-1.98,11.28-8.05,11.28-15.21v-3.48c0-3.44-1.34-6.68-3.76-9.1Z"/>
        <path class="cls-1" d="M75.76,75.76c.47,0,.85-.38.85-.85s-.38-.85-.85-.85h-22.26c-2.86,0-5.18,2.32-5.18,5.18s-2.31,5.15-5.15,5.15c-5.6,0-10.16-4.56-10.16-10.16v-5.77c0-6.32,5.14-11.46,11.45-11.46h19.61c8.34,0,15.13-6.79,15.13-15.13v-1.05c0-.47-.38-.85-.85-.85s-.85.38-.85.85v1.05c0,7.4-6.02,13.42-13.42,13.42h-22.05c-4.22,0-7.65-3.43-7.65-7.65s3.43-7.65,7.65-7.65h12.54c2.44,0,4.42-1.98,4.42-4.42v-6.91c0-.47-.38-.85-.85-.85s-.85.38-.85.85v6.91c0,1.5-1.22,2.72-2.72,2.72h-12.54c-5.16,0-9.35,4.19-9.35,9.35,0,4.09,2.64,7.58,6.31,8.84-4.53,2.08-7.68,6.66-7.68,11.96v5.77c0,6.54,5.32,11.87,11.87,11.87,3.78,0,6.85-3.07,6.85-6.85,0-1.92,1.56-3.48,3.48-3.48h4.62c-2.39,1.69-3.95,4.47-3.95,7.62v13.29c0,.47.38.85.85.85s.85-.38.85-.85v-13.29c0-4.2,3.42-7.62,7.62-7.62h12.27Z"/>
      </g>
      <g>
        <path class="cls-2" d="M5.49,85.04c-.55.21-1.05.27-1.49.18-.44-.09-.83-.27-1.16-.55s-.61-.61-.84-.98-.41-.74-.55-1.1l-1.45-3.84.59-.22.33.7c.05.09.11.15.19.18.08.02.15.02.22,0l7.33-2.76c.07-.02.12-.07.17-.14.05-.07.05-.16.02-.26l-.22-.74.59-.22,1.39,3.68c.41,1.1.51,1.96.3,2.59-.21.63-.66,1.08-1.35,1.34-.46.17-.87.2-1.24.09-.37-.11-.69-.29-.96-.54-.27-.25-.49-.49-.67-.74.15.41.24.84.25,1.28.01.44-.09.85-.32,1.22-.22.37-.6.66-1.14.86ZM4.81,83.58c.63-.23,1.01-.59,1.16-1.08s.09-1.09-.19-1.82c-.06-.15-.12-.31-.21-.49-.08-.18-.16-.34-.22-.47-.07-.14-.1-.22-.12-.24l-3.63,1.37c.07.22.12.39.17.53.05.14.08.25.12.34.36.96.78,1.57,1.24,1.84.47.26,1.02.27,1.67.03ZM8.9,81.41c.54-.2.88-.53,1.04-.99s.1-1.04-.16-1.75c-.05-.14-.12-.29-.19-.45-.08-.16-.12-.27-.14-.32l-3.48,1.31c.09.26.15.42.17.5.34.89.73,1.46,1.19,1.69s.98.24,1.57.02Z"/>
        <path class="cls-2" d="M8.3,96.05l-1.75-3.02.55-.32.49.69s.06.05.12.06.11,0,.15-.03c.02,0,.03-.02.03-.02l1.82-2.22-1.7-2.94-2.78.49s-.02,0-.04.02c-.05.03-.09.08-.11.15-.02.07-.02.13,0,.16l.37.79-.55.32-1.48-2.56.55-.32.58.65,9.74-1.7.55.96-6.13,7.49c-.07.08-.11.15-.12.19-.02.04,0,.12.04.22l.23.63-.55.32ZM10.17,90.61l2.61-3.18-4.05.7,1.44,2.48Z"/>
        <path class="cls-2" d="M13.66,102.69l-4.49-5.55.49-.4.58.63c.07.08.15.11.24.11.08,0,.15-.03.21-.07l6.09-4.92c.06-.05.09-.11.12-.19.02-.08,0-.17-.06-.25l-.49-.7.49-.4,2.36,2.92-.49.4-.54-.57c-.07-.08-.15-.12-.24-.12-.09,0-.16.02-.22.07l-6.32,5.1,1.94,2.4c.04.05.11.09.19.11.09.02.15.02.21-.02l1.52-.92.54.66-2.12,1.72Z"/>
        <path class="cls-2" d="M21.67,110.23l-2.58-2.35.42-.47.67.52s.07.03.13.02.1-.04.13-.07c.01-.01.02-.02.02-.03l1.06-2.67-2.51-2.28-2.5,1.3s-.02.01-.03.03c-.04.04-.06.1-.06.17s.02.13.05.16l.59.64-.42.47-2.19-1.99.42-.47.75.44,8.77-4.57.82.74-3.58,9c-.04.1-.06.17-.06.22,0,.04.03.11.1.2l.41.53-.42.47ZM21.81,104.48l1.52-3.82-3.65,1.89,2.12,1.93Z"/>
        <path class="cls-2" d="M36.04,108.52l-.72-.39c-.09-.05-.18-.06-.26-.03s-.14.08-.18.14l-4.7,7.49-.97-.61-.26-9.87-3.83,6.11c-.04.06-.05.13-.05.22s.05.16.14.22l.68.49-.34.53-2.69-1.69.34-.53.74.4c.09.05.18.06.26.03.08-.03.14-.07.18-.13l4.16-6.63c.04-.06.05-.14.04-.22,0-.09-.06-.16-.14-.22l-.7-.51.34-.53,2.47,1.55-.19.31.22,8.85,3.58-5.71c.04-.06.05-.13.05-.22s-.05-.16-.13-.22l-.68-.49.34-.54,2.66,1.67-.34.53Z"/>
        <path class="cls-2" d="M41.52,117.74l-.9,2.2s-.19,0-.48-.02c-.3-.02-.66-.07-1.1-.15s-.89-.22-1.35-.4c-.76-.31-1.38-.72-1.86-1.22-.48-.5-.83-1.06-1.05-1.68-.22-.62-.32-1.26-.29-1.91.02-.66.16-1.3.42-1.92.38-.94.92-1.69,1.61-2.24.69-.55,1.47-.89,2.35-1,.88-.11,1.79.02,2.74.41.44.18.85.4,1.21.66.37.26.79.58,1.27.97l-.87,2.13-.82-.33.3-1.32c.01-.08,0-.16-.02-.24s-.05-.13-.09-.17l-.04-.05c-.09-.1-.24-.24-.44-.41-.2-.18-.45-.33-.77-.45-.62-.25-1.23-.32-1.85-.22-.62.1-1.19.39-1.72.87-.53.48-.97,1.15-1.33,2.02-.52,1.27-.61,2.38-.29,3.35.32.97,1.02,1.67,2.09,2.1.32.13.59.2.82.2.23,0,.35,0,.37,0,.16,0,.29-.05.37-.17l.91-1.35.79.32Z"/>
        <path class="cls-2" d="M49.8,122.57l-7.41-1.74.14-.61.75.12c.1.02.19,0,.26-.06s.11-.12.13-.18l1.79-7.62c.02-.07,0-.14-.03-.22-.04-.08-.11-.13-.21-.16l-.73-.23.14-.62,6.95,1.63-.5,2.13-.86-.2.06-1.22c.01-.07,0-.14-.04-.21-.04-.07-.09-.11-.15-.12l-3.1-.73-.83,3.56,2.14.5c.07.02.13,0,.2-.04.07-.04.11-.09.12-.14l.38-.95.73.17-.75,3.19-.73-.17.09-1.02c.01-.05,0-.11-.04-.19-.04-.07-.09-.12-.15-.13l-2.14-.5-.92,3.94,3.62.85c.06.01.13,0,.2-.06.07-.05.11-.11.13-.15l.59-1.36.77.18-.56,2.39Z"/>
        <path class="cls-2" d="M67.86,118.15c.03.64-.03,1.26-.19,1.86-.16.6-.43,1.14-.81,1.63-.38.49-.89.88-1.52,1.18s-1.41.47-2.33.51l-4.08.19-.03-.63.77-.09c.1-.02.18-.06.23-.13s.08-.14.07-.21l-.37-7.82c0-.07-.03-.14-.09-.21-.06-.07-.14-.1-.25-.1l-.78-.02-.03-.63,3.78-.18c1.03-.05,1.95.08,2.78.39.83.31,1.49.81,2,1.51s.78,1.61.84,2.75ZM66.2,118.25c-.05-1.03-.24-1.84-.59-2.44s-.8-1.03-1.39-1.28c-.58-.25-1.26-.36-2.04-.32l-1.12.05.39,8.44,1.19-.07c.75-.04,1.4-.22,1.95-.52s.96-.77,1.24-1.4c.28-.62.4-1.44.35-2.45Z"/>
        <path class="cls-2" d="M73.75,122.02l-3.81.69-.11-.62.85-.21c.1-.03.17-.08.21-.15s.05-.15.04-.22l-1.39-7.7c-.01-.07-.05-.13-.11-.19-.06-.05-.14-.08-.25-.06l-.87.1-.11-.63,3.81-.69.11.63-.87.22c-.1.02-.17.07-.21.14-.04.07-.05.15-.04.22l1.39,7.7c.01.07.05.14.11.19.06.06.15.08.25.07l.89-.1.11.62Z"/>
        <path class="cls-2" d="M83.11,115l-.69.29c-.1.04-.16.09-.19.17-.03.07-.03.15,0,.22l1.03,3.23c-.5.37-.96.67-1.37.9-.42.24-.88.43-1.38.6-.78.25-1.51.34-2.2.26-.69-.08-1.32-.28-1.88-.61-.56-.33-1.05-.75-1.46-1.28-.41-.52-.71-1.11-.92-1.75-.31-.98-.38-1.9-.21-2.77.17-.86.57-1.62,1.2-2.27.63-.65,1.46-1.14,2.5-1.48.48-.15.93-.25,1.37-.3.43-.04.86-.07,1.28-.09h.25s.72,2.25.72,2.25l-.84.27-.63-1.19c-.04-.08-.1-.14-.17-.17-.07-.04-.15-.06-.22-.07-.02,0-.05,0-.09,0-.16-.02-.37-.03-.64-.03-.26,0-.54.05-.84.14-.67.21-1.21.56-1.63,1.04-.41.48-.67,1.06-.77,1.76-.1.69,0,1.47.27,2.34.43,1.34,1.09,2.28,1.97,2.8.88.53,1.87.62,2.97.27.31-.1.57-.22.79-.37s.34-.22.37-.24l-.89-2.79c-.02-.07-.07-.13-.13-.18s-.15-.05-.25-.02l-.96.23-.19-.61,3.65-1.17.2.61Z"/>
        <path class="cls-2" d="M92.8,114.67l-6.77,3.48-.29-.56.65-.4c.09-.06.14-.13.16-.21.02-.08.01-.16-.02-.22l-3.58-6.96c-.03-.06-.09-.12-.17-.15s-.17-.03-.26.01l-.7.3-.29-.56,6.34-3.26,1,1.95-.78.4-.75-.97c-.04-.06-.09-.11-.17-.13-.07-.03-.14-.02-.2,0l-2.83,1.46,1.67,3.25,1.96-1.01c.06-.03.1-.08.12-.16.02-.08.02-.14,0-.18l-.33-.97.66-.34,1.5,2.91-.66.34-.6-.84s-.08-.08-.16-.11c-.08-.03-.15-.03-.2,0l-1.96,1.01,1.85,3.6,3.3-1.7c.05-.03.09-.09.11-.17s.02-.15,0-.2l-.43-1.42.7-.36,1.12,2.18Z"/>
        <path class="cls-2" d="M98.12,107.63c.29.4.45.87.5,1.39.05.53-.07,1.08-.37,1.65-.3.57-.82,1.12-1.57,1.66-.43.3-.83.53-1.2.69-.37.15-.79.28-1.24.38l-1.51-2.12.75-.53,1.12,1.24s.1.08.18.1c.08.02.15.03.2.02.02,0,.17-.04.44-.1.27-.06.59-.22.96-.48.51-.36.84-.79,1-1.27.15-.49.07-.95-.24-1.39-.17-.24-.39-.41-.65-.49-.26-.08-.55-.12-.87-.11-.31.01-.63.05-.96.1-.33.06-.64.11-.93.16-.44.08-.86.12-1.27.15-.41.02-.79-.04-1.14-.18s-.68-.41-.97-.82c-.34-.48-.51-.97-.52-1.5,0-.52.13-1.03.41-1.52.28-.49.68-.92,1.21-1.29.43-.31.84-.53,1.22-.68s.74-.27,1.05-.37l.13-.04,1.32,1.87-.68.49-.99-1.02s-.1-.07-.16-.07c-.06,0-.12,0-.18-.01-.05,0-.18.02-.4.05-.22.04-.49.18-.83.42-.48.34-.76.74-.85,1.2-.09.46.01.9.3,1.3.26.37.62.57,1.08.61.46.04,1.03-.03,1.71-.2.92-.24,1.7-.33,2.33-.27.64.06,1.17.39,1.59.99Z"/>
        <path class="cls-2" d="M101.91,97.71l-.63.6-1.1-.86c-.14-.1-.26-.1-.35-.01l-1.52,1.45,5.59,5.89c.05.05.12.09.2.1s.17-.01.25-.08l.72-.61.44.46-2.89,2.74-.43-.46.64-.69c.07-.08.1-.16.09-.24-.01-.08-.04-.15-.09-.2l-5.59-5.89-1.53,1.46c-.1.1-.11.22,0,.35l.8,1.14-.62.59-1.61-1.7,6.04-5.73,1.61,1.7Z"/>
        <path class="cls-2" d="M110.44,99.03l-2.47,2.98-.49-.4.51-.71c.06-.09.08-.17.06-.25-.02-.08-.06-.15-.11-.19l-6.02-5c-.05-.05-.12-.07-.2-.07-.08,0-.16.03-.23.11l-.6.64-.5-.41,2.47-2.98.5.41-.53.73c-.06.08-.08.16-.07.24s.05.15.11.19l6.02,5c.06.05.13.07.21.07s.16-.03.23-.1l.62-.65.49.4Z"/>
        <path class="cls-2" d="M108.71,85.05l-.32.8,6.09,7.76-.6.94-9.66-2.15-.59.65-.53-.34,1.88-2.97.53.34-.4.77s-.01.08.01.13.06.08.1.1c.02.01.04.02.05.02l7.51,1.71-4.77-5.97s-.02-.02-.04-.03c-.04-.03-.1-.04-.17-.03-.07,0-.12.03-.15.08l-.49.65-.53-.34,1.56-2.46.53.34Z"/>
        <path class="cls-2" d="M116.37,77.68c.66.27,1.23.62,1.72,1.07.49.44.87.95,1.16,1.52.28.57.43,1.18.46,1.82.03.65-.1,1.3-.37,1.96-.36.89-.89,1.58-1.58,2.08s-1.47.78-2.34.86c-.87.08-1.77-.07-2.68-.44-.66-.27-1.24-.63-1.73-1.07s-.88-.94-1.16-1.51c-.28-.57-.43-1.17-.46-1.82-.02-.65.1-1.31.38-1.98.27-.67.65-1.23,1.11-1.67.47-.44,1-.77,1.6-.98.6-.21,1.23-.3,1.89-.28s1.33.17,1.98.44ZM115.75,79.26c-.74-.3-1.46-.47-2.15-.5-.69-.04-1.31.08-1.84.36s-.93.73-1.19,1.36c-.27.65-.3,1.27-.11,1.85.19.58.55,1.09,1.07,1.55.52.45,1.14.83,1.87,1.12.73.29,1.44.46,2.14.5.7.04,1.32-.07,1.86-.35s.94-.73,1.2-1.37c.27-.65.3-1.27.1-1.85-.2-.58-.56-1.09-1.08-1.55-.52-.46-1.14-.83-1.86-1.12Z"/>
      </g>
      <path class="cls-2" d="M60.56,0C27.39,0,.39,27,.39,60.17c0,4.89.58,9.64,1.7,14.21l3.63-1.47c-.97-4.1-1.47-8.35-1.47-12.74C4.26,29.13,29.52,3.87,60.56,3.87s56.3,25.26,56.3,56.3c0,4.27-.48,8.43-1.39,12.41l3.61,1.55c1.08-4.48,1.64-9.16,1.64-13.95C120.73,27,93.73,0,60.56,0Z"/>
    </g>
  </g>
</svg>