<?xml version="1.0" encoding="UTF-8"?>
<svg id="Layer_2" data-name="Layer 2" xmlns="http://www.w3.org/2000/svg" viewBox="0 0 125.72 125.72">
  <defs>
    <style>
      .cls-1 {
        fill: #7b868c;
      }

      .cls-2 {
        fill: #80bc00;
      }
    </style>
  </defs>
  <g id="Layer_1-2" data-name="Layer 1">
    <g>
      <path class="cls-1" d="M62.86,125.72C28.2,125.72,0,97.52,0,62.86S28.2,0,62.86,0s62.86,29.37,62.86,62.86-28.2,62.86-62.86,62.86ZM62.86,1.53C29.04,1.53,1.53,29.04,1.53,62.86s27.51,61.33,61.33,61.33,61.33-27.51,61.33-61.33S95.53,1.53,62.86,1.53Z"/>
      <path class="cls-1" d="M62.86,103.8c-22.58,0-40.95-18.37-40.95-40.95S40.28,21.91,62.86,21.91s40.94,18.37,40.94,40.94-18.37,40.95-40.94,40.95ZM62.86,23.13c-21.9,0-39.73,17.82-39.73,39.72s17.82,39.73,39.73,39.73,39.72-17.82,39.72-39.73-17.82-39.72-39.72-39.72Z"/>
      <path class="cls-1" d="M18.19,56.68l-.73-.18.06-.64-6.88-4.74.23-.97,8.27-1.07.23-.6.73.18-.57,2.41-.73-.17.04-.66-1.68.18-.8,3.36,1.41.94.26-.61.73.18-.57,2.4ZM15.5,53.19l.63-2.66-3.7.42-.21.02v.04s.17.12.17.12l3.11,2.07Z"/>
      <path class="cls-1" d="M18.28,56.82l-.95-.22.06-.68-6.88-4.75.27-1.14h.08s8.19-1.07,8.19-1.07l.25-.63.94.23-.63,2.64-.94-.22.04-.62-1.45.16-.76,3.2,1.22.81.24-.57.94.22-.63,2.64ZM17.59,56.41l.51.12.51-2.17-.51-.12-.28.65-1.6-1.06.02-.08.82-3.45,1.91-.21-.05.7.51.12.52-2.17-.5-.12-.22.56h-.07s-8.18,1.07-8.18,1.07l-.19.81,6.86,4.74-.05.61ZM15.58,53.39l-3.5-2.32.04-.21.3-.04,3.88-.44-.71,3ZM12.51,51.06l2.91,1.93.55-2.32-3.46.39Z"/>
      <path class="cls-1" d="M21.16,45.97l-.67-.34.29-.94-6.07-3.05-.58.79-.67-.34.43-.86,1.23-2.46c.4-.8.89-1.35,1.47-1.63.57-.28,1.21-.25,1.9.1.34.17.6.43.76.79.16.35.22.74.17,1.16.22-.28.48-.48.77-.62.3-.13.61-.19.94-.18.33.01.65.1.97.26.71.35,1.13.85,1.27,1.5.14.65.02,1.36-.38,2.15l-1.83,3.65ZM17.69,41.84l.85-1.69c.19-.37.23-.73.13-1.07-.1-.34-.34-.61-.71-.79-.42-.21-.79-.23-1.13-.08-.34.16-.63.48-.88.98l-.71,1.42,2.46,1.23ZM21.3,43.65l.88-1.75c.24-.48.31-.9.2-1.28-.1-.38-.37-.68-.8-.9-.31-.15-.59-.23-.85-.24-.26,0-.5.05-.72.19-.22.14-.4.36-.56.67l-.96,1.91,2.8,1.41Z"/>
      <path class="cls-1" d="M21.22,46.13l-.87-.44.28-.94-5.89-2.95-.58.79-.88-.44,1.72-3.44c.41-.83.92-1.39,1.52-1.68.61-.29,1.28-.26,2.02.11.36.18.63.46.81.84.12.27.19.57.2.88.18-.17.37-.3.59-.39.27-.13.57-.19.88-.19.04,0,.07,0,.1,0,.35.01.69.1,1.02.27.73.37,1.18.9,1.33,1.58.15.67.02,1.42-.39,2.22l-1.89,3.77ZM20.64,45.57l.46.23,1.78-3.54c.38-.75.5-1.45.36-2.06-.14-.62-.53-1.08-1.2-1.41-.3-.15-.61-.24-.92-.24-.3-.02-.61.04-.88.17-.28.12-.53.31-.73.57l-.26.34.05-.43c.04-.4-.01-.78-.16-1.1-.15-.32-.39-.57-.7-.72-.67-.34-1.26-.37-1.8-.1-.55.27-1.03.79-1.41,1.57l-1.62,3.22.47.24.58-.79.09.05,6.16,3.09-.28.94ZM21.36,43.82l-3.02-1.51,1.01-2.01c.16-.32.36-.57.6-.72.23-.15.49-.22.79-.22.28.01.59.1.9.26.47.23.76.56.86.97.12.41.04.86-.21,1.37l-.93,1.86ZM18.67,42.19l2.58,1.3.82-1.64c.23-.45.29-.84.19-1.19-.09-.35-.33-.62-.73-.82-.29-.14-.56-.22-.8-.23-.25,0-.46.05-.65.18-.2.13-.37.34-.51.62l-.9,1.8ZM17.74,42l-2.68-1.34.06-.11.72-1.42c.26-.53.57-.86.93-1.03.37-.17.79-.15,1.23.08.4.2.67.49.78.86.11.37.06.76-.14,1.16l-.9,1.8ZM15.39,40.55l2.24,1.12.79-1.58c.18-.35.22-.68.12-.98-.09-.31-.31-.55-.65-.72-.39-.2-.72-.22-1.02-.07-.32.15-.59.45-.82.92l-.66,1.31Z"/>
      <path class="cls-1" d="M24.34,39.56l-.6-.44.31-.57-4.45-7.07.6-.8,8.02,2.27.45-.45.6.44-1.48,1.99-.6-.44.3-.59-1.61-.49-2.06,2.77.92,1.42.48-.46.6.45-1.47,1.98ZM23.24,35.3l1.63-2.2-3.57-1.07-.2-.06-.02.03.11.17,2.05,3.13Z"/>
      <path class="cls-1" d="M24.36,39.73l-.79-.58.33-.59-4.47-7.08.7-.94.08.02,7.95,2.25.47-.48.78.58-1.62,2.18-.78-.57.28-.55-1.39-.42-1.96,2.63.79,1.22.45-.43.78.58-.07.1-1.54,2.08ZM23.89,39.08l.42.31,1.33-1.79-.42-.31-.51.49-1.05-1.62.05-.07,2.11-2.84.08.03,1.75.53-.32.63.41.31,1.33-1.79-.42-.31-.43.43-.07-.02-7.94-2.25-.49.67,4.45,7.06-.3.53ZM23.24,35.52l-.09-.15-2.22-3.39.15-.15.26.08,3.74,1.12-1.83,2.49ZM21.34,32.17l1.91,2.92,1.42-1.92-3.33-1Z"/>
      <path class="cls-1" d="M31.86,30.68c-.38.36-.8.66-1.25.88s-.95.38-1.5.45l-1.28-1.33.65-.63,1.08.84c.3-.07.58-.17.86-.31.28-.15.54-.34.79-.58.28-.27.48-.55.6-.83.12-.28.15-.54.11-.8-.04-.26-.16-.49-.36-.69-.18-.19-.39-.31-.62-.37-.23-.06-.5-.04-.82.05s-.69.27-1.13.53c-.52.31-1.01.53-1.46.65-.46.12-.87.13-1.26.04-.38-.09-.72-.29-1.01-.6-.31-.33-.51-.7-.58-1.12-.08-.42-.03-.85.13-1.3.16-.44.45-.86.86-1.26.44-.42.88-.72,1.34-.91s.89-.29,1.29-.31l1.19,1.24-.65.63-1-.75c-.23.02-.47.09-.72.21-.26.11-.53.31-.81.58-.24.23-.41.48-.51.73-.1.26-.13.51-.09.77.04.25.16.48.36.68.17.18.37.29.59.34.22.04.48.02.79-.09.31-.1.68-.27,1.11-.52.81-.47,1.54-.7,2.18-.71.64,0,1.19.22,1.64.69.32.33.52.71.58,1.14.07.43,0,.88-.18,1.33-.19.46-.5.9-.94,1.32Z"/>
      <path class="cls-1" d="M29.06,32.16l-1.4-1.46.82-.78.09.06,1.03.81c.27-.06.53-.16.78-.29.27-.14.52-.33.76-.56.27-.26.46-.52.57-.78.11-.27.14-.51.1-.73-.04-.24-.15-.44-.33-.63-.17-.18-.35-.29-.57-.34-.21-.05-.46-.04-.75.05-.31.09-.68.26-1.1.52-.53.31-1.03.53-1.5.65-.46.12-.91.14-1.32.04-.4-.09-.76-.31-1.07-.63-.34-.35-.54-.74-.61-1.19-.08-.44-.04-.9.14-1.36.17-.45.47-.89.89-1.3.45-.43.91-.75,1.38-.94.49-.2.93-.31,1.33-.32h.05s.04.04.04.04l1.28,1.33-.82.78-1.04-.78c-.21.02-.42.09-.64.19-.24.1-.5.29-.77.55-.22.22-.39.45-.48.69-.09.23-.12.47-.08.7.04.22.14.42.32.62.16.16.34.26.53.3.2.04.44.02.73-.08.31-.1.67-.27,1.09-.52.85-.48,1.58-.72,2.24-.72h.05c.65,0,1.21.24,1.67.72.34.35.54.75.62,1.21.07.45,0,.92-.19,1.4h0c-.19.47-.52.93-.97,1.36-.37.36-.8.66-1.28.9-.46.23-.97.39-1.54.47h-.06ZM28.01,30.7l1.14,1.19c.51-.08.98-.22,1.4-.43.46-.23.87-.52,1.22-.86.43-.41.73-.84.91-1.28h0c.18-.44.24-.86.18-1.27-.07-.41-.25-.77-.56-1.08-.41-.43-.92-.65-1.5-.65h-.04c-.61,0-1.33.23-2.12.69-.44.25-.82.43-1.14.53-.33.11-.61.14-.85.09-.24-.04-.46-.17-.66-.37-.21-.23-.34-.48-.39-.74-.05-.28-.01-.56.09-.83.11-.27.29-.53.54-.78.3-.29.58-.49.84-.6.26-.12.51-.19.76-.21h.05s.95.71.95.71l.49-.47-1.07-1.11c-.36.02-.75.12-1.19.3s-.88.48-1.31.89c-.4.39-.68.79-.84,1.21-.16.42-.2.84-.13,1.23.07.4.25.74.55,1.06.28.29.6.48.95.56.36.09.77.07,1.2-.04.45-.12.93-.32,1.43-.62.44-.27.83-.46,1.16-.55.33-.1.63-.12.88-.05.26.07.48.2.68.41.22.22.34.47.39.75.05.27.01.55-.11.87-.13.29-.34.58-.63.87-.26.25-.53.45-.82.6-.29.15-.59.26-.89.32h-.06s-1.04-.8-1.04-.8l-.49.47Z"/>
      <path class="cls-1" d="M34.29,28.19l-.43-.61.69-.69-3.93-5.55-.88.42-.43-.62,5.21-3.69,1.2,1.69-.76.54-.79-.88-2.6,1.84,1.62,2.29,2.6-1.84.53.75-2.6,1.84,1.8,2.55,2.76-1.95-.58-1.04.76-.54,1.19,1.69-5.36,3.79Z"/>
      <path class="cls-1" d="M34.26,28.36l-.57-.79.7-.69-3.81-5.38-.88.42-.57-.8.1-.07,5.31-3.76,1.34,1.89-.96.67-.79-.88-2.41,1.71,1.48,2.09,2.6-1.84.67.95-2.6,1.84,1.66,2.35,2.57-1.82-.58-1.05.95-.67,1.34,1.89-.1.07-5.46,3.87ZM34.02,27.6l.3.43,5.17-3.65-1.05-1.49-.57.4.58,1.05-2.95,2.09-1.95-2.75,2.6-1.84-.39-.55-2.6,1.84-1.77-2.49,2.79-1.98.79.88.58-.4-1.06-1.5-5.01,3.55.31.44.88-.42.06.08,3.99,5.63-.7.69Z"/>
      <path class="cls-1" d="M42.49,22.78l-.29-.69.83-.53-2.61-6.27-.96.22-.29-.7.89-.37,2.22-.93c.7-.29,1.39-.38,2.05-.26.66.12,1.26.41,1.8.87.53.47.96,1.08,1.27,1.83l.07.17c.31.74.44,1.46.4,2.16-.03.71-.24,1.34-.62,1.89-.37.56-.91.98-1.62,1.27l-3.17,1.32ZM44.11,21.12l1.15-.48c.5-.21.88-.53,1.12-.95.25-.43.37-.91.37-1.45,0-.54-.11-1.09-.34-1.65l-.08-.18c-.24-.58-.56-1.06-.94-1.44-.39-.38-.81-.62-1.29-.74-.47-.12-.96-.07-1.46.14l-1.15.48,2.61,6.27Z"/>
      <path class="cls-1" d="M42.43,22.94l-.37-.89.83-.52-2.53-6.09-.96.22-.37-.9,3.23-1.34c.71-.3,1.43-.39,2.12-.27.68.13,1.3.43,1.86.9.55.48.98,1.1,1.31,1.88l.07.17c.31.75.45,1.5.41,2.22-.04.73-.25,1.39-.64,1.95-.39.57-.95,1.02-1.67,1.32l-3.29,1.36ZM42.36,22.14l.2.48,3.06-1.27c.68-.28,1.2-.7,1.56-1.23.36-.53.56-1.14.59-1.83.04-.68-.1-1.39-.4-2.11l-.07-.17c-.31-.75-.72-1.33-1.24-1.79-.52-.44-1.1-.73-1.74-.85-.65-.11-1.31-.03-1.98.26l-3,1.25.2.48.96-.22.04.09,2.65,6.37-.83.52ZM44.04,21.28l-2.7-6.5,1.26-.52c.52-.22,1.04-.26,1.54-.14.49.12.94.38,1.34.76.4.39.72.88.97,1.47l.08.18c.24.57.36,1.15.35,1.7,0,.56-.13,1.07-.4,1.51-.25.44-.65.78-1.18,1.01l-1.26.52ZM41.66,14.91l2.51,6.05,1.04-.43c.48-.2.84-.51,1.06-.9.24-.4.36-.87.36-1.39,0-.52-.11-1.06-.34-1.61l-.08-.18c-.23-.56-.54-1.03-.91-1.39-.37-.35-.78-.59-1.23-.7-.44-.1-.91-.07-1.39.13l-1.03.43Z"/>
      <path class="cls-1" d="M49.25,20l-.18-.73.9-.39-1.58-6.61-.97.06-.18-.73,6.21-1.49.48,2.02-.91.22-.4-1.11-3.1.74.66,2.73,3.09-.74.21.89-3.09.74.73,3.03,3.28-.79-.15-1.19.9-.22.48,2.01-6.39,1.53Z"/>
      <path class="cls-1" d="M49.16,20.14l-.23-.94.9-.39-1.54-6.41-.98.06-.22-.95,6.44-1.55.54,2.25-1.14.27-.4-1.11-2.87.69.6,2.5,3.1-.74.27,1.13-3.09.74.67,2.8,3.06-.73-.15-1.19,1.12-.27.54,2.25-6.63,1.59ZM49.22,19.35l.12.5,6.15-1.48-.43-1.77-.67.16.15,1.19-3.51.84-.78-3.27,3.09-.74-.15-.66-3.1.74-.71-2.97,3.32-.8.4,1.11.69-.16-.43-1.78-5.97,1.44.12.51.98-.06,1.63,6.81-.9.39Z"/>
      <path class="cls-1" d="M58.86,18.03v-.75s.95-.18.95-.18l-.13-6.79-.97-.15v-.75s6.37-.12,6.37-.12l.04,2.07-.94.02-.15-1.17-3.19.06.05,2.81,3.18-.06.02.92-3.18.06.06,3.12,3.38-.07.11-1.19.93-.02.04,2.07-6.57.13Z"/>
      <path class="cls-1" d="M58.74,18.16v-.97s.94-.18.94-.18l-.13-6.59-.97-.15v-.98s6.61-.13,6.61-.13l.05,2.32-1.17.02-.15-1.17-2.96.06.05,2.56,3.18-.06.02,1.16-3.18.07.05,2.87,3.15-.06.1-1.19,1.16-.03.05,2.32-6.82.13ZM58.98,17.39v.52s6.33-.13,6.33-.13l-.04-1.82-.7.02-.1,1.19-3.61.07-.06-3.36,3.18-.07v-.67s-3.19.06-3.19.06l-.06-3.06,3.42-.07.15,1.17h.7s-.04-1.84-.04-1.84l-6.14.12v.53s.98.15.98.15v.1s.13,6.9.13,6.9l-.96.18Z"/>
      <path class="cls-1" d="M67.18,17.96l.13-.74h.76s3.25-2.97,3.25-2.97l-1.84-3.75-.72-.26.13-.74,2.75.49-.13.74-.81-.07,1.41,2.95,2.25-2.3-.8-.22.13-.74,2.77.5-.13.74h-.8s-2.9,2.89-2.9,2.89l1.94,3.91.73.26-.13.74-2.79-.5.13-.73.84.07-1.52-3.12-2.5,2.4.76.22-.13.73-2.78-.5Z"/>
      <path class="cls-1" d="M75.27,19.53l-3.03-.54.17-.97.74.06-1.35-2.77-2.23,2.14.66.19-.18.96-3.02-.54.18-.96h.81s3.15-2.88,3.15-2.88l-1.78-3.63-.77-.28.17-.96,2.99.53-.17.97-.71-.06,1.24,2.6,1.98-2.02-.71-.2.18-.97,3.01.54-.17.96h-.85s-2.8,2.79-2.8,2.79l1.88,3.78.79.28-.18.96ZM72.52,18.79l2.55.46.09-.52-.68-.25-.02-.04-1.98-3.98.06-.06,2.94-2.94h.75s.09-.51.09-.51l-2.53-.45-.09.51.9.25-2.52,2.57-1.58-3.3.92.08.09-.52-2.51-.45-.09.52.66.24.02.04,1.89,3.83-.07.06-3.29,3.01h-.7s-.09.51-.09.51l2.54.45.09-.5-.86-.24,2.77-2.66.08.15,1.61,3.31-.94-.08-.09.5Z"/>
      <path class="cls-1" d="M77.47,20.24l.26-.7.96.18,2.38-6.4-1.83-.68-.58,1.06-.82-.31.72-1.95,6.72,2.49-.72,1.95-.81-.3.25-1.18-1.83-.68-2.38,6.41.85.49-.26.7-2.9-1.08Z"/>
      <path class="cls-1" d="M80.44,21.48l-.12-.04-3.02-1.12.34-.91.96.18,2.3-6.19-1.62-.6-.58,1.06-1.03-.39.81-2.18.11.04,6.84,2.54-.04.11-.77,2.07-.11-.04-.91-.34.25-1.18-1.62-.6-2.29,6.19.84.49-.03.1-.3.82ZM77.62,20.17l2.67.99.18-.49-.84-.49.04-.1,2.42-6.52,2.04.76-.25,1.18.6.22.64-1.72-6.49-2.41-.64,1.72.61.22.58-1.06,2.04.76-.04.11-2.41,6.5-.96-.18-.18.49Z"/>
      <path class="cls-1" d="M82.66,22.21l.37-.65.92.34,3.4-5.89-.75-.62.37-.65,3.33,1.92c.54.31.96.66,1.24,1.04s.43.78.45,1.2c.02.42-.1.85-.36,1.3-.25.44-.56.75-.92.94-.36.19-.76.26-1.2.21-.44-.05-.9-.21-1.38-.47l-1.69-.94-1.47,2.55.75.63-.37.65-2.68-1.55ZM86.89,19.14l1.38.8c.57.33,1.04.45,1.42.39s.69-.31.93-.72c.23-.39.29-.78.18-1.15-.12-.37-.43-.71-.95-1.01l-1.48-.86-1.47,2.55ZM87.59,25.05l.49-4.69,1.02.57-.35,3.78.47.39-.38.66-1.24-.72Z"/>
      <path class="cls-1" d="M88.88,25.94l-1.43-.82v-.08s.45-4.15.45-4.15l-1.43-.79-1.35,2.35.75.63-.49.84-2.9-1.68.49-.84.92.34,3.3-5.71-.75-.63.48-.84,3.44,1.98c.55.31.98.67,1.27,1.07.3.4.45.82.47,1.27.02.44-.1.9-.38,1.36-.26.45-.58.78-.97.98-.4.2-.82.27-1.27.22-.1-.01-.21-.03-.31-.05l-.3,3.25.49.42-.49.86ZM87.71,24.99l1.08.62.26-.46-.44-.37v-.06s.31-3.36.31-3.36c-.26-.08-.53-.19-.8-.33l-.42,3.97ZM82.82,22.16l2.47,1.43.26-.45-.75-.63,1.58-2.74.1.06,1.44.8.05-.46,1.25.71-.03.3c.11.03.22.04.32.06.41.05.78-.02,1.13-.2.34-.18.63-.48.87-.89.25-.43.36-.83.34-1.23-.02-.4-.15-.78-.42-1.14-.28-.37-.68-.71-1.2-1.01l-3.23-1.86-.26.44.75.63-3.51,6.07-.92-.34-.26.45ZM88.16,20.76h.02c.27.16.53.27.78.35v-.1s-.78-.44-.78-.44l-.02.2ZM89.49,20.47c-.37,0-.8-.14-1.28-.42l-1.49-.86,1.59-2.76,1.59.92c.55.32.88.68,1,1.08.12.41.06.83-.18,1.24-.26.44-.6.71-1.01.78-.07.01-.14.02-.22.02ZM87.06,19.1l1.28.74c.53.31.97.43,1.33.37.34-.06.62-.28.84-.66.21-.36.26-.7.16-1.05-.1-.34-.4-.65-.89-.93l-1.38-.79-1.34,2.33Z"/>
      <path class="cls-1" d="M89.19,25.96l.48-.57.55.35,7.33-4,.76.65-2.77,7.86.43.48-.48.57-1.89-1.6.48-.57.57.34.59-1.58-2.64-2.23-1.47.83.43.51-.48.57-1.89-1.6ZM93.52,25.13l2.09,1.77,1.3-3.5.07-.19-.03-.02-.18.1-3.25,1.84Z"/>
      <path class="cls-1" d="M95.51,31.46l-2.08-1.76.63-.74.53.31.51-1.36-2.51-2.12-1.27.72.4.47-.63.74-2.07-1.75.63-.75.58.36,7.34-4.01.07.05.83.7-.03.08-2.75,7.79.45.51-.63.74ZM93.77,29.67l1.71,1.44.34-.39-.41-.45.02-.07,2.74-7.78-.63-.54-7.32,4-.52-.33-.33.4,1.7,1.44.34-.4-.45-.54,1.67-.95.06.06,2.7,2.29-.67,1.8-.61-.35-.34.4ZM95.66,27.1l-.13-.11-2.23-1.88,3.66-2.07.16.13-.11.28-1.36,3.65ZM93.73,25.15l1.82,1.54,1.21-3.26-3.03,1.72Z"/>
      <path class="cls-1" d="M98.12,34.67c-.56-.66-.88-1.34-.96-2.02-.08-.69.04-1.35.35-2,.32-.64.8-1.24,1.44-1.78l.09-.08c.65-.54,1.32-.91,2.02-1.1.7-.19,1.38-.19,2.03,0,.65.19,1.23.59,1.74,1.19.36.43.62.87.78,1.34.17.47.24.9.23,1.31l-1.42,1.19-.6-.71.97-.97c0-.16-.04-.32-.09-.49-.05-.17-.13-.34-.23-.52-.1-.18-.23-.35-.38-.53-.36-.44-.78-.71-1.25-.82-.48-.11-.97-.08-1.49.09-.52.18-1.04.48-1.55.9l-.1.09c-.55.47-.96.94-1.21,1.44-.25.49-.35.99-.29,1.47s.28.96.66,1.41c.18.21.38.4.6.56.22.16.43.27.62.34l1.01-.67.59.7-1.44,1.2c-.36-.12-.73-.31-1.1-.59-.38-.27-.72-.59-1.02-.96Z"/>
      <path class="cls-1" d="M100.28,36.35l-.06-.02c-.37-.12-.75-.32-1.14-.6h0c-.38-.28-.72-.6-1.04-.98-.57-.67-.9-1.38-.98-2.1-.09-.71.04-1.4.37-2.07.33-.67.83-1.28,1.47-1.82l.1-.08c.65-.55,1.35-.93,2.06-1.12.74-.19,1.42-.2,2.1,0,.68.2,1.29.62,1.8,1.24.37.43.64.89.81,1.37.16.47.24.92.24,1.35v.05s-.04.04-.04.04l-1.52,1.27-.75-.89,1.01-1.01c0-.14-.04-.27-.08-.41-.05-.16-.13-.32-.22-.5-.1-.17-.22-.33-.36-.51-.34-.41-.74-.67-1.19-.78-.45-.1-.93-.07-1.42.09-.5.17-1.01.47-1.5.88l-.11.09c-.53.45-.93.92-1.18,1.4-.24.46-.33.93-.27,1.4.06.47.27.91.64,1.35.18.21.37.39.57.54.19.13.37.23.53.3l1.05-.7.73.88-1.58,1.32ZM99.21,35.53c.35.25.69.43,1.01.55l1.28-1.08-.44-.52-.96.64-.06-.02c-.2-.07-.42-.18-.65-.35-.22-.16-.43-.35-.62-.58-.39-.47-.62-.96-.69-1.48-.06-.52.04-1.04.3-1.54.26-.51.68-1,1.24-1.48l.11-.09c.52-.43,1.05-.75,1.58-.92.53-.18,1.06-.21,1.56-.1.51.12.95.41,1.32.86.15.18.28.36.39.54.1.19.18.37.24.54.06.18.09.35.1.53v.05s-.92.93-.92.93l.45.53,1.29-1.08c0-.38-.08-.79-.22-1.21-.16-.45-.41-.88-.76-1.29-.48-.59-1.05-.98-1.68-1.16-.64-.19-1.28-.19-1.97,0-.68.19-1.34.55-1.97,1.08l-.1.08c-.62.52-1.09,1.1-1.41,1.74-.31.62-.42,1.27-.34,1.93.08.67.39,1.33.93,1.97.31.37.64.67,1,.94Z"/>
      <path class="cls-1" d="M101.27,38.75l.64-.38.64.75,5.87-3.5-1-1.68-1.12.47-.45-.75,1.79-1.06,3.67,6.16-1.79,1.06-.44-.75.94-.76-1-1.68-5.87,3.5.35.91-.64.38-1.59-2.66Z"/>
      <path class="cls-1" d="M102.82,41.59l-.06-.11-1.65-2.77.83-.5.64.75,5.67-3.38-.88-1.49-1.12.47-.57-.95,2-1.19.06.11,3.74,6.26-.11.06-1.89,1.13-.56-.93.94-.77-.89-1.49-5.67,3.38.35.91-.83.5ZM101.44,38.8l1.46,2.45.44-.27-.35-.91.09-.05,5.97-3.56,1.12,1.88-.94.77.32.54,1.58-.94-3.55-5.95-1.58.94.33.56,1.12-.47.05.09,1.06,1.79-.11.06-5.95,3.55-.64-.75-.44.27Z"/>
      <path class="cls-1" d="M105.25,46.9c-.2-.52-.28-1.03-.25-1.51.04-.49.18-.95.44-1.38.25-.43.6-.82,1.03-1.16s.96-.63,1.56-.87l.11-.04c.6-.23,1.17-.36,1.73-.41.56-.04,1.08.01,1.55.16.48.15.89.39,1.25.73.36.33.64.76.84,1.28.21.55.3,1.07.26,1.56-.04.49-.18.95-.44,1.37-.26.43-.61.81-1.05,1.14-.44.34-.97.62-1.56.85l-.12.04c-.6.23-1.18.38-1.73.43s-1.06,0-1.54-.14c-.47-.14-.89-.38-1.25-.72-.36-.34-.65-.79-.86-1.33ZM106.16,46.55c.21.53.51.91.9,1.14.39.22.86.32,1.39.29.54-.03,1.12-.17,1.75-.41l.13-.05c.62-.24,1.15-.53,1.56-.87.41-.34.69-.73.83-1.16.14-.44.11-.92-.1-1.44-.19-.48-.48-.84-.88-1.07-.4-.23-.87-.35-1.41-.33-.54,0-1.12.13-1.75.38l-.13.05c-.63.24-1.14.54-1.55.9-.41.35-.68.76-.82,1.19-.14.44-.11.9.08,1.38Z"/>
      <path class="cls-1" d="M108.48,49.23c-.4,0-.78-.05-1.15-.16-.49-.15-.92-.4-1.3-.75h0c-.38-.35-.67-.8-.89-1.38-.21-.53-.29-1.06-.26-1.57.04-.51.19-.99.45-1.43.28-.46.63-.85,1.06-1.2.44-.35.98-.65,1.59-.88l.12-.04c.6-.24,1.19-.38,1.76-.42.58-.03,1.11.01,1.6.16.5.16.93.41,1.3.76.37.35.66.78.87,1.32.22.56.31,1.11.27,1.62-.04.51-.2.98-.46,1.42-.26.43-.62.82-1.07,1.18-.45.34-.99.63-1.6.87l-.11.05c-.6.23-1.19.38-1.77.43-.15.01-.29.02-.43.02ZM106.2,48.14c.35.33.75.56,1.2.69.47.14.96.18,1.49.13.55-.05,1.12-.18,1.7-.41l.11-.05c.59-.23,1.11-.51,1.54-.83.43-.34.77-.71,1.01-1.11.24-.41.38-.85.42-1.32.04-.48-.05-.98-.25-1.51-.2-.51-.46-.91-.81-1.23-.34-.32-.75-.56-1.21-.7-.45-.14-.95-.19-1.51-.15-.55.04-1.12.17-1.69.4l-.12.04c-.59.23-1.1.51-1.53.85-.41.33-.74.7-1.01,1.13-.24.41-.38.85-.41,1.32-.04.47.04.97.24,1.46.21.54.48.96.83,1.29h0ZM108.29,48.11c-.48,0-.92-.11-1.29-.32-.42-.24-.74-.65-.95-1.2-.2-.52-.22-1.01-.08-1.47h0c.15-.47.44-.89.86-1.25.42-.36.96-.67,1.59-.92l.13-.05c.67-.25,1.25-.38,1.79-.39h.08c.53,0,.99.11,1.39.35.42.25.74.63.93,1.13.22.55.25,1.06.1,1.53-.14.45-.44.87-.86,1.22-.42.35-.96.65-1.59.89l-.13.05c-.66.26-1.24.4-1.78.42-.06,0-.12,0-.18,0ZM106.2,45.2c-.13.41-.1.84.08,1.31.2.51.47.86.85,1.07.37.22.83.32,1.33.28.51-.03,1.07-.16,1.71-.4l.13-.05c.61-.24,1.12-.53,1.52-.86.39-.32.66-.69.79-1.1s.1-.87-.1-1.36c-.18-.46-.45-.79-.83-1.01-.36-.21-.78-.31-1.27-.31-.03,0-.05,0-.08,0-.51,0-1.06.13-1.7.37l-.12.05c-.61.24-1.12.53-1.52.88-.39.33-.65.72-.79,1.14h0Z"/>
      <path class="cls-1" d="M107.27,53.6c-.11-.51-.14-1.02-.1-1.53.04-.51.18-1.01.4-1.51l1.8-.39.19.88-1.28.48c-.1.28-.16.58-.18.89-.02.31,0,.63.08.97.09.39.22.7.39.94.18.24.39.41.62.51.24.1.5.12.78.06.26-.06.47-.17.64-.33.17-.17.3-.41.38-.73.09-.31.13-.73.14-1.24,0-.61.08-1.14.22-1.59.14-.45.35-.81.62-1.09.28-.28.62-.46,1.04-.55.44-.09.86-.06,1.26.09.4.16.74.42,1.03.8.29.37.5.84.62,1.39.13.59.15,1.13.07,1.62s-.22.91-.41,1.26l-1.68.37-.19-.88,1.16-.45c.1-.21.17-.45.21-.72.04-.28.01-.61-.07-.99-.07-.32-.19-.6-.36-.82-.17-.22-.37-.38-.6-.47-.23-.09-.49-.11-.77-.05-.24.05-.44.16-.59.33-.16.16-.27.4-.35.71-.08.31-.12.72-.13,1.23-.03.93-.21,1.68-.54,2.23-.33.55-.81.89-1.45,1.03-.45.1-.88.06-1.28-.1-.4-.17-.75-.45-1.05-.85-.29-.4-.5-.9-.63-1.5Z"/>
      <path class="cls-1" d="M109.74,56.22c-.29,0-.57-.06-.83-.17-.43-.18-.8-.48-1.1-.89-.3-.41-.53-.92-.66-1.54-.11-.53-.14-1.04-.09-1.57.05-.52.19-1.05.41-1.55l.02-.06h.06s1.92-.43,1.92-.43l.25,1.11-.1.04-1.23.46c-.09.25-.14.52-.16.8-.02.3,0,.61.08.94.09.39.21.68.37.9.16.22.35.38.57.47.22.09.45.1.7.05.23-.05.42-.15.58-.3.15-.15.27-.37.35-.67.08-.31.13-.71.13-1.22.01-.64.09-1.17.23-1.62.14-.46.36-.85.65-1.14.29-.29.66-.49,1.1-.58.47-.1.91-.07,1.33.1.42.17.77.44,1.09.83.31.4.52.88.64,1.44.13.61.15,1.17.07,1.67-.08.51-.22.94-.42,1.3l-.03.05-1.86.4-.24-1.1,1.21-.47c.09-.18.14-.39.18-.64.03-.28,0-.59-.07-.95-.07-.31-.18-.57-.34-.76-.15-.21-.34-.35-.55-.44-.21-.08-.44-.1-.7-.04-.22.05-.39.14-.53.29-.14.15-.24.37-.31.66-.08.34-.13.74-.13,1.2-.03.95-.21,1.71-.56,2.29-.35.58-.86.94-1.52,1.09-.18.04-.35.06-.52.06ZM107.66,50.66c-.19.46-.32.94-.36,1.42-.04.5-.01.99.09,1.49.13.58.33,1.07.62,1.45h0c.27.38.61.65.99.81.38.16.78.19,1.2.1.6-.13,1.05-.45,1.37-.98.32-.54.49-1.27.52-2.17,0-.48.06-.9.14-1.25.08-.34.2-.59.37-.77.18-.18.4-.3.66-.36.3-.06.58-.04.84.06.26.11.48.28.66.52.17.23.3.51.38.86.09.39.12.73.08,1.04-.04.3-.12.55-.22.76l-.02.04-1.1.43.14.66,1.51-.33c.17-.33.29-.71.37-1.18.08-.47.06-1-.07-1.58-.11-.53-.31-.98-.6-1.34-.28-.36-.61-.61-.98-.76-.37-.15-.76-.17-1.19-.09-.4.09-.73.26-.98.52-.27.27-.47.62-.6,1.04-.13.42-.2.94-.22,1.55,0,.52-.05.95-.14,1.28-.1.34-.23.59-.42.78-.19.19-.43.31-.7.37-.29.06-.58.05-.85-.06-.26-.1-.48-.29-.67-.55-.18-.24-.32-.57-.41-.99-.08-.36-.11-.69-.09-1.01.02-.33.09-.64.19-.92l.02-.05.05-.02,1.18-.45-.15-.66-1.62.35Z"/>
      <path class="cls-1" d="M9.05,71.54l7.17-4.18-.02-.69.74-.13.47,2.68-.74.13-.26-.75-5.08,2.84-.64.31v.04s.71.09.71.09l5.75,1.03-.03-.88.74-.13.47,2.68-.74.13-.21-.67-8.16-1.52-.17-.99Z"/>
      <path class="cls-1" d="M17.51,74.85l-.22-.7-8.17-1.52-.2-1.15,7.18-4.18-.03-.73.97-.17.51,2.92-.97.17-.24-.71-4.95,2.77-.33.17.37.05,5.61,1.01-.04-.84.97-.17.51,2.92-.97.18ZM9.33,72.42l8.15,1.52.2.64.51-.09-.42-2.43-.52.09.04.93-.15-.03-5.76-1.03-.81-.11v-.22s.69-.35.69-.35l5.2-2.91.27.79.52-.09-.43-2.44-.51.09.03.66-.06.04-7.1,4.13.14.82Z"/>
      <path class="cls-1" d="M10.28,77.54l.7-.25.48.86,6.42-2.24-.16-.97.71-.25,2.11,6.03-1.96.68-.31-.88,1.06-.51-1.05-3.01-2.65.93,1.05,3-.87.3-1.05-3-2.95,1.03,1.11,3.19,1.17-.27.31.88-1.95.68-2.17-6.2Z"/>
      <path class="cls-1" d="M12.37,83.9l-2.25-6.43.92-.32.48.86,6.22-2.18-.17-.97.93-.33,2.19,6.26-2.19.77-.38-1.1,1.07-.51-.98-2.79-2.41.84,1.05,3-1.1.39-1.05-3.01-2.72.95,1.03,2.97,1.17-.27.39,1.1-2.19.76ZM10.44,77.62l2.09,5.97,1.72-.6-.23-.66-1.17.27-.04-.1-1.15-3.31,3.18-1.11,1.05,3.01.63-.23-1.05-3,2.88-1,1.13,3.23-1.07.51.23.66,1.73-.61-2.03-5.8-.5.18.17.97-.1.04-6.51,2.28-.48-.86-.49.17Z"/>
      <path class="cls-1" d="M14.84,88.82c-.38-.7-.54-1.4-.49-2.09.05-.69.29-1.33.72-1.92.43-.59,1.02-1.08,1.78-1.49l.13-.07c.77-.41,1.51-.62,2.24-.65.73-.03,1.38.12,1.97.43.58.32,1.04.78,1.37,1.41.32.59.52,1.13.6,1.62.09.48.09.93.02,1.35l-1.54.82-.45-.84,1.05-.7c.02-.23,0-.48-.08-.76-.08-.28-.2-.59-.38-.92-.23-.44-.57-.76-1-.98-.44-.21-.93-.31-1.49-.26-.55.03-1.13.21-1.73.53l-.14.07c-.61.32-1.09.7-1.44,1.13-.35.43-.56.89-.62,1.38-.06.49.05.99.32,1.5.18.35.37.63.56.84s.38.38.58.51l1.79-.95-.73-1.49.76-.4,1.33,2.49-2.95,1.57c-.32-.11-.68-.32-1.07-.64-.39-.32-.76-.81-1.11-1.47Z"/>
      <path class="cls-1" d="M17.03,91.06l-.05-.02c-.34-.12-.71-.34-1.1-.66h0c-.41-.34-.79-.85-1.14-1.51-.39-.72-.55-1.45-.5-2.16.05-.7.3-1.37.74-1.98.44-.6,1.05-1.11,1.83-1.53l.13-.07c.78-.42,1.55-.64,2.29-.67.06,0,.12,0,.18,0,.67,0,1.3.15,1.85.45.6.32,1.08.81,1.42,1.45.33.62.53,1.16.61,1.65.09.51.09.97.02,1.4v.06s-.06.03-.06.03l-1.65.88-.56-1.05,1.09-.73c.01-.2-.01-.42-.08-.66-.07-.26-.19-.55-.37-.9-.22-.41-.54-.72-.95-.92-.41-.2-.88-.29-1.43-.25-.54.03-1.1.21-1.68.52l-.13.07c-.59.31-1.06.68-1.4,1.1-.34.4-.54.84-.59,1.31-.06.46.05.94.31,1.44.19.35.36.62.54.81.17.18.34.33.5.45l1.62-.86-.73-1.49.97-.52.06.11,1.39,2.6-.11.06-2.99,1.6ZM16.02,90.19c.36.29.69.49.98.6l2.79-1.49-1.21-2.28-.55.29.73,1.49-.1.06-1.85.98-.06-.04c-.2-.13-.39-.31-.6-.53-.19-.21-.38-.49-.58-.86-.29-.54-.4-1.07-.34-1.58.06-.52.27-1,.64-1.44.36-.44.85-.83,1.47-1.15l.13-.07c.61-.33,1.21-.52,1.79-.55.57-.03,1.1.06,1.55.28.46.23.81.57,1.06,1.02.19.37.32.68.39.95.08.3.11.56.08.81v.06s-1,.67-1,.67l.34.64,1.38-.73c.06-.38.05-.79-.03-1.25-.08-.47-.27-.98-.59-1.58-.32-.6-.76-1.05-1.32-1.35-.57-.31-1.22-.44-1.9-.42-.7.02-1.44.24-2.19.64l-.13.07c-.74.4-1.33.88-1.74,1.45-.42.57-.65,1.19-.7,1.85-.05.66.1,1.34.47,2.02.34.63.7,1.11,1.08,1.43h0Z"/>
      <path class="cls-1" d="M17.28,92.86l.6-.45.71.67,5.42-4.09-.45-.87.6-.45,3.85,5.1-1.66,1.25-.57-.75.86-.81-1.92-2.54-2.24,1.69,1.91,2.54-.73.55-1.91-2.54-2.49,1.88,2.03,2.69,1.03-.61.56.74-1.65,1.25-3.96-5.24Z"/>
      <path class="cls-1" d="M21.22,98.28l-.07-.1-4.04-5.34.78-.58.72.67,5.26-3.97-.45-.87.79-.59,3.99,5.29-1.85,1.4-.7-.94.85-.81-1.78-2.36-2.05,1.54,1.91,2.54-.92.7-.07-.1-1.84-2.44-2.3,1.73,1.9,2.51,1.03-.62.7.93-1.84,1.4ZM17.46,92.88l3.81,5.05,1.45-1.1-.42-.56-1.03.62-2.18-2.88,2.69-2.03,1.91,2.54.53-.41-1.91-2.54,2.44-1.83,2.06,2.72-.85.81.42.56,1.46-1.1-3.7-4.9-.43.32.45.87-.08.06-5.5,4.15-.72-.67-.41.31Z"/>
      <path class="cls-1" d="M23.94,100.94l.52-.54.81.55,4.73-4.93-1.41-1.35-.95.74-.63-.61,1.44-1.5,5.17,4.97-1.44,1.5-.62-.6.7-.99-1.41-1.35-4.73,4.93.58.79-.52.54-2.24-2.15Z"/>
      <path class="cls-1" d="M26.18,103.26l-.09-.09-2.32-2.23.67-.7.81.55,4.57-4.76-1.25-1.2-.96.74-.79-.76,1.61-1.68.09.09,5.26,5.05-1.62,1.67-.78-.76.7-.99-1.25-1.19-4.57,4.77.58.79-.67.7ZM24.11,100.94l2.06,1.98.36-.37-.58-.79.07-.08,4.81-5.02,1.58,1.51-.7.99.46.44,1.27-1.32-5-4.8-1.27,1.33.47.45.95-.74.08.07,1.5,1.44-.09.09-4.8,5-.81-.55-.36.38Z"/>
      <path class="cls-1" d="M28.95,105.61l.42-.62.58.28,6.86-4.76.83.56-1.91,8.11.48.43-.42.62-2.05-1.39.42-.62.61.27.42-1.63-2.86-1.93-1.37.99.48.46-.42.62-2.05-1.39ZM33.16,104.32l2.27,1.53.91-3.62.05-.2-.03-.02-.17.12-3.03,2.18Z"/>
      <path class="cls-1" d="M35.82,110.4l-2.25-1.52.54-.8.56.25.36-1.41-2.72-1.84-1.19.85.44.43-.54.8-2.25-1.52.54-.81.61.3,6.87-4.77.97.66-.02.08-1.89,8.04.5.45-.54.81ZM33.91,108.81l1.85,1.25.29-.43-.45-.4,1.9-8.1-.69-.47-6.85,4.76-.55-.27-.29.43,1.84,1.25.29-.43-.51-.49,1.57-1.12.07.05,2.93,1.98-.48,1.86-.64-.29-.29.43ZM35.5,106.06l-2.55-1.73,3.41-2.46.17.12-.07.29-.96,3.79ZM33.38,104.32l1.98,1.34.86-3.38-2.83,2.04Z"/>
      <path class="cls-1" d="M37.21,110.94l.31-.68.95.26,2.85-6.17-.8-.55.32-.69.88.41,1.06.49.88.4-.32.68-.95-.26-2.86,6.18,2.77,1.28.7-1.18.81.38-.95,2.05-5.63-2.61Z"/>
      <path class="cls-1" d="M42.91,113.72l-.11-.05-5.75-2.66.4-.88.95.26,2.77-5.98-.81-.56.41-.88.99.45,2.05.95-.42.88-.94-.25-2.77,5.98,2.56,1.19.7-1.18,1.02.48-1.05,2.27ZM37.37,110.88l5.42,2.51.84-1.83-.6-.28-.7,1.18-2.99-1.38.05-.11,2.91-6.27.95.25.22-.48-2.59-1.2-.22.48.81.56-.04.09-2.9,6.26-.95-.26-.22.48Z"/>
      <path class="cls-1" d="M44.34,114.14l.21-.72.97.11,1.91-6.52-.88-.43.21-.72,6.13,1.79-.58,1.99-.9-.26.2-1.16-3.06-.89-.79,2.69,3.05.89-.26.88-3.05-.89-.88,3,3.24.95.46-1.11.89.26-.58,1.99-6.31-1.84Z"/>
      <path class="cls-1" d="M50.73,116.13l-.12-.03-6.42-1.88.27-.93.97.11,1.85-6.32-.88-.43.27-.94.12.03,6.24,1.83-.65,2.22-1.12-.32.21-1.16-2.84-.83-.72,2.46,3.06.89-.33,1.11-.12-.03-2.94-.86-.81,2.76,3.02.88.46-1.11,1.11.33-.65,2.22ZM44.49,114.05l6.07,1.77.51-1.75-.67-.19-.46,1.11-3.46-1.01.03-.12.91-3.11.12.03,2.94.86.19-.64-3.06-.89.03-.12.83-2.81.12.03,3.17.92-.21,1.16.68.19.51-1.75-5.89-1.72-.15.51.88.43-.03.1-1.94,6.62-.97-.11-.15.5Z"/>
      <path class="cls-1" d="M55.38,116.88c-.52-.07-1.01-.22-1.47-.44-.46-.22-.89-.52-1.28-.89l.25-1.83.9.12v1.37c.24.19.5.35.79.48s.6.22.95.26c.39.05.73.04,1.02-.04.29-.08.52-.22.69-.41.18-.19.28-.43.32-.71.04-.26,0-.5-.09-.72-.1-.22-.28-.42-.55-.61-.27-.19-.64-.38-1.12-.56-.57-.22-1.04-.47-1.41-.75-.38-.29-.64-.61-.81-.96s-.22-.75-.16-1.17c.06-.44.24-.83.52-1.15.29-.32.65-.55,1.1-.7.45-.14.96-.18,1.52-.1.6.08,1.12.25,1.55.49s.78.52,1.04.82l-.23,1.71-.9-.12-.02-1.25c-.16-.17-.36-.31-.61-.44-.25-.13-.57-.22-.96-.28-.33-.04-.63-.03-.89.05-.27.08-.49.21-.66.4-.17.19-.27.42-.31.7-.03.25,0,.47.1.67s.29.39.55.57c.27.18.64.36,1.1.55.87.35,1.51.77,1.91,1.27.4.5.56,1.07.47,1.71-.06.46-.24.85-.54,1.17s-.68.55-1.15.69c-.48.13-1.02.16-1.62.08Z"/>
      <path class="cls-1" d="M56.04,117.05c-.22,0-.45-.02-.68-.05-.53-.07-1.04-.22-1.51-.44s-.91-.53-1.31-.92l-.04-.04v-.06s.28-1.95.28-1.95l1.13.16v1.42c.22.17.46.31.71.42.28.13.58.21.91.26.37.05.69.04.97-.04.26-.08.48-.2.64-.38.16-.17.25-.38.29-.64.03-.24,0-.46-.08-.66-.09-.19-.26-.38-.51-.56-.26-.18-.62-.36-1.1-.54-.6-.24-1.08-.49-1.45-.78-.38-.29-.66-.63-.84-1-.18-.38-.23-.8-.17-1.24.06-.46.25-.87.55-1.22.29-.33.68-.57,1.16-.73.47-.15,1.01-.19,1.57-.1.61.08,1.15.25,1.6.5.46.26.81.54,1.07.85l.04.04v.05s-.26,1.82-.26,1.82l-1.12-.15-.02-1.31c-.14-.14-.32-.27-.54-.38-.25-.13-.55-.22-.92-.26-.3-.04-.58-.02-.84.05-.24.07-.44.19-.6.36-.16.17-.25.38-.28.64-.03.22,0,.41.09.6.09.18.26.36.52.53s.62.35,1.08.54c.89.36,1.54.8,1.95,1.31.42.52.59,1.13.5,1.8-.07.48-.26.9-.57,1.23-.31.33-.71.57-1.21.72h0c-.31.09-.64.13-.99.13ZM52.75,115.5c.37.35.78.62,1.2.83.44.22.92.36,1.44.43.58.08,1.11.06,1.58-.07.46-.14.82-.35,1.1-.65.28-.3.45-.67.51-1.1.08-.61-.07-1.15-.45-1.62-.38-.48-1.01-.9-1.85-1.24-.48-.19-.86-.38-1.12-.56-.29-.19-.49-.4-.6-.62-.12-.23-.15-.48-.11-.75.04-.31.16-.57.35-.77.18-.2.42-.35.7-.43.29-.09.62-.11.94-.06.39.05.73.15,1,.29.26.14.48.3.64.47l.03.03v.05s.02,1.14.02,1.14l.67.09.22-1.53c-.24-.27-.56-.52-.97-.75-.42-.23-.93-.4-1.51-.48-.54-.08-1.03-.05-1.46.09-.44.14-.79.36-1.05.66-.27.31-.43.67-.49,1.09s0,.76.15,1.1c.16.34.41.65.77.91.35.27.8.51,1.38.74.49.19.87.37,1.15.57.28.2.48.42.59.66.1.24.14.51.1.79-.04.31-.16.57-.35.77-.19.21-.44.36-.75.45-.31.08-.67.1-1.07.04-.36-.05-.68-.14-.98-.27-.29-.13-.56-.29-.81-.49l-.04-.04v-1.32s-.68-.1-.68-.1l-.22,1.64Z"/>
      <path class="cls-1" d="M63.29,117.43l-.06-.75.95-.25-.57-6.77-.98-.08-.06-.75.96-.08,1.18-.1,4.79,6.34.03-.02-.49-5.77-1.07-.08-.06-.75,2.13-.18.96-.08.06.75-.95.25.65,7.68-1.06.09-4.9-6.37h-.04s.49,5.83.49,5.83l1.07.08.06.75-3.09.26Z"/>
      <path class="cls-1" d="M63.18,117.56l-.08-.97.95-.25-.56-6.56-.97-.08-.08-.97,2.33-.2.04.05,4.57,6.06-.46-5.32-1.07-.08-.09-.97h.12s3.21-.29,3.21-.29l.08.97-.95.25.66,7.7-1.25.11-.04-.05-4.68-6.09.45,5.36,1.07.08.08.97h-.12s-3.21.28-3.21.28ZM63.36,116.78l.04.52,2.85-.24-.04-.52-1.07-.08v-.1s-.51-5.91-.51-5.91l.21-.08.06.07,4.85,6.32.88-.07-.65-7.66.95-.25-.04-.53-2.85.24.05.52,1.07.08v.1s.51,5.86.51,5.86l-.21.08-.05-.07-4.74-6.29-1.95.17.04.53.97.08v.1s.59,6.87.59,6.87l-.95.25Z"/>
      <path class="cls-1" d="M73.33,116.41l-.2-.72.59-.26.85-8.31.97-.26,4.91,6.73.64-.08.2.72-2.39.65-.2-.72.6-.28-.97-1.38-3.33.91-.15,1.68.66-.06.2.72-2.38.65ZM75.09,112.38l2.64-.72-2.15-3.05-.12-.17h-.04s-.01.22-.01.22l-.32,3.72Z"/>
      <path class="cls-1" d="M73.24,116.56l-.26-.94.62-.27.86-8.32,1.13-.31.05.07,4.88,6.68.66-.09.26.94-.12.03-2.5.68-.26-.93.56-.26-.83-1.19-3.17.86-.13,1.46.61-.06.26.94-.12.03-2.5.68ZM73.27,115.77l.13.5,2.15-.58-.13-.5-.7.06.17-1.92.08-.02,3.42-.93,1.09,1.57-.63.3.14.5,2.15-.59-.14-.5-.59.08-.04-.06-4.87-6.67-.8.22-.86,8.3-.56.24ZM74.95,112.54l.36-4.19.2-.06.17.24,2.25,3.19-2.98.81ZM75.53,108.75l-.3,3.47,2.3-.63-2.01-2.84Z"/>
      <path class="cls-1" d="M84.81,112.69l-.32-.68.8-.56-2.92-6.17-1.77.84.36,1.15-.79.37-.89-1.88,6.48-3.06.89,1.88-.78.37-.67-1.01-1.77.84,2.92,6.17.94-.26.32.68-2.8,1.32Z"/>
      <path class="cls-1" d="M84.76,112.86l-.41-.88.8-.56-2.82-5.97-1.56.74.36,1.15-1,.48-.99-2.11.11-.05,6.59-3.12.99,2.11-.99.46-.67-1.01-1.56.74,2.82,5.97.94-.26.42.88-3.03,1.43ZM84.65,112.06l.22.47,2.58-1.22-.23-.47-.94.26-.04-.09-2.97-6.29,1.97-.93.67,1.01.57-.27-.78-1.66-6.26,2.96.79,1.66.58-.28-.36-1.16,1.98-.93.05.11,2.96,6.27-.8.56Z"/>
      <path class="cls-1" d="M94.29,107.49c-.48.34-.99.55-1.5.63-.52.08-1.01.01-1.47-.18-.47-.2-.88-.55-1.23-1.04l-2.83-4.03-.89.42-.43-.62,2.54-1.78.43.62-.7.69,2.83,4.03c.25.35.52.6.83.75.3.14.61.19.94.15.32-.04.64-.18.96-.4.32-.22.56-.48.71-.77.16-.29.23-.6.19-.94-.03-.33-.17-.68-.42-1.04l-2.83-4.03-.89.42-.43-.62,2.54-1.78.43.62-.69.69,2.83,4.03c.36.51.56,1.02.59,1.52.03.51-.08.99-.34,1.44-.26.45-.65.87-1.17,1.23Z"/>
      <path class="cls-1" d="M92.36,108.27c-.38,0-.75-.08-1.1-.23-.48-.2-.91-.56-1.28-1.08l-2.77-3.96-.89.42-.56-.8.1-.07,2.63-1.85.57.8-.69.69,2.77,3.95c.24.34.5.57.78.7.28.14.56.18.87.14.31-.05.62-.18.9-.38.3-.21.53-.46.67-.73.15-.27.21-.56.18-.88-.03-.31-.16-.64-.4-.97l-2.78-3.95-.88.42-.57-.8.1-.07,2.64-1.85.56.8-.69.69,2.77,3.95c.37.53.57,1.06.61,1.58.04.52-.09,1.03-.36,1.51h0c-.26.47-.67.9-1.2,1.27-.48.34-1.01.56-1.55.65-.15.02-.3.03-.44.03ZM87.29,102.7l.06.08,2.83,4.04c.34.48.73.81,1.18.99.44.19.9.25,1.41.18.5-.08.99-.28,1.44-.6.51-.36.89-.76,1.13-1.19h0c.25-.44.36-.9.32-1.37-.03-.48-.22-.97-.57-1.46l-2.89-4.12.69-.69-.3-.43-2.34,1.64.31.43.88-.42.06.08,2.84,4.04c.26.37.41.74.44,1.09.03.37-.04.7-.22,1.01-.16.3-.42.57-.75.81-.32.23-.66.37-1.01.42-.35.05-.69,0-1.01-.16-.32-.15-.61-.41-.87-.78l-2.89-4.12.69-.69-.31-.43-2.33,1.64.3.43.89-.42Z"/>
      <path class="cls-1" d="M98.78,103.96l-.53-.53.57-.8-4.8-4.81-.8.56-.53-.53,2.72-2.71c.44-.44.89-.75,1.32-.92.44-.17.86-.21,1.27-.12.41.09.8.32,1.16.69s.58.74.67,1.14c.09.4.05.8-.11,1.21-.16.41-.43.81-.82,1.21l-1.34,1.39,2.07,2.08.8-.57.53.53-2.2,2.19ZM96.93,99.08l1.13-1.13c.46-.46.71-.88.74-1.27.04-.39-.12-.75-.45-1.09s-.67-.48-1.06-.46-.79.23-1.22.66l-1.21,1.21,2.07,2.08ZM102.82,99.94l-4.4-1.7.82-.83,3.56,1.32.5-.35.54.54-1.02,1.02Z"/>
      <path class="cls-1" d="M98.78,104.14l-.69-.69.57-.8-4.65-4.67-.8.56-.69-.69,2.81-2.8c.46-.45.92-.77,1.36-.95.48-.18.91-.22,1.35-.12.43.09.82.33,1.21.71.38.37.61.78.7,1.2.09.42.05.85-.12,1.28-.04.1-.08.19-.13.29l3.06,1.13.53-.37.7.7-.09.09-1.07,1.07-.08-.03-3.89-1.49-1.13,1.17,1.92,1.92.79-.57.69.69-.09.09-2.28,2.28ZM98.41,103.42l.37.37,2.02-2.02-.37-.37-.79.57-2.23-2.24.08-.09,1.14-1.18-.43-.17,1-1.02.28.1c.05-.1.1-.19.14-.29.15-.39.19-.76.1-1.14-.08-.38-.29-.74-.63-1.07-.36-.35-.72-.57-1.1-.65-.39-.09-.78-.05-1.21.11-.41.17-.85.47-1.28.9l-2.64,2.63.37.37.8-.56,4.94,4.96-.57.8ZM99.06,98.37l3.72,1.43.88-.87-.38-.38-.47.33-.06-.02-3.16-1.17c-.14.23-.32.46-.53.69ZM98.63,98.2l.18.07h.01c.21-.23.39-.45.53-.68l-.09-.04-.63.65ZM96.93,99.25l-.09-.09-2.16-2.16.09-.09,1.21-1.21c.44-.44.88-.67,1.3-.69h.04c.42,0,.79.17,1.12.5.36.36.53.76.49,1.18-.04.41-.3.86-.78,1.34l-1.21,1.21ZM95.02,97l1.9,1.9,1.04-1.04c.44-.44.68-.84.71-1.19.03-.35-.11-.68-.42-.99-.28-.29-.59-.43-.94-.43h-.03c-.35.01-.73.22-1.13.62l-1.13,1.12Z"/>
      <path class="cls-1" d="M105.05,97.61l-.61-.43.29-.57-4.68-6.92.57-.82,8.09,2.01.44-.47.61.43-1.41,2.04-.61-.43.28-.6-1.63-.44-1.97,2.84.97,1.39.47-.47.61.43-1.41,2.03ZM103.82,93.39l1.56-2.25-3.6-.96-.2-.05-.02.03.12.17,2.15,3.06Z"/>
      <path class="cls-1" d="M105.09,97.79l-.8-.56.31-.61-4.69-6.93.05-.07.62-.9.08.02,8.02,1.99.45-.5.8.56-1.54,2.24-.8-.55.26-.56-1.41-.38-1.87,2.7.84,1.2.43-.44.8.56-.07.1-1.48,2.13ZM104.6,97.15l.42.3,1.27-1.83-.43-.3-.49.51-1.1-1.58.05-.07,2.02-2.91.08.02,1.77.48-.3.64.43.3,1.27-1.84-.42-.3-.41.45-.07-.02-8.01-1.99-.48.69,4.68,6.91-.28.55ZM103.82,93.61l-.1-.14-2.32-3.3.13-.17.28.08,3.77,1-.1.14-1.66,2.4ZM101.83,90.32l2,2.85,1.36-1.96-3.35-.89Z"/>
      <path class="cls-1" d="M110.53,89.46l-.67-.33.27-.94-6.1-2.99-.57.79-.68-.33.42-.87.51-1.05.43-.87.68.33-.27.94,6.12,3,1.34-2.74-1.16-.72.39-.8,2.03.99-2.73,5.58Z"/>
      <path class="cls-1" d="M110.58,89.62l-.87-.43.27-.95-5.92-2.89-.57.79-.88-.43,1.47-3,.88.43-.27.94,5.91,2.9,1.24-2.53-1.16-.72.49-1.01,2.25,1.1-2.84,5.8ZM110,89.07l.46.23,2.63-5.36-1.81-.88-.29.59,1.16.72-.05.1-1.4,2.85-6.32-3.1.27-.94-.48-.23-1.25,2.56.48.23.57-.79.09.05,6.2,3.03-.27.95Z"/>
      <path class="cls-1" d="M113.83,82.54l-.71-.23.13-.97-6.47-2.07-.45.87-.72-.23,1.94-6.09,1.98.63-.28.89-1.16-.23-.97,3.04,2.67.85.97-3.03.88.28-.97,3.03,2.98.95,1.03-3.22-1.1-.48.28-.89,1.97.63-2,6.26Z"/>
      <path class="cls-1" d="M113.9,82.69l-.93-.29.14-.97-6.28-2-.45.87-.93-.3.04-.12,1.98-6.2,2.2.7-.35,1.11-1.16-.23-.89,2.81,2.44.78.97-3.03,1.11.36-.04.12-.93,2.91,2.74.88.96-3-1.1-.49.35-1.1,2.2.7-2.07,6.49ZM113.25,82.23l.5.16,1.92-6.02-1.74-.55-.21.66,1.1.49-1.1,3.44-.12-.04-3.09-.98.97-3.03-.64-.21-.97,3.03-2.91-.93,1.04-3.26,1.16.23.21-.67-1.74-.56-1.87,5.85.5.16.45-.87.1.03,6.57,2.1-.14.97Z"/>
      <path class="cls-1" d="M116.85,71.47c-.08.52-.24,1-.47,1.46-.23.45-.54.88-.92,1.26l-1.82-.29.14-.89,1.37.02c.2-.23.36-.48.49-.77.13-.28.23-.59.28-.94.06-.39.06-.73-.02-1.02-.08-.29-.21-.52-.39-.7-.19-.18-.42-.29-.7-.33-.26-.04-.5-.02-.72.08-.22.09-.43.27-.62.53-.19.26-.39.63-.58,1.11-.23.56-.49,1.03-.79,1.39-.29.37-.62.63-.98.79s-.75.2-1.17.13c-.45-.07-.82-.25-1.14-.55-.31-.29-.54-.66-.67-1.12-.14-.45-.16-.96-.07-1.52.1-.6.27-1.11.53-1.54.26-.43.54-.77.84-1.03l1.7.27-.14.89h-1.25c-.17.15-.32.35-.45.6-.14.25-.24.56-.3.95-.05.33-.04.62.03.89s.21.49.39.66c.19.18.42.28.7.33.25.04.47.01.68-.09.2-.09.4-.27.58-.54.19-.26.38-.62.58-1.09.37-.86.8-1.49,1.31-1.88s1.08-.54,1.72-.43c.45.07.84.26,1.15.56.31.31.53.69.66,1.17.13.48.14,1.02.04,1.63Z"/>
      <path class="cls-1" d="M115.5,74.32l-2-.32.18-1.12h.11l1.31.02c.18-.21.32-.44.44-.7.13-.27.22-.56.27-.9.06-.38.05-.69-.02-.97-.07-.27-.19-.48-.35-.64-.18-.17-.39-.27-.64-.31-.24-.04-.47-.01-.65.07-.2.08-.38.24-.58.49-.19.26-.38.62-.57,1.08-.23.57-.5,1.05-.8,1.42-.31.38-.65.66-1.03.82-.38.16-.78.22-1.24.14-.46-.07-.86-.26-1.19-.57-.33-.31-.57-.7-.71-1.17-.14-.48-.16-1.01-.07-1.58.09-.6.28-1.13.54-1.58.27-.45.55-.79.87-1.06l.04-.04h.05s1.83.3,1.83.3l-.19,1.12h-1.3c-.14.13-.27.31-.4.53-.13.23-.22.53-.29.91-.05.31-.04.59.03.84.06.24.18.44.35.61.17.16.39.26.64.29.22.04.41.01.6-.07.18-.09.36-.26.53-.5.18-.26.36-.61.56-1.06.39-.9.84-1.53,1.36-1.93.53-.41,1.15-.57,1.82-.46.48.08.88.28,1.22.6.34.32.56.72.7,1.23h0c.13.49.14,1.05.04,1.67-.09.54-.25,1.04-.48,1.49-.24.47-.56.91-.95,1.29l-.04.04ZM113.78,73.8l1.64.26c.35-.36.64-.76.86-1.19.22-.43.37-.91.46-1.42.09-.59.08-1.12-.04-1.58-.12-.46-.33-.83-.63-1.12-.29-.28-.66-.46-1.08-.53-.62-.1-1.15.04-1.63.41-.48.37-.91.99-1.28,1.83-.2.47-.39.83-.58,1.1-.2.28-.41.47-.63.58-.23.11-.48.14-.75.09-.29-.04-.55-.16-.76-.36-.2-.2-.35-.44-.42-.72-.08-.28-.09-.6-.04-.94.07-.41.17-.74.31-.99.14-.27.3-.47.48-.63l.04-.03h1.18s.11-.67.11-.67l-1.53-.24c-.27.24-.53.56-.77.96-.25.42-.42.93-.51,1.49-.09.53-.06,1.03.06,1.47.13.43.34.78.64,1.06.3.28.66.45,1.07.51.4.06.77.03,1.11-.12.34-.15.65-.4.93-.75.28-.36.54-.82.76-1.36.19-.49.39-.86.6-1.14.22-.29.44-.47.67-.57.23-.1.49-.13.79-.08.3.04.56.17.77.37.2.19.34.44.42.75.08.31.09.66.02,1.07-.06.37-.16.68-.29.97-.13.29-.3.55-.52.79l-.04.04h-.06l-1.26-.02-.11.67Z"/>
      <path class="cls-2" d="M85.06,42.71c.05,0,.09,0,.12,0,.95,4.49-2.79,26.56-12.61,34.16-3.38,2.62-7.21,3.95-11.37,3.95-5.01,0-8.79-1.95-8.82-1.97-.4-.22-.85-.32-1.29-.32-.66,0-1.31.23-1.82.69-1.5,1.32-4.82,4.48-5.73,7.25-.51-.05-1.07-.24-1.42-.44-.07-.19-.12-.59-.1-1.05,10.04-18.87,27.63-23.44,27.79-23.48.98-.23,1.81-.83,2.34-1.69.53-.86.7-1.87.47-2.83-.39-1.72-1.9-2.93-3.66-2.93-.31,0-.62.04-.87.11-.53.12-11.85,2.88-22.43,13.35-.29-5.3.9-9.75,3.54-13.28,6.1-8.1,18.13-9,18.14-9,1.23-.03,12.09-.35,16.36-2.17.72-.31,1.15-.36,1.35-.36M85.06,39.97c-.66,0-1.46.16-2.43.58-3.91,1.67-15.35,1.95-15.35,1.95,0,0-29.9,1.88-23.51,31.2,10.88-13.37,24.27-16.69,24.96-16.84.08-.02.17-.03.24-.03.46,0,.88.33.99.8.13.55-.21,1.1-.76,1.23-.19.04-19.16,4.78-29.83,25.35-.08.54-.36,3.08,1.14,4.07.83.56,2.16.98,3.31.98s2.13-.42,2.27-1.53c.28-2.23,5.02-6.42,5.02-6.42,0,0,4.28,2.29,10.11,2.29,3.93,0,8.55-1.04,13.05-4.52,11.16-8.65,15.07-33.21,13.4-37.67,0,0-.63-1.41-2.59-1.41"/>
    </g>
  </g>
</svg>