<?xml version="1.0" encoding="UTF-8"?>
<svg id="Layer_2" data-name="Layer 2" xmlns="http://www.w3.org/2000/svg" viewBox="0 0 108.99 125.43">
  <defs>
    <style>
      .cls-1 {
        stroke-width: .09px;
      }

      .cls-1, .cls-2 {
        fill: none;
        stroke: #7b868c;
        stroke-miterlimit: 10;
      }

      .cls-2 {
        stroke-width: .09px;
      }

      .cls-3 {
        fill: #7b868c;
      }

      .cls-4 {
        fill: #80bc00;
      }
    </style>
  </defs>
  <g id="Layer_1-2" data-name="Layer 1">
    <g>
      <path class="cls-3" d="M108.99,62.9c0,8.81-2.08,17.27-6.19,25.13l-.35.66-2.21-1.3.31-.59c3.9-7.48,5.88-15.52,5.88-23.9,0-6.71-1.3-13.29-3.85-19.54l-.27-.66,2.38-.93.27.64c2.68,6.56,4.03,13.46,4.03,20.5Z"/>
      <path class="cls-3" d="M8.79,87.48l-2.23,1.26-.34-.65c-4.13-7.87-6.22-16.35-6.22-25.19,0-6.55,1.21-13.06,3.61-19.34l.26-.7,2.35,1.05-.24.62c-2.27,5.97-3.42,12.15-3.42,18.37,0,8.41,1.99,16.47,5.91,23.97l.32.61Z"/>
      <polygon class="cls-3" points="10.09 37.01 9.34 36.52 9.81 35.44 2.96 30.95 2.16 31.81 1.4 31.31 3.45 28.19 4.2 28.69 3.74 29.77 6.74 31.74 9.46 27.59 6.46 25.62 5.65 26.49 4.89 25.99 5.54 25.01 6.3 23.84 6.94 22.87 7.7 23.36 7.23 24.45 14.08 28.93 14.88 28.07 15.63 28.56 13.59 31.68 12.83 31.19 13.31 30.11 10.39 28.19 7.66 32.35 10.58 34.26 11.39 33.4 12.14 33.89 10.09 37.01"/>
      <polygon class="cls-1" points="10.09 37.01 9.34 36.52 9.81 35.44 2.96 30.95 2.16 31.81 1.4 31.31 3.45 28.19 4.2 28.69 3.74 29.77 6.74 31.74 9.46 27.59 6.46 25.62 5.65 26.49 4.89 25.99 5.54 25.01 6.3 23.84 6.94 22.87 7.7 23.36 7.23 24.45 14.08 28.93 14.88 28.07 15.63 28.56 13.59 31.68 12.83 31.19 13.31 30.11 10.39 28.19 7.66 32.35 10.58 34.26 11.39 33.4 12.14 33.89 10.09 37.01"/>
      <path class="cls-3" d="M19.35,25.05c-.48.47-1,.8-1.55,1-.56.19-1.13.26-1.73.19s-1.19-.26-1.78-.57c-.6-.32-1.17-.75-1.72-1.3l-.1-.1c-.55-.55-.98-1.12-1.29-1.71-.32-.59-.51-1.19-.58-1.79-.07-.6,0-1.18.19-1.74.19-.56.53-1.07,1-1.55.5-.5,1.03-.85,1.59-1.05.56-.2,1.14-.26,1.73-.18.59.08,1.18.28,1.76.6.59.32,1.15.76,1.7,1.3l.11.11c.55.55.98,1.11,1.3,1.7.33.58.52,1.17.6,1.76.08.59,0,1.16-.19,1.73-.2.56-.55,1.09-1.05,1.59M18.52,24.22c.49-.49.76-1,.82-1.55.06-.54-.06-1.1-.35-1.68-.3-.58-.73-1.15-1.3-1.73l-.11-.11c-.57-.58-1.15-1.01-1.72-1.29-.57-.29-1.13-.41-1.69-.35-.54.06-1.06.33-1.53.81-.44.44-.7.94-.76,1.49-.06.55.04,1.12.32,1.71.27.59.7,1.17,1.26,1.74l.11.12c.58.57,1.15,1,1.75,1.27.59.27,1.17.38,1.72.32.55-.06,1.05-.31,1.49-.75"/>
      <path class="cls-1" d="M19.35,25.05c-.48.47-1,.8-1.55,1-.56.19-1.13.26-1.73.19s-1.19-.26-1.78-.57c-.6-.32-1.17-.75-1.72-1.3l-.1-.1c-.55-.55-.98-1.12-1.29-1.71-.32-.59-.51-1.19-.58-1.79-.07-.6,0-1.18.19-1.74.19-.56.53-1.07,1-1.55.5-.5,1.03-.85,1.59-1.05.56-.2,1.14-.26,1.73-.18.59.08,1.18.28,1.76.6.59.32,1.15.76,1.7,1.3l.11.11c.55.55.98,1.11,1.3,1.7.33.58.52,1.17.6,1.76.08.59,0,1.16-.19,1.73-.2.56-.55,1.09-1.05,1.59ZM18.52,24.22c.49-.49.76-1,.82-1.55.06-.54-.06-1.1-.35-1.68-.3-.58-.73-1.15-1.3-1.73l-.11-.11c-.57-.58-1.15-1.01-1.72-1.29-.57-.29-1.13-.41-1.69-.35-.54.06-1.06.33-1.53.81-.44.44-.7.94-.76,1.49-.06.55.04,1.12.32,1.71.27.59.7,1.17,1.26,1.74l.11.12c.58.57,1.15,1,1.75,1.27.59.27,1.17.38,1.72.32.55-.06,1.05-.31,1.49-.75Z"/>
      <path class="cls-3" d="M27.22,18.65c-.8.54-1.62.81-2.45.83-.83.02-1.63-.19-2.38-.63-.75-.44-1.42-1.1-1.99-1.97l-.1-.14c-.58-.87-.93-1.74-1.05-2.61-.12-.87-.02-1.67.29-2.41.31-.74.81-1.34,1.52-1.81.67-.45,1.3-.75,1.87-.91.57-.15,1.11-.21,1.62-.17l1.17,1.74-.96.64-.96-1.17c-.28,0-.58.06-.9.19-.33.12-.68.31-1.06.57-.5.33-.84.77-1.05,1.32-.21.55-.25,1.15-.15,1.82.11.66.39,1.33.84,2.01l.11.15c.46.69.96,1.22,1.52,1.59.55.37,1.13.56,1.72.57.59,0,1.19-.18,1.77-.57.39-.27.71-.52.93-.77.23-.25.41-.5.55-.75l-1.36-2.03-1.7,1.04-.58-.86,2.83-1.88,2.23,3.35c-.1.4-.31.85-.65,1.36-.34.51-.88,1.01-1.63,1.51"/>
      <path class="cls-1" d="M27.22,18.65c-.8.54-1.62.81-2.45.83-.83.02-1.63-.19-2.38-.63-.75-.44-1.42-1.1-1.99-1.97l-.1-.14c-.58-.87-.93-1.74-1.05-2.61-.12-.87-.02-1.67.29-2.41.31-.74.81-1.34,1.52-1.81.67-.45,1.3-.75,1.87-.91.57-.15,1.11-.21,1.62-.17l1.17,1.74-.96.64-.96-1.17c-.28,0-.58.06-.9.19-.33.12-.68.31-1.06.57-.5.33-.84.77-1.05,1.32-.21.55-.25,1.15-.15,1.82.11.66.39,1.33.84,2.01l.11.15c.46.69.96,1.22,1.52,1.59.55.37,1.13.56,1.72.57.59,0,1.19-.18,1.77-.57.39-.27.71-.52.93-.77.23-.25.41-.5.55-.75l-1.36-2.03-1.7,1.04-.58-.86,2.83-1.88,2.23,3.35c-.1.4-.31.85-.65,1.36-.34.51-.88,1.01-1.63,1.51Z"/>
      <path class="cls-3" d="M30.94,16.01l-.34-.83.67-.39-.19-10.06,1.11-.46,6.86,7.33.75-.19.34.84-2.76,1.13-.34-.83.67-.43-1.36-1.51-3.85,1.57.07,2.04.78-.17.34.84-2.75,1.13ZM32.46,10.93l3.05-1.25-3.02-3.33-.17-.19-.04.02v.25s.17,4.5.17,4.5Z"/>
      <path class="cls-1" d="M30.94,16.01l-.34-.83.67-.39-.19-10.06,1.11-.46,6.86,7.33.75-.19.34.84-2.76,1.13-.34-.83.67-.43-1.36-1.51-3.85,1.57.07,2.04.78-.17.34.84-2.75,1.13ZM32.46,10.93l3.05-1.25-3.02-3.33-.17-.19-.04.02v.25s.17,4.5.17,4.5Z"/>
      <path class="cls-3" d="M40.9,12.08l-.17-.88,1.11-.41-1.51-8.05-1.18.02-.17-.88,4.55-.86c.74-.14,1.39-.14,1.95-.02.56.13,1,.38,1.35.75.35.37.58.86.69,1.47.11.59.08,1.13-.1,1.58-.19.46-.5.83-.93,1.13-.44.29-.98.51-1.64.65l-2.28.47.65,3.48,1.18-.02.17.89-3.67.69ZM42.36,5.96l1.89-.36c.77-.14,1.3-.4,1.6-.76.3-.36.39-.82.28-1.39-.1-.54-.35-.93-.75-1.18-.39-.25-.95-.31-1.65-.17l-2.03.38.65,3.49ZM47.64,10.81l-3.23-4.67,1.38-.27,2.66,3.73h.73s.17.9.17.9l-1.7.32Z"/>
      <path class="cls-1" d="M40.9,12.08l-.17-.88,1.11-.41-1.51-8.05-1.18.02-.17-.88,4.55-.86c.74-.14,1.39-.14,1.95-.02.56.13,1,.38,1.35.75.35.37.58.86.69,1.47.11.59.08,1.13-.1,1.58-.19.46-.5.83-.93,1.13-.44.29-.98.51-1.64.65l-2.28.47.65,3.48,1.18-.02.17.89-3.67.69ZM42.36,5.96l1.89-.36c.77-.14,1.3-.4,1.6-.76.3-.36.39-.82.28-1.39-.1-.54-.35-.93-.75-1.18-.39-.25-.95-.31-1.65-.17l-2.03.38.65,3.49ZM47.64,10.81l-3.23-4.67,1.38-.27,2.66,3.73h.73s.17.9.17.9l-1.7.32Z"/>
      <path class="cls-3" d="M58.08,10.72c-.63-.05-1.23-.19-1.8-.42-.57-.23-1.1-.56-1.61-.99l.17-2.21,1.09.08.11,1.65c.29.21.61.39.97.52.35.13.74.21,1.15.25.48.04.88,0,1.23-.12.34-.12.61-.31.8-.54.19-.24.31-.53.33-.88.03-.32-.03-.61-.16-.86-.13-.26-.37-.49-.7-.7-.33-.21-.8-.41-1.39-.59-.7-.22-1.28-.49-1.76-.8-.47-.32-.81-.68-1.03-1.1s-.32-.88-.28-1.39c.04-.54.23-1.01.55-1.42.32-.4.75-.71,1.28-.92s1.14-.29,1.82-.23c.73.05,1.36.21,1.9.48.54.26.98.57,1.31.9l-.16,2.07-1.09-.08-.12-1.5c-.2-.19-.46-.35-.76-.49-.31-.14-.7-.23-1.17-.26-.4-.03-.76.01-1.07.13-.31.11-.56.29-.76.53-.19.24-.29.53-.33.87-.02.3.04.57.17.8.13.23.37.45.71.65.34.19.79.38,1.36.58,1.07.35,1.86.82,2.39,1.39.52.57.75,1.25.69,2.03-.05.55-.23,1.03-.56,1.44-.33.4-.78.71-1.34.91-.56.2-1.21.27-1.95.21"/>
      <path class="cls-1" d="M58.08,10.72c-.63-.05-1.23-.19-1.8-.42-.57-.23-1.1-.56-1.61-.99l.17-2.21,1.09.08.11,1.65c.29.21.61.39.97.52.35.13.74.21,1.15.25.48.04.88,0,1.23-.12.34-.12.61-.31.8-.54.19-.24.31-.53.33-.88.03-.32-.03-.61-.16-.86-.13-.26-.37-.49-.7-.7-.33-.21-.8-.41-1.39-.59-.7-.22-1.28-.49-1.76-.8-.47-.32-.81-.68-1.03-1.1s-.32-.88-.28-1.39c.04-.54.23-1.01.55-1.42.32-.4.75-.71,1.28-.92s1.14-.29,1.82-.23c.73.05,1.36.21,1.9.48.54.26.98.57,1.31.9l-.16,2.07-1.09-.08-.12-1.5c-.2-.19-.46-.35-.76-.49-.31-.14-.7-.23-1.17-.26-.4-.03-.76.01-1.07.13-.31.11-.56.29-.76.53-.19.24-.29.53-.33.87-.02.3.04.57.17.8.13.23.37.45.71.65.34.19.79.38,1.36.58,1.07.35,1.86.82,2.39,1.39.52.57.75,1.25.69,2.03-.05.55-.23,1.03-.56,1.44-.33.4-.78.71-1.34.91-.56.2-1.21.27-1.95.21Z"/>
      <polygon class="cls-3" points="62.8 11 63.03 10.13 64.2 10.23 66.27 2.31 65.19 1.82 65.42 .94 72.86 2.88 72.24 5.3 71.14 5.01 71.35 3.61 67.63 2.64 66.78 5.91 70.49 6.88 70.21 7.95 66.5 6.98 65.55 10.62 69.49 11.65 70 10.3 71.09 10.58 70.46 12.99 62.8 11"/>
      <polygon class="cls-1" points="62.8 11 63.03 10.13 64.2 10.23 66.27 2.31 65.19 1.82 65.42 .94 72.86 2.88 72.24 5.3 71.14 5.01 71.35 3.61 67.63 2.64 66.78 5.91 70.49 6.88 70.21 7.95 66.5 6.98 65.55 10.62 69.49 11.65 70 10.3 71.09 10.58 70.46 12.99 62.8 11"/>
      <path class="cls-3" d="M75.77,15.5c-.87-.41-1.53-.97-1.98-1.67s-.67-1.49-.68-2.37c-.01-.88.21-1.78.65-2.72l.08-.15c.44-.94,1.01-1.69,1.69-2.24.68-.55,1.42-.88,2.21-1,.79-.12,1.57,0,2.33.37.73.34,1.32.72,1.75,1.13s.76.84.99,1.29l-.89,1.9-1.05-.49.51-1.43c-.15-.23-.36-.46-.63-.68s-.61-.42-1.03-.61c-.54-.25-1.09-.33-1.67-.22-.57.11-1.12.38-1.63.82-.51.43-.94,1.02-1.29,1.76l-.08.17c-.35.75-.54,1.46-.57,2.13-.04.66.1,1.26.4,1.77.3.52.76.92,1.4,1.22.43.21.81.34,1.15.4.33.06.64.09.93.08l1.04-2.21-1.78-.91.44-.94,3.07,1.44-1.71,3.65c-.4.13-.9.18-1.5.15-.6-.03-1.32-.23-2.13-.62"/>
      <path class="cls-1" d="M75.77,15.5c-.87-.41-1.53-.97-1.98-1.67s-.67-1.49-.68-2.37c-.01-.88.21-1.78.65-2.72l.08-.15c.44-.94,1.01-1.69,1.69-2.24.68-.55,1.42-.88,2.21-1,.79-.12,1.57,0,2.33.37.73.34,1.32.72,1.75,1.13s.76.84.99,1.29l-.89,1.9-1.05-.49.51-1.43c-.15-.23-.36-.46-.63-.68s-.61-.42-1.03-.61c-.54-.25-1.09-.33-1.67-.22-.57.11-1.12.38-1.63.82-.51.43-.94,1.02-1.29,1.76l-.08.17c-.35.75-.54,1.46-.57,2.13-.04.66.1,1.26.4,1.77.3.52.76.92,1.4,1.22.43.21.81.34,1.15.4.33.06.64.09.93.08l1.04-2.21-1.78-.91.44-.94,3.07,1.44-1.71,3.65c-.4.13-.9.18-1.5.15-.6-.03-1.32-.23-2.13-.62Z"/>
      <path class="cls-3" d="M83.79,20.35c-.58-.43-1-.92-1.28-1.48-.28-.56-.4-1.15-.35-1.76.05-.61.29-1.21.73-1.8l3.54-4.76-.81-.86.54-.73,3,2.23-.54.73-1.05-.54-3.54,4.76c-.31.42-.49.83-.55,1.23-.05.4.02.78.19,1.13.18.35.45.67.82.94.38.28.76.46,1.15.53.39.07.77.03,1.15-.13.37-.16.72-.45,1.03-.87l3.54-4.77-.82-.85.54-.73,2.99,2.22-.54.73-1.05-.53-3.54,4.77c-.45.6-.96,1.02-1.52,1.25-.57.23-1.15.28-1.77.15-.62-.13-1.24-.42-1.85-.87"/>
      <path class="cls-1" d="M83.79,20.35c-.58-.43-1-.92-1.28-1.48-.28-.56-.4-1.15-.35-1.76.05-.61.29-1.21.73-1.8l3.54-4.76-.81-.86.54-.73,3,2.23-.54.73-1.05-.54-3.54,4.76c-.31.42-.49.83-.55,1.23-.05.4.02.78.19,1.13.18.35.45.67.82.94.38.28.76.46,1.15.53.39.07.77.03,1.15-.13.37-.16.72-.45,1.03-.87l3.54-4.77-.82-.85.54-.73,2.99,2.22-.54.73-1.05-.53-3.54,4.77c-.45.6-.96,1.02-1.52,1.25-.57.23-1.15.28-1.77.15-.62-.13-1.24-.42-1.85-.87Z"/>
      <path class="cls-3" d="M88.4,23.75l.67-.6.92.73,6.11-5.45-.63-1,.67-.6,3.08,3.45c.5.57.84,1.12,1.02,1.66.18.54.2,1.05.06,1.54-.14.49-.44.94-.9,1.35-.46.4-.92.65-1.41.72-.48.08-.97.01-1.45-.21-.48-.22-.95-.57-1.41-1.06l-1.57-1.71-2.64,2.36.62,1-.67.6-2.49-2.79ZM92.97,28.87l2.33-5.18.94,1.04-1.82,4.2.39.62-.69.61-1.15-1.29ZM94.4,21.84l1.28,1.44c.52.58,1.01.91,1.47.98.46.07.91-.09,1.34-.48.41-.36.62-.78.63-1.24.01-.47-.22-.98-.7-1.51l-1.37-1.54-2.64,2.36Z"/>
      <path class="cls-1" d="M88.4,23.75l.67-.6.92.73,6.11-5.45-.63-1,.67-.6,3.08,3.45c.5.57.84,1.12,1.02,1.66.18.54.2,1.05.06,1.54-.14.49-.44.94-.9,1.35-.46.4-.92.65-1.41.72-.48.08-.97.01-1.45-.21-.48-.22-.95-.57-1.41-1.06l-1.57-1.71-2.64,2.36.62,1-.67.6-2.49-2.79ZM92.97,28.87l2.33-5.18.94,1.04-1.82,4.2.39.62-.69.61-1.15-1.29ZM94.4,21.84l1.28,1.44c.52.58,1.01.91,1.47.98.46.07.91-.09,1.34-.48.41-.36.62-.78.63-1.24.01-.47-.22-.98-.7-1.51l-1.37-1.54-2.64,2.36Z"/>
      <path class="cls-3" d="M96.81,34.78c-.34-.57-.54-1.16-.59-1.75-.05-.59.03-1.16.24-1.72.21-.56.55-1.09,1-1.58.46-.5,1.02-.95,1.68-1.34l.13-.08c.66-.4,1.32-.67,1.97-.82.66-.16,1.28-.2,1.88-.12.59.08,1.14.29,1.63.61.5.33.91.78,1.25,1.36.36.61.57,1.22.62,1.81.06.59-.03,1.16-.25,1.72-.22.55-.56,1.07-1.02,1.56-.46.49-1.02.93-1.69,1.32l-.13.07c-.67.4-1.32.68-1.97.84-.64.17-1.26.21-1.85.14-.59-.07-1.13-.28-1.63-.61-.49-.33-.92-.8-1.28-1.41M97.81,34.18c.35.6.79.99,1.3,1.18.51.19,1.08.22,1.72.08.63-.14,1.3-.42,2-.83l.14-.09c.7-.41,1.26-.86,1.68-1.34.42-.49.67-1,.75-1.55.08-.54-.06-1.11-.4-1.69-.32-.54-.74-.9-1.26-1.1-.52-.19-1.1-.23-1.74-.11-.64.12-1.3.38-2,.79l-.14.08c-.7.42-1.25.87-1.67,1.38-.42.5-.66,1.03-.74,1.58-.08.55.04,1.09.36,1.63"/>
      <path class="cls-1" d="M96.81,34.78c-.34-.57-.54-1.16-.59-1.75-.05-.59.03-1.16.24-1.72.21-.56.55-1.09,1-1.58.46-.5,1.02-.95,1.68-1.34l.13-.08c.66-.4,1.32-.67,1.97-.82.66-.16,1.28-.2,1.88-.12.59.08,1.14.29,1.63.61.5.33.91.78,1.25,1.36.36.61.57,1.22.62,1.81.06.59-.03,1.16-.25,1.72-.22.55-.56,1.07-1.02,1.56-.46.49-1.02.93-1.69,1.32l-.13.07c-.67.4-1.32.68-1.97.84-.64.17-1.26.21-1.85.14-.59-.07-1.13-.28-1.63-.61-.49-.33-.92-.8-1.28-1.41ZM97.81,34.18c.35.6.79.99,1.3,1.18.51.19,1.08.22,1.72.08.63-.14,1.3-.42,2-.83l.14-.09c.7-.41,1.26-.86,1.68-1.34.42-.49.67-1,.75-1.55.08-.54-.06-1.11-.4-1.69-.32-.54-.74-.9-1.26-1.1-.52-.19-1.1-.23-1.74-.11-.64.12-1.3.38-2,.79l-.14.08c-.7.42-1.25.87-1.67,1.38-.42.5-.66,1.03-.74,1.58-.08.55.04,1.09.36,1.63Z"/>
      <polygon class="cls-3" points="7.98 101.88 8.7 101.31 9.6 102.1 11.73 100.4 14.12 94.32 13.68 93.55 14.4 92.97 16.68 95.82 15.96 96.4 15.1 95.54 13.26 99.89 13.13 100.19 13.15 100.18 13.45 100.13 18.16 99.37 17.48 98.31 18.21 97.73 20.44 100.53 19.72 101.1 19.04 100.46 12.7 101.44 10.48 103.21 11.07 104.27 10.35 104.84 7.98 101.88"/>
      <polygon class="cls-2" points="7.98 101.88 8.7 101.31 9.6 102.1 11.73 100.4 14.12 94.32 13.68 93.55 14.4 92.97 16.68 95.82 15.96 96.4 15.1 95.54 13.26 99.89 13.13 100.19 13.15 100.18 13.45 100.13 18.16 99.37 17.48 98.31 18.21 97.73 20.44 100.53 19.72 101.1 19.04 100.46 12.7 101.44 10.48 103.21 11.07 104.27 10.35 104.84 7.98 101.88"/>
      <path class="cls-3" d="M17.89,112.35l.52-.75,1.09.51,4.79-6.81-.85-.84.53-.76.96.68,3.01,2.11c.62.44,1.07.92,1.35,1.44.29.52.4,1.05.36,1.61-.04.55-.25,1.08-.61,1.6-.36.53-.8.9-1.3,1.13-.5.23-1.05.29-1.63.2-.59-.09-1.19-.35-1.81-.79l-1.83-1.29-1.8,2.55.85.85-.52.75-3.1-2.18ZM23.11,109.47l1.84,1.29c.58.42,1.13.57,1.65.45.52-.11.94-.4,1.28-.88.33-.48.47-.98.4-1.51-.06-.52-.39-.99-.98-1.41l-1.83-1.29-2.35,3.34Z"/>
      <path class="cls-2" d="M17.89,112.35l.52-.75,1.09.51,4.79-6.81-.85-.84.53-.76.96.68,3.01,2.11c.62.44,1.07.92,1.35,1.44.29.52.4,1.05.36,1.61-.04.55-.25,1.08-.61,1.6-.36.53-.8.9-1.3,1.13-.5.23-1.05.29-1.63.2-.59-.09-1.19-.35-1.81-.79l-1.83-1.29-1.8,2.55.85.85-.52.75-3.1-2.18ZM23.11,109.47l1.84,1.29c.58.42,1.13.57,1.65.45.52-.11.94-.4,1.28-.88.33-.48.47-.98.4-1.51-.06-.52-.39-.99-.98-1.41l-1.83-1.29-2.35,3.34Z"/>
      <path class="cls-3" d="M27.21,118.59l.37-.84,1.16.29,3.36-7.62-1-.66.36-.84,4.31,1.9c.7.31,1.25.67,1.64,1.1.39.42.63.89.7,1.4.08.51,0,1.05-.26,1.63-.25.57-.58.99-1,1.26-.42.28-.89.41-1.43.41s-1.12-.13-1.75-.39l-2.18-.91-1.46,3.29,1,.66-.36.84-3.48-1.53ZM31.96,114.3l1.79.79c.73.33,1.32.42,1.78.29.46-.13.8-.46,1.04-1,.22-.51.24-.98.05-1.42-.19-.44-.61-.8-1.28-1.1l-1.92-.84-1.46,3.29ZM33.6,121.41l-.02-5.78,1.31.57.09,4.65.61.42-.38.86-1.61-.71Z"/>
      <path class="cls-2" d="M27.21,118.59l.37-.84,1.16.29,3.36-7.62-1-.66.36-.84,4.31,1.9c.7.31,1.25.67,1.64,1.1.39.42.63.89.7,1.4.08.51,0,1.05-.26,1.63-.25.57-.58.99-1,1.26-.42.28-.89.41-1.43.41s-1.12-.13-1.75-.39l-2.18-.91-1.46,3.29,1,.66-.36.84-3.48-1.53ZM31.96,114.3l1.79.79c.73.33,1.32.42,1.78.29.46-.13.8-.46,1.04-1,.22-.51.24-.98.05-1.42-.19-.44-.61-.8-1.28-1.1l-1.92-.84-1.46,3.29ZM33.6,121.41l-.02-5.78,1.31.57.09,4.65.61.42-.38.86-1.61-.71Z"/>
      <path class="cls-3" d="M42.44,124.16c-.67-.14-1.24-.4-1.72-.77-.48-.37-.84-.82-1.11-1.37-.27-.55-.44-1.17-.5-1.84-.06-.69,0-1.41.17-2.18l.03-.15c.16-.77.41-1.45.75-2.05.34-.6.74-1.09,1.22-1.48.47-.39,1-.65,1.58-.8.59-.13,1.21-.13,1.88,0,.7.15,1.3.41,1.77.79.48.37.85.83,1.11,1.37.26.55.41,1.17.46,1.85.05.68-.02,1.4-.18,2.16l-.03.15c-.17.77-.41,1.45-.74,2.05-.32.59-.71,1.09-1.18,1.48s-.99.65-1.58.8c-.59.13-1.23.13-1.93-.03M42.68,123c.69.15,1.28.1,1.78-.15.5-.25.91-.66,1.24-1.23.33-.56.59-1.26.77-2.07l.03-.16c.18-.81.23-1.53.16-2.18-.07-.65-.28-1.2-.63-1.63-.35-.44-.87-.73-1.55-.87-.62-.13-1.18-.08-1.69.17-.51.25-.94.66-1.29,1.22-.35.56-.62,1.24-.79,2.03l-.03.17c-.18.8-.22,1.54-.13,2.2.1.66.32,1.21.67,1.65.35.44.84.72,1.46.85"/>
      <path class="cls-2" d="M42.44,124.16c-.67-.14-1.24-.4-1.72-.77-.48-.37-.84-.82-1.11-1.37-.27-.55-.44-1.17-.5-1.84-.06-.69,0-1.41.17-2.18l.03-.15c.16-.77.41-1.45.75-2.05.34-.6.74-1.09,1.22-1.48.47-.39,1-.65,1.58-.8.59-.13,1.21-.13,1.88,0,.7.15,1.3.41,1.77.79.48.37.85.83,1.11,1.37.26.55.41,1.17.46,1.85.05.68-.02,1.4-.18,2.16l-.03.15c-.17.77-.41,1.45-.74,2.05-.32.59-.71,1.09-1.18,1.48s-.99.65-1.58.8c-.59.13-1.23.13-1.93-.03ZM42.68,123c.69.15,1.28.1,1.78-.15.5-.25.91-.66,1.24-1.23.33-.56.59-1.26.77-2.07l.03-.16c.18-.81.23-1.53.16-2.18-.07-.65-.28-1.2-.63-1.63-.35-.44-.87-.73-1.55-.87-.62-.13-1.18-.08-1.69.17-.51.25-.94.66-1.29,1.22-.35.56-.62,1.24-.79,2.03l-.03.17c-.18.8-.22,1.54-.13,2.2.1.66.32,1.21.67,1.65.35.44.84.72,1.46.85Z"/>
      <polygon class="cls-3" points="51.99 125.31 52.01 124.4 53.2 124.22 53.36 115.85 50.96 115.8 50.73 117.27 49.65 117.24 49.7 114.7 58.48 114.86 58.43 117.41 57.37 117.39 57.18 115.92 54.79 115.88 54.63 124.24 55.81 124.47 55.79 125.39 51.99 125.31"/>
      <polygon class="cls-2" points="51.99 125.31 52.01 124.4 53.2 124.22 53.36 115.85 50.96 115.8 50.73 117.27 49.65 117.24 49.7 114.7 58.48 114.86 58.43 117.41 57.37 117.39 57.18 115.92 54.79 115.88 54.63 124.24 55.81 124.47 55.79 125.39 51.99 125.31"/>
      <polygon class="cls-3" points="61.48 125.15 61.32 124.25 62.44 123.84 60.94 115.65 59.74 115.66 59.57 114.76 67.27 113.34 67.73 115.84 66.6 116.05 66.18 114.66 62.34 115.37 62.96 118.75 66.8 118.05 67 119.15 63.17 119.86 63.86 123.62 67.93 122.88 67.83 121.41 68.94 121.2 69.4 123.7 61.48 125.15"/>
      <polygon class="cls-2" points="61.48 125.15 61.32 124.25 62.44 123.84 60.94 115.65 59.74 115.66 59.57 114.76 67.27 113.34 67.73 115.84 66.6 116.05 66.18 114.66 62.34 115.37 62.96 118.75 66.8 118.05 67 119.15 63.17 119.86 63.86 123.62 67.93 122.88 67.83 121.41 68.94 121.2 69.4 123.7 61.48 125.15"/>
      <path class="cls-3" d="M76.96,121.24c-.91.36-1.78.46-2.61.31-.83-.16-1.57-.54-2.23-1.15-.65-.61-1.18-1.4-1.57-2.38l-.06-.16c-.39-.99-.55-1.93-.48-2.82.06-.89.33-1.67.8-2.34.46-.67,1.1-1.16,1.9-1.48.77-.31,1.46-.47,2.05-.51.6-.04,1.15.02,1.65.17l.79,1.98-1.09.43-.7-1.37c-.28-.06-.59-.06-.94,0-.35.05-.75.17-1.18.34-.56.22-1.01.59-1.33,1.09-.32.5-.5,1.09-.53,1.77-.04.68.1,1.41.4,2.18l.07.18c.31.79.7,1.42,1.17,1.91.47.49,1,.8,1.59.94.59.14,1.22.08,1.88-.18.44-.18.81-.37,1.09-.57.28-.2.51-.41.71-.63l-.92-2.31-1.91.67-.38-.98,3.21-1.27,1.5,3.8c-.17.38-.49.79-.93,1.21-.44.43-1.09.81-1.95,1.15"/>
      <path class="cls-2" d="M76.96,121.24c-.91.36-1.78.46-2.61.31-.83-.16-1.57-.54-2.23-1.15-.65-.61-1.18-1.4-1.57-2.38l-.06-.16c-.39-.99-.55-1.93-.48-2.82.06-.89.33-1.67.8-2.34.46-.67,1.1-1.16,1.9-1.48.77-.31,1.46-.47,2.05-.51.6-.04,1.15.02,1.65.17l.79,1.98-1.09.43-.7-1.37c-.28-.06-.59-.06-.94,0-.35.05-.75.17-1.18.34-.56.22-1.01.59-1.33,1.09-.32.5-.5,1.09-.53,1.77-.04.68.1,1.41.4,2.18l.07.18c.31.79.7,1.42,1.17,1.91.47.49,1,.8,1.59.94.59.14,1.22.08,1.88-.18.44-.18.81-.37,1.09-.57.28-.2.51-.41.71-.63l-.92-2.31-1.91.67-.38-.98,3.21-1.27,1.5,3.8c-.17.38-.49.79-.93,1.21-.44.43-1.09.81-1.95,1.15Z"/>
      <polygon class="cls-3" points="82.85 118.33 82.38 117.54 83.3 116.77 79.11 109.58 77.98 110 77.51 109.21 80.79 107.29 81.26 108.09 80.34 108.86 84.54 116.05 85.66 115.63 86.12 116.42 82.85 118.33"/>
      <polygon class="cls-2" points="82.85 118.33 82.38 117.54 83.3 116.77 79.11 109.58 77.98 110 77.51 109.21 80.79 107.29 81.26 108.09 80.34 108.86 84.54 116.05 85.66 115.63 86.12 116.42 82.85 118.33"/>
      <path class="cls-3" d="M88.49,115.02l-.58-.71.79-.91-5.24-6.47-1.05.58-.58-.71.92-.75,2.3-1.86c.73-.59,1.5-.93,2.32-1.02.82-.09,1.63.04,2.42.4.79.36,1.5.93,2.13,1.71l.14.18c.61.76,1.03,1.55,1.23,2.39.2.85.18,1.66-.07,2.44-.25.79-.73,1.47-1.46,2.06l-3.27,2.65ZM89.81,112.5l1.18-.96c.52-.42.85-.92,1-1.51.14-.58.12-1.19-.07-1.84-.18-.64-.51-1.25-.98-1.83l-.15-.18c-.48-.6-1.01-1.05-1.6-1.37-.58-.31-1.18-.45-1.77-.42-.59.03-1.15.25-1.67.67l-1.19.96,5.25,6.47Z"/>
      <path class="cls-2" d="M88.49,115.02l-.58-.71.79-.91-5.24-6.47-1.05.58-.58-.71.92-.75,2.3-1.86c.73-.59,1.5-.93,2.32-1.02.82-.09,1.63.04,2.42.4.79.36,1.5.93,2.13,1.71l.14.18c.61.76,1.03,1.55,1.23,2.39.2.85.18,1.66-.07,2.44-.25.79-.73,1.47-1.46,2.06l-3.27,2.65ZM89.81,112.5l1.18-.96c.52-.42.85-.92,1-1.51.14-.58.12-1.19-.07-1.84-.18-.64-.51-1.25-.98-1.83l-.15-.18c-.48-.6-1.01-1.05-1.6-1.37-.58-.31-1.18-.45-1.77-.42-.59.03-1.15.25-1.67.67l-1.19.96,5.25,6.47Z"/>
      <path class="cls-3" d="M100.5,103.9c-.43.53-.92.92-1.46,1.17-.55.25-1.12.38-1.73.37-.61,0-1.23-.14-1.86-.4-.63-.25-1.26-.63-1.87-1.13l-.11-.1c-.61-.5-1.1-1.03-1.48-1.6-.38-.57-.64-1.15-.77-1.75-.13-.6-.13-1.19.02-1.78.14-.58.43-1.14.86-1.67.46-.56.96-.96,1.51-1.22s1.13-.38,1.73-.36c.6.02,1.22.16,1.85.42.63.27,1.25.65,1.85,1.15l.12.1c.61.5,1.11,1.03,1.49,1.59.39.56.65,1.14.79,1.72.14.59.13,1.17-.01,1.76-.15.59-.44,1.17-.9,1.72M99.58,103.14c.44-.54.67-1.09.67-1.65,0-.56-.17-1.11-.53-1.66-.35-.56-.85-1.1-1.49-1.62l-.13-.11c-.63-.52-1.26-.9-1.88-1.13-.61-.23-1.19-.3-1.73-.18-.55.11-1.04.44-1.48.98-.4.49-.6,1.02-.61,1.58,0,.57.16,1.13.5,1.7.34.57.82,1.11,1.46,1.63l.13.11c.64.52,1.26.89,1.9,1.11.63.22,1.22.27,1.77.15.55-.12,1.03-.42,1.43-.92"/>
      <path class="cls-2" d="M100.5,103.9c-.43.53-.92.92-1.46,1.17-.55.25-1.12.38-1.73.37-.61,0-1.23-.14-1.86-.4-.63-.25-1.26-.63-1.87-1.13l-.11-.1c-.61-.5-1.1-1.03-1.48-1.6-.38-.57-.64-1.15-.77-1.75-.13-.6-.13-1.19.02-1.78.14-.58.43-1.14.86-1.67.46-.56.96-.96,1.51-1.22s1.13-.38,1.73-.36c.6.02,1.22.16,1.85.42.63.27,1.25.65,1.85,1.15l.12.1c.61.5,1.11,1.03,1.49,1.59.39.56.65,1.14.79,1.72.14.59.13,1.17-.01,1.76-.15.59-.44,1.17-.9,1.72ZM99.58,103.14c.44-.54.67-1.09.67-1.65,0-.56-.17-1.11-.53-1.66-.35-.56-.85-1.1-1.49-1.62l-.13-.11c-.63-.52-1.26-.9-1.88-1.13-.61-.23-1.19-.3-1.73-.18-.55.11-1.04.44-1.48.98-.4.49-.6,1.02-.61,1.58,0,.57.16,1.13.5,1.7.34.57.82,1.11,1.46,1.63l.13.11c.64.52,1.26.89,1.9,1.11.63.22,1.22.27,1.77.15.55-.12,1.03-.42,1.43-.92Z"/>
      <path class="cls-4" d="M74.62,63.87c-.83,0-1.5.67-1.5,1.5v22.43h-37.12v-22.43c0-.83-.67-1.5-1.5-1.5s-1.5.67-1.5,1.5v23.93c0,.83.67,1.5,1.5,1.5h40.12c.82,0,1.5-.67,1.5-1.5v-23.93c0-.83-.67-1.5-1.5-1.5"/>
      <path class="cls-4" d="M60.17,61.84c.79,0,1.49.3,1.98.85.82.92,1.13,1.87.99,3-.31,2.48-2.74,5.16-4.87,6.59-.87.59-1.97,1.11-3.16,1.51-1.19-.4-2.28-.92-3.16-1.51-2.13-1.43-4.56-4.11-4.87-6.59-.14-1.13.17-2.08.99-3,.49-.55,1.19-.85,1.98-.85,1.07,0,2.16.54,3.07,1.51l1.98,2.12,1.98-2.12c.91-.97,2-1.51,3.07-1.51M60.17,59.12c-1.71,0-3.54.75-5.06,2.37-1.51-1.61-3.35-2.37-5.06-2.37-1.55,0-2.99.61-4.01,1.76-4.21,4.73.16,10.79,4.39,13.65,1.39.94,3.06,1.65,4.67,2.1,1.61-.45,3.29-1.16,4.67-2.1,4.23-2.86,8.6-8.93,4.39-13.65-1.02-1.15-2.47-1.76-4.01-1.76"/>
      <path class="cls-4" d="M85.77,62.67l-13.54-12.98v-11.88c0-.89-.71-1.61-1.6-1.61s-1.61.72-1.61,1.61v8.8l-.34-.33-12.91-12.37c-.67-.64-1.72-.64-2.39,0l-30.02,28.76c-.69.66-.71,1.76-.05,2.44.32.33.75.52,1.21.53h.04c.44,0,.87-.17,1.19-.48l28.82-27.62.14.13,28.67,27.48c.67.64,1.81.62,2.45-.05.32-.33.49-.77.48-1.23,0-.46-.2-.89-.53-1.21"/>
    </g>
  </g>
</svg>