<?xml version="1.0" encoding="UTF-8"?>
<svg id="Layer_2" data-name="Layer 2" xmlns="http://www.w3.org/2000/svg" viewBox="0 0 126.36 126.98">
  <defs>
    <style>
      .cls-1 {
        fill: #79868f;
      }

      .cls-2 {
        fill: #5aba47;
      }
    </style>
  </defs>
  <g id="Layer_1-2" data-name="Layer 1">
    <g>
      <g>
        <path class="cls-1" d="M12.01,99.62l-1.69-2.97.51-.29.4.6c.06.08.12.13.2.14.08.01.15,0,.2-.03l6.48-3.69-8.83,1.45-.33-.59,5.69-6.7-6.37,3.63c-.06.03-.1.09-.13.16-.03.07-.02.15.02.24l.34.7-.51.29-1.45-2.54.5-.29.43.65c.06.08.12.12.2.13.08,0,.14,0,.2-.03l6.27-3.57c.06-.03.1-.08.14-.16.03-.07.03-.15-.02-.24l-.34-.7.51-.29,1.5,2.63-.32.18-4.56,5.42,6.95-1.14.35-.2,1.54,2.7-.5.29-.41-.61c-.05-.08-.12-.13-.2-.14-.08-.01-.15,0-.21.03l-6.27,3.57c-.06.03-.1.09-.13.16-.03.08-.02.16.02.25l.32.66-.51.29Z"/>
        <path class="cls-1" d="M17.56,106.35l-4.45-5.42.45-.37.49.51c.07.07.14.1.22.1.08,0,.15-.02.2-.06l5.58-4.58c.05-.04.08-.1.1-.18s0-.16-.06-.24l-.4-.58.45-.37,4.17,5.08-1.56,1.28-.52-.63.73-.86s.08-.1.09-.18c.01-.07,0-.13-.04-.18l-1.86-2.27-2.6,2.14,1.29,1.57s.1.08.17.08c.07,0,.13,0,.17-.04l.81-.48.44.53-2.33,1.91-.44-.53.64-.7s.06-.08.07-.16c.01-.08,0-.14-.04-.18l-1.29-1.57-2.88,2.36,2.17,2.65s.1.06.18.06c.08,0,.14-.02.18-.04l1.19-.66.46.56-1.75,1.43Z"/>
        <path class="cls-1" d="M28.67,105.26l-.61-.5c-.07-.06-.15-.08-.22-.07s-.14.04-.19.09l-3.25,3.42c-.52.54-1.03.95-1.54,1.21s-1.03.35-1.55.27c-.52-.09-1.04-.38-1.57-.88-.21-.2-.39-.42-.55-.65s-.28-.43-.36-.6c-.09-.17-.14-.27-.15-.29l1.59-1.68.59.56-.92,1.4c-.07.12-.08.24-.03.36.06.12.14.23.24.32.45.42.93.55,1.45.39.52-.17,1.1-.59,1.76-1.28l3.32-3.49s.07-.11.08-.19c0-.08-.02-.15-.09-.22l-.58-.62.4-.42,2.59,2.46-.4.42Z"/>
        <path class="cls-1" d="M33.79,113.94c-.38.53-.82.97-1.33,1.32-.5.35-1.04.58-1.61.71-.57.13-1.15.14-1.73.02-.58-.11-1.14-.36-1.68-.75-.72-.52-1.23-1.13-1.53-1.86-.3-.72-.39-1.49-.27-2.29.12-.8.44-1.57.96-2.31.38-.54.82-.98,1.33-1.33.5-.35,1.03-.59,1.6-.72.57-.13,1.15-.14,1.73-.02.58.12,1.15.37,1.7.76.55.39.97.84,1.26,1.36.3.52.48,1.06.54,1.65.06.58,0,1.17-.15,1.76-.16.59-.44,1.15-.82,1.69ZM32.51,113.05c.43-.6.73-1.21.91-1.82.18-.62.2-1.19.07-1.73-.13-.54-.46-.99-.97-1.36-.53-.38-1.07-.54-1.63-.49-.56.05-1.09.26-1.61.63-.52.37-.99.85-1.4,1.43-.42.59-.72,1.19-.91,1.81-.19.62-.22,1.2-.08,1.74.13.54.45,1,.97,1.37.53.38,1.07.54,1.63.49.56-.05,1.1-.27,1.62-.64.52-.37.99-.85,1.4-1.43Z"/>
        <path class="cls-1" d="M40.14,122.24c-.05-.02-.17-.05-.34-.07s-.35-.08-.54-.17c-.41-.21-.71-.44-.88-.7-.17-.26-.27-.53-.29-.82-.02-.29,0-.59.06-.9.06-.31.12-.62.17-.93s.07-.61.04-.91c-.03-.29-.13-.57-.31-.83-.18-.26-.48-.5-.91-.71-.13-.06-.25-.12-.36-.17-.12-.05-.18-.08-.19-.08l-1.37,2.77c-.03.06-.04.13-.02.2.01.08.06.14.15.19l.62.36-.26.52-3.01-1.49.26-.52.65.26c.09.04.17.04.25,0,.07-.03.12-.08.15-.14l3.2-6.47c.03-.06.03-.13.02-.21s-.07-.14-.15-.19l-.6-.36.26-.52,3.16,1.56c.92.45,1.57.97,1.94,1.55.37.58.36,1.27-.04,2.07-.21.42-.48.72-.8.9-.32.18-.67.27-1.05.27-.38,0-.76-.04-1.14-.13.33.28.56.55.69.82s.19.54.19.8c0,.26-.04.52-.1.78-.06.25-.12.5-.18.75-.05.24-.07.48-.05.7.02.22.11.44.27.65.16.21.43.41.81.59l-.27.55ZM40.43,114.96c.25-.52.29-1,.1-1.44-.19-.44-.67-.86-1.44-1.23l-.55-.28-1.65,3.32s.1.05.24.13c.14.07.26.14.35.18.68.33,1.25.46,1.74.39.48-.07.88-.43,1.2-1.08Z"/>
        <path class="cls-1" d="M55.99,126.41l-3.15-.64.12-.57.78.09s.07,0,.11-.05.06-.08.07-.12c0-.02,0-.03,0-.03l-.42-2.61-3.06-.62-1.37,2.21s0,.02-.01.04c-.01.05,0,.11.04.17.03.06.07.09.11.1l.77.22-.12.57-2.67-.54.12-.57h.8s4.79-7.76,4.79-7.76l1,.2,1.41,8.81c.02.1.03.16.05.2.02.04.08.07.17.11l.57.22-.12.57ZM53.38,121.8l-.6-3.74-1.99,3.21,2.59.53Z"/>
        <path class="cls-1" d="M64.91,124.39l-.11,2.19s-.16.05-.43.12-.59.15-1,.21c-.41.06-.84.08-1.3.06-.76-.04-1.42-.2-1.99-.49-.57-.29-1.05-.67-1.43-1.14-.38-.47-.66-.99-.84-1.57-.18-.58-.25-1.18-.22-1.8.05-.93.28-1.74.72-2.44.43-.69,1.01-1.22,1.74-1.58s1.57-.52,2.51-.48c.44.02.86.09,1.26.2.4.11.87.27,1.4.46l-.1,2.12-.81-.04-.14-1.24c-.01-.08-.04-.14-.09-.2s-.09-.1-.13-.12l-.05-.03c-.11-.06-.28-.13-.51-.23s-.49-.15-.8-.16c-.61-.03-1.17.09-1.68.37-.51.28-.92.7-1.23,1.28-.31.58-.49,1.3-.54,2.16-.06,1.26.19,2.26.77,3,.57.74,1.39,1.14,2.46,1.19.32.02.58,0,.78-.07.2-.06.31-.1.32-.1.14-.05.23-.13.27-.26l.38-1.46.79.04Z"/>
        <path class="cls-1" d="M73.39,126.22l-6.99.62-.05-.58.69-.12c.1-.02.17-.06.21-.12s.06-.13.06-.2l-.64-7.19c0-.07-.04-.13-.09-.19s-.13-.09-.23-.08h-.7s-.05-.57-.05-.57l6.55-.58.18,2.01-.81.07-.3-1.09c0-.07-.04-.12-.09-.17-.05-.05-.11-.07-.17-.06l-2.92.26.3,3.36,2.02-.18c.06,0,.11-.04.16-.09.05-.06.07-.11.06-.16l.05-.94.69-.06.27,3.01-.68.06-.22-.92s-.04-.1-.09-.15c-.06-.05-.12-.08-.17-.07l-2.02.18.33,3.71,3.41-.3c.06,0,.11-.04.15-.11.05-.07.07-.12.07-.17l.12-1.36.72-.07.2,2.25Z"/>
        <path class="cls-1" d="M80.2,118.26c.15.65.12,1.21-.09,1.71-.21.49-.55.91-1.01,1.24-.47.33-1.02.57-1.65.71h-.04c-.17.05-.36.08-.58.12s-.34.05-.37.05l.56,2.45c.01.06.05.12.11.17.06.05.14.07.23.05l.88-.15.13.57-3.47.79-.13-.57.69-.21c.09-.03.15-.08.19-.15.04-.07.05-.14.03-.2l-1.6-7.03c-.02-.06-.05-.12-.12-.17s-.14-.07-.24-.05l-.8.13-.13-.57,3.16-.72c1.25-.28,2.21-.29,2.89-.03s1.13.89,1.35,1.86ZM78.84,118.6c-.15-.64-.44-1.1-.88-1.38-.44-.28-1.08-.32-1.92-.13-.12.03-.34.08-.67.16l.95,4.15s.12-.02.3-.03c.18-.02.33-.04.45-.07h.04c.68-.16,1.18-.47,1.5-.91.32-.45.39-1.05.22-1.81Z"/>
        <path class="cls-1" d="M87.73,114.89l-.75.28-.63-1.12c-.08-.13-.18-.18-.29-.14l-1.81.69,2.65,7c.02.06.07.11.13.15.07.04.15.05.24.02l.83-.26.21.54-3.43,1.3-.21-.54.79-.36c.09-.04.14-.1.16-.17.02-.08.02-.14,0-.2l-2.65-7-1.82.69c-.12.05-.17.15-.13.3l.28,1.25-.73.28-.76-2.02,7.17-2.71.76,2.02Z"/>
        <path class="cls-1" d="M98.98,116.57l-2.81,1.57-.29-.51.65-.44s.05-.05.05-.11c0-.05,0-.1-.02-.13,0-.02-.02-.02-.02-.03l-2.02-1.71-2.73,1.53.41,2.57s0,.02.01.04c.03.05.07.08.14.1.06.02.12.02.15,0l.73-.33.29.51-2.37,1.33-.29-.51.61-.53-1.43-9,.89-.5,6.82,5.75c.08.06.13.1.17.12.04.01.11,0,.2-.03l.58-.21.29.51ZM93.99,114.77l-2.89-2.45.59,3.74,2.3-1.29Z"/>
        <path class="cls-1" d="M104.41,109.22l1.35,1.73s-.09.15-.24.37c-.15.23-.36.5-.62.81-.27.31-.58.61-.95.89-.6.46-1.21.77-1.83.93s-1.23.18-1.83.07c-.59-.11-1.15-.32-1.66-.65-.51-.32-.96-.73-1.34-1.22-.57-.74-.92-1.51-1.05-2.31-.12-.81-.03-1.59.29-2.34s.84-1.42,1.59-2c.35-.27.71-.49,1.08-.67.38-.18.83-.36,1.36-.57l1.3,1.67-.64.5-.91-.85c-.06-.05-.13-.08-.2-.09s-.13-.02-.17,0h-.06c-.12.04-.3.09-.53.17-.23.08-.47.21-.72.4-.48.38-.82.83-1.03,1.37s-.24,1.13-.1,1.77c.14.64.47,1.31,1,1.99.77.99,1.62,1.59,2.54,1.78.92.19,1.8-.05,2.64-.7.25-.19.43-.38.54-.56.11-.18.17-.28.18-.29.08-.13.09-.25.04-.37l-.66-1.35.62-.48Z"/>
        <path class="cls-1" d="M109.59,107.63l-2.56,2.49-.41-.42.54-.6c.06-.07.09-.15.08-.22,0-.08-.04-.14-.08-.18l-5.03-5.17s-.11-.08-.18-.09c-.07,0-.15.02-.22.08l-.61.52-.42-.43,2.56-2.49.42.43-.55.61c-.06.07-.09.14-.08.22,0,.08.03.14.08.19l5.03,5.17s.11.08.19.09c.08.01.15-.01.22-.07l.63-.54.41.42Z"/>
        <path class="cls-1" d="M105.71,93.81c.19.15.27.35.24.59l-.27,2.42-.48.6-.5-2.72c-.03-.15-.04-.28-.03-.39,0-.11.07-.24.19-.39.15-.18.3-.27.46-.26.16.01.29.06.4.15ZM112.76,96.84c.51.41.92.88,1.24,1.4.32.52.52,1.07.62,1.64.1.58.07,1.15-.08,1.73-.15.58-.43,1.12-.84,1.64-.55.69-1.2,1.16-1.94,1.42-.74.25-1.51.3-2.3.14-.79-.16-1.54-.52-2.25-1.09-.52-.41-.93-.88-1.25-1.4-.32-.52-.53-1.07-.62-1.64-.1-.58-.07-1.15.08-1.73s.43-1.12.86-1.65c.42-.52.89-.92,1.43-1.18.53-.27,1.09-.42,1.67-.44.58-.03,1.16.06,1.74.25s1.12.5,1.64.91ZM111.79,98.07c-.57-.46-1.16-.8-1.77-1.01-.6-.22-1.18-.27-1.72-.17-.55.1-1.02.4-1.41.89-.41.51-.6,1.04-.59,1.6.02.56.2,1.11.54,1.65.34.54.79,1.03,1.35,1.48.56.45,1.15.79,1.75,1.01.61.22,1.18.28,1.73.18.55-.1,1.02-.4,1.42-.89.41-.51.6-1.04.58-1.6-.02-.56-.2-1.11-.54-1.65-.34-.54-.79-1.04-1.35-1.48Z"/>
        <path class="cls-1" d="M114.24,86.25l-.32.68c-.04.09-.05.17-.02.24.03.07.08.12.14.15l7.12,3.96-.52.92-9.07.71,5.81,3.23c.06.03.12.04.2.03.08-.01.14-.06.2-.14l.42-.65.51.28-1.43,2.56-.51-.28.33-.7c.04-.09.05-.17.02-.25-.03-.07-.07-.13-.13-.16l-6.3-3.51c-.06-.03-.13-.04-.21-.03-.08.01-.15.06-.2.14l-.44.67-.51-.28,1.31-2.34.29.16,8.14-.62-5.43-3.02c-.06-.03-.12-.04-.21-.03-.08.01-.14.06-.19.13l-.42.65-.51-.28,1.41-2.53.51.28Z"/>
      </g>
      <g>
        <path class="cls-1" d="M.69,48.6c.22.04.38.17.48.39l.89,2.18-.13.74-1.69-2.07c-.09-.11-.16-.22-.2-.33-.04-.11-.05-.25-.02-.42.04-.23.13-.37.27-.43.14-.06.27-.08.4-.06ZM4.3,47.36l-.08.76c-.01.09,0,.17.06.22s.11.09.17.1l4.9.88c1.06.19,1.79.61,2.18,1.27.4.65.5,1.52.3,2.6-.19,1.06-.59,1.81-1.2,2.23-.61.43-1.43.55-2.44.37l-4.9-.88c-.06-.01-.13,0-.2.03-.07.03-.11.1-.13.19l-.17.68-.55-.1.59-3.28.55.1-.08.75c-.01.09,0,.17.06.22s.11.09.17.1l4.57.82c.5.09.96.11,1.36.07.4-.05.74-.21,1.01-.48s.46-.71.57-1.31c.11-.6.08-1.07-.09-1.43-.17-.36-.43-.63-.8-.82-.36-.19-.78-.33-1.26-.41l-4.57-.82c-.06-.01-.13,0-.2.04-.07.04-.12.1-.14.19l-.18.73-.55-.1.5-2.8.55.1Z"/>
        <path class="cls-1" d="M7.73,37.43l-.2.7c-.03.09-.02.17.02.23.04.06.09.11.15.13l7.42,2.69-.35.96-8.57,2.08,6.06,2.2c.06.02.13.02.2,0s.13-.08.17-.16l.3-.69.53.19-.97,2.67-.53-.19.21-.72c.02-.09.02-.17-.02-.24-.04-.07-.09-.11-.15-.13l-6.57-2.38c-.06-.02-.13-.02-.2,0-.08.03-.13.08-.17.17l-.31.71-.53-.19.89-2.44.31.11,7.69-1.86-5.66-2.05c-.06-.02-.13-.02-.2,0-.08.02-.13.08-.16.16l-.3.69-.53-.19.96-2.64.53.19Z"/>
        <path class="cls-1" d="M17.44,36.66l-1.58,3.08-.5-.26.31-.72c.04-.09.04-.16,0-.23s-.08-.12-.13-.14l-6.22-3.19c-.06-.03-.12-.04-.19-.02-.07.01-.13.06-.18.14l-.4.67-.51-.26,1.58-3.08.51.26-.32.74c-.04.08-.04.16-.01.23.03.07.07.12.13.15l6.22,3.19c.06.03.12.04.2.02s.14-.06.18-.14l.41-.69.5.26Z"/>
        <path class="cls-1" d="M19.69,28.63l1.77,1.18s-.04.16-.11.42c-.07.26-.18.57-.32.94-.15.37-.35.74-.59,1.11-.41.61-.87,1.08-1.4,1.41-.53.33-1.08.54-1.66.63-.58.08-1.15.06-1.73-.08s-1.11-.38-1.61-.71c-.75-.5-1.31-1.1-1.67-1.8-.36-.7-.51-1.45-.45-2.24.06-.79.34-1.56.85-2.33.24-.36.5-.67.79-.95.29-.27.65-.59,1.08-.94l1.71,1.14-.44.66-1.1-.5c-.07-.03-.14-.03-.21-.03-.07,0-.13.02-.16.05l-.05.03c-.1.06-.25.17-.44.31s-.37.34-.53.59c-.33.5-.5,1.02-.52,1.58s.13,1.11.45,1.66c.32.55.83,1.05,1.53,1.52,1.02.68,1.98.96,2.88.85s1.64-.59,2.22-1.46c.17-.26.28-.48.32-.68.05-.2.07-.31.07-.32.03-.14,0-.26-.08-.35l-1.02-1.04.42-.63Z"/>
        <path class="cls-1" d="M27.7,23.29l-2.1,2.31-.42-.38.46-.6s.03-.06.01-.12c-.01-.05-.03-.09-.06-.12-.01-.01-.02-.02-.03-.02l-2.38-.95-2.04,2.24,1.16,2.24s.01.02.02.03c.04.03.09.05.16.05s.11-.01.14-.04l.57-.53.42.38-1.78,1.95-.42-.38.4-.67-4.07-7.84.66-.73,8.03,3.2c.09.04.15.05.19.05.04,0,.1-.03.18-.09l.47-.37.42.38ZM22.56,23.17l-3.41-1.36,1.68,3.26,1.73-1.89Z"/>
        <path class="cls-1" d="M34.55,10.72c.35.54.51,1.06.49,1.58-.02.52-.19,1.01-.5,1.47-.31.46-.73.86-1.26,1.2l-.03.02c-.14.09-.31.19-.49.29-.18.1-.29.16-.32.17l1.33,2.04c.03.05.09.09.16.12.07.03.15.02.23-.03l.75-.43.31.47-2.89,1.88-.31-.47.55-.42c.08-.06.12-.13.12-.2s0-.14-.04-.2l-3.82-5.86c-.03-.05-.09-.09-.16-.12-.08-.03-.15-.01-.23.03l-.69.39-.31-.47,2.63-1.71c1.04-.68,1.91-1.01,2.62-1,.71.01,1.33.42,1.86,1.23ZM33.41,11.49c-.35-.53-.77-.85-1.26-.96-.49-.1-1.09.07-1.79.53-.1.06-.28.19-.55.37l2.26,3.46s.1-.05.26-.13c.16-.08.29-.15.39-.21l.03-.02c.57-.37.92-.81,1.06-1.33.14-.51,0-1.09-.4-1.72Z"/>
        <path class="cls-1" d="M46.06,12.04l-2.84,1.3-.23-.51.66-.37s.05-.05.06-.1c0-.05,0-.1-.01-.13,0-.02-.01-.03-.02-.03l-1.82-1.81-2.75,1.26.19,2.51s0,.02.01.04c.02.05.06.08.12.11.06.03.11.03.14.01l.73-.27.23.51-2.4,1.1-.23-.51.63-.46-.67-8.8.9-.41,6.13,6.09c.07.07.12.11.16.13.03.02.1.01.2-.01l.58-.15.23.51ZM41.38,9.91l-2.6-2.59.27,3.66,2.33-1.07Z"/>
        <path class="cls-1" d="M51.28,8.01c.12.42.13.86.02,1.32-.11.46-.38.89-.79,1.28-.42.4-1.02.71-1.81.94-.45.13-.85.21-1.21.23-.36.02-.75,0-1.16-.04l-.66-2.23.79-.23.59,1.38s.06.09.13.14.12.07.16.08c.02,0,.16.01.4.04.25.03.56-.01.95-.13.54-.16.94-.42,1.21-.78.27-.37.34-.78.2-1.25-.08-.25-.21-.46-.41-.6-.2-.15-.43-.26-.7-.34-.27-.08-.55-.14-.84-.19s-.57-.09-.83-.13c-.39-.06-.76-.14-1.11-.24s-.65-.26-.92-.48-.45-.54-.58-.97c-.15-.5-.15-.97,0-1.41.15-.44.41-.83.79-1.16.38-.33.84-.58,1.4-.74.45-.13.86-.2,1.23-.22.37-.01.7-.02.99,0h.12s.58,1.96.58,1.96l-.72.21-.55-1.15c-.03-.05-.06-.09-.11-.1s-.1-.03-.15-.06c-.04-.01-.16-.04-.35-.07s-.47,0-.83.11c-.5.15-.86.41-1.07.77-.21.37-.25.76-.12,1.19.11.39.36.66.73.83.38.17.88.27,1.51.32.85.06,1.53.21,2.05.45s.87.67,1.06,1.3Z"/>
        <path class="cls-1" d="M58.73,2.46l-.76.12-.37-1.19c-.05-.14-.14-.2-.25-.19l-1.86.29,1.11,7.17c.01.06.04.12.1.17.05.05.13.08.22.07l.83-.08.09.56-3.51.55-.08-.56.82-.18c.09-.02.15-.07.19-.13s.05-.13.04-.19l-1.11-7.17-1.87.29c-.13.02-.19.11-.19.26v1.24s-.74.12-.74.12l-.32-2.07,7.35-1.14.32,2.07Z"/>
        <path class="cls-1" d="M68.51,8.94l-3.12.05v-.56s.74-.08.74-.08c.03,0,.07-.02.1-.07.03-.05.04-.09.04-.13,0-.02,0-.03,0-.03l-.94-2.39-3.03.05-.83,2.38s0,.02,0,.04c0,.05.02.1.07.15.05.05.09.07.13.07l.78.05v.56s-2.63.04-2.63.04v-.56s.75-.17.75-.17L63.47.02l.99-.02,3.17,8.04c.03.09.07.15.09.18.03.03.09.05.19.07l.59.09v.56ZM65.08,5.12l-1.34-3.42-1.22,3.46,2.56-.04Z"/>
        <path class="cls-1" d="M82.34,5.52c-.16.62-.44,1.1-.83,1.43-.4.33-.87.54-1.42.62-.55.08-1.13.04-1.74-.12h-.04c-.17-.05-.35-.1-.54-.17-.2-.07-.31-.1-.34-.12l-.6,2.36c-.02.06,0,.13.02.2.03.07.09.12.18.15l.83.26-.14.55-3.34-.85.14-.55.68.12c.09.01.17,0,.23-.05.06-.05.1-.1.12-.16l1.73-6.78c.02-.06,0-.13-.02-.2-.03-.07-.09-.12-.18-.15l-.75-.25.14-.55,3.04.78c1.2.31,2.04.72,2.51,1.25.47.53.59,1.26.35,2.2ZM81.01,5.2c.16-.62.11-1.14-.15-1.58-.26-.43-.79-.75-1.6-.96-.12-.03-.33-.08-.65-.15l-1.02,4s.11.04.27.11c.16.06.3.11.42.14h.04c.66.18,1.22.14,1.7-.11.47-.24.8-.73.99-1.46Z"/>
        <path class="cls-1" d="M89.16,14.89l-2.87-1.21.22-.52.72.23s.07,0,.12-.03c.04-.03.08-.06.09-.1,0-.02,0-.03,0-.03l.1-2.56-2.79-1.17-1.72,1.84s-.01.02-.02.03c-.02.05-.02.1,0,.16s.05.1.09.12l.69.36-.22.52-2.43-1.02.22-.52.76.15,6.03-6.45.91.38-.34,8.64c0,.1,0,.16.01.2.01.04.06.08.14.14l.5.32-.22.52ZM87.56,10l.15-3.67-2.51,2.67,2.36,1Z"/>
        <path class="cls-1" d="M94.72,18.32l-5.46-3.29.29-.48.68.35c.08.04.16.05.23.02.07-.03.12-.07.15-.12l3.6-5.99c.03-.05.05-.12.04-.2,0-.08-.05-.14-.13-.19l-.63-.44.29-.48,2.87,1.73-.29.48-.62-.32c-.08-.05-.16-.05-.23-.03-.08.03-.13.07-.16.12l-3.74,6.22,2.36,1.42c.05.03.12.04.2.03.08,0,.13-.03.17-.08l.99-1.24.65.39-1.26,2.09Z"/>
        <path class="cls-1" d="M101.57,23.8l-2.42-1.97.36-.44.63.43s.07.02.12,0c.05-.02.09-.04.11-.07.01-.01.02-.02.02-.03l.82-2.43-2.35-1.91-2.17,1.28s-.02.01-.03.03c-.03.04-.05.09-.04.16,0,.07.02.11.05.14l.56.54-.35.44-2.05-1.67.36-.44.69.36,7.6-4.49.76.62-2.76,8.19c-.03.09-.04.16-.04.2,0,.04.03.1.1.17l.39.45-.36.44ZM101.41,18.66l1.17-3.48-3.16,1.86,1.99,1.62Z"/>
        <path class="cls-1" d="M111.49,24.81l-.52-.57.78-.96c.09-.12.1-.23.02-.31l-1.26-1.39-5.37,4.88s-.08.1-.09.18c-.01.07,0,.15.06.22l.53.66-.42.38-2.39-2.63.42-.38.6.59c.07.06.14.09.22.08s.14-.03.18-.08l5.37-4.88-1.27-1.4c-.09-.1-.19-.1-.32-.01l-1.03.69-.51-.56,1.55-1.41,5,5.5-1.55,1.41Z"/>
        <path class="cls-1" d="M111.41,36.56l-1.73-2.59.47-.31.47.59s.05.04.11.04.1-.01.13-.03c.01,0,.02-.02.02-.02l1.5-2.08-1.68-2.52-2.45.59s-.02,0-.04.02c-.04.03-.07.08-.09.14s-.01.11,0,.14l.38.68-.47.31-1.46-2.2.47-.31.55.55,8.59-2.05.55.82-5.05,7.02c-.05.08-.09.14-.1.17-.01.04,0,.1.04.19l.24.55-.47.31ZM112.77,31.61l2.15-2.98-3.57.85,1.42,2.13Z"/>
        <path class="cls-1" d="M116.77,42.02c-.48.22-.92.31-1.32.26-.4-.05-.76-.19-1.07-.42-.31-.23-.59-.5-.82-.82-.23-.32-.42-.63-.56-.95l-1.55-3.33.51-.24.34.61c.05.08.11.13.18.15.07.01.14,0,.2-.02l6.34-2.95c.06-.03.11-.08.14-.14.04-.07.04-.14,0-.23l-.25-.65.51-.24,1.48,3.18c.44.95.59,1.71.44,2.29-.14.58-.52,1-1.11,1.28-.39.18-.76.24-1.09.17-.33-.07-.63-.21-.89-.41-.26-.2-.47-.41-.64-.61.16.35.27.73.31,1.12.04.39-.03.76-.2,1.11-.17.35-.49.63-.96.85ZM116.07,40.77c.54-.25.86-.6.96-1.04.1-.44,0-.98-.29-1.61-.06-.13-.13-.27-.22-.42-.09-.15-.16-.29-.23-.4-.07-.12-.11-.19-.12-.21l-3.14,1.46c.07.19.14.34.18.46.05.12.09.22.13.29.39.83.8,1.35,1.23,1.55s.93.17,1.49-.09ZM119.57,38.56c.46-.22.75-.54.86-.96s.02-.94-.26-1.55c-.06-.12-.13-.25-.2-.39-.08-.14-.13-.23-.15-.27l-3.01,1.4c.1.23.16.37.19.44.36.77.75,1.25,1.17,1.43.42.18.89.14,1.4-.09Z"/>
        <path class="cls-1" d="M116.51,49.8l-1.89-6.09.54-.17.27.71c.04.09.09.14.16.17.07.03.14.03.2,0l6.68-2.07c.06-.02.11-.06.16-.12.05-.06.06-.14.03-.23l-.18-.74.54-.17.99,3.2-.54.17-.25-.65c-.03-.09-.09-.15-.16-.18-.07-.03-.14-.03-.2-.01l-6.93,2.15.82,2.63c.02.06.06.11.12.16.06.05.12.06.18.05l1.57-.26.23.73-2.33.72Z"/>
        <path class="cls-1" d="M117.75,56.91l-1.14-6.7.55-.1.16.66c.02.09.07.16.14.2.07.04.13.05.2.04l6.89-1.17c.06-.01.12-.05.17-.1s.07-.14.06-.23l-.06-.68.56-.1,1.07,6.28-1.93.33-.13-.78,1.03-.38c.06-.01.11-.05.16-.1.04-.05.06-.11.05-.17l-.48-2.8-3.22.55.33,1.94c.01.06.05.11.1.15.06.04.11.05.16.05l.91-.02.11.66-2.89.49-.11-.66.87-.28s.09-.04.14-.1c.05-.06.07-.12.05-.17l-.33-1.94-3.56.6.55,3.27c0,.05.05.1.12.14s.13.05.17.05h1.32s.12.71.12.71l-2.16.37Z"/>
      </g>
      <path class="cls-1" d="M124.79,60.03l-3.85.6c.06.99.08,1.97.08,2.96,0,7.58-1.51,14.81-4.23,21.42l3.58,1.47c2.92-7.05,4.52-14.79,4.52-22.88,0-1.2-.04-2.38-.1-3.56ZM8.5,60.78l-3.85-.54c-.06,1.1-.1,2.22-.1,3.34,0,7.67,1.45,15,4.06,21.74l3.61-1.41c-2.45-6.3-3.81-13.16-3.81-20.33,0-.95.02-1.87.08-2.8Z"/>
      <path class="cls-2" d="M89.23,35.4c-3.56-3.01-8.21-5.27-10-3.15-1.13,1.35-.34,3.52,1.3,5.7l-4.19,4.97c-3.23-.51-6.64.62-8.9,3.3l-24.69,29.26c-1.66,1.97-2.46,4.48-2.25,7.05.14,1.57.64,3.05,1.46,4.34l-2.6,3.06c-.78.92-.91,2.18-.44,3.21.18.39.44.75.79,1.05.3.25.64.44.99.55,1.14.38,2.45.07,3.27-.9l2.66-3.13c1.12.45,2.31.67,3.49.67,2.75,0,5.49-1.17,7.39-3.42l24.7-29.26c1.66-1.97,2.46-4.48,2.25-7.05-.07-.79-.24-1.55-.49-2.28l4.18-4.95c.45.23.88.43,1.3.59,1.03.41,1.85.57,2.5.57,1.05,0,1.68-.41,2.05-.84,1.8-2.13-1.22-6.33-4.77-9.33ZM43.01,93.02c-.36.42-.88.64-1.39.62-.39-.01-.78-.15-1.1-.42-.38-.33-.6-.79-.62-1.25-.02-.43.11-.88.42-1.23l2.4-2.83c.09.13.2.25.31.36l1.83,1.54c.19.13.38.24.58.35l-2.43,2.87ZM64.83,67.8l3.83,3.23-1.76,2.09-2.12-1.8c-.38-.32-.95-.27-1.27.11-.32.38-.27.95.11,1.27l2.12,1.8-2.09,2.47-3.83-3.23c-.38-.32-.95-.27-1.26.11-.32.38-.28.95.11,1.27l3.83,3.23-2.31,2.72-2.12-1.79c-.38-.32-.95-.27-1.26.11-.32.38-.28.95.11,1.27l2.12,1.79-2.09,2.47-3.83-3.23c-.35-.3-.88-.28-1.2.04-.03.02-.04.04-.06.06-.32.38-.28.95.1,1.26l.24.2,3.59,3.03-.11.12c-1.86,2.21-4.76,3.03-7.39,2.34-.43-.11-.86-.26-1.27-.45-.56-.26-1.1-.61-1.59-1.02-.43-.37-.81-.77-1.13-1.21-.27-.35-.5-.74-.69-1.13-.4-.8-.65-1.69-.72-2.6-.16-1.93.43-3.82,1.69-5.3l14.52-17.21h0c3.73,3.1,7.46,6.2,11.18,9.31l-.46.54-3.83-3.23c-.38-.32-.95-.27-1.27.11-.32.38-.27.95.11,1.27ZM80.38,57.15l-.61.72-2.12-1.8c-.38-.32-.95-.27-1.27.11-.32.38-.27.95.11,1.27l2.12,1.79-2.09,2.47-3.83-3.23c-.38-.32-.95-.27-1.27.11-.32.38-.27.95.11,1.27l3.83,3.23-2.3,2.73-2.12-1.79c-.38-.32-.95-.28-1.27.11-.32.38-.27.95.11,1.26l2.12,1.8-.62.73h0c-3.73-3.1-7.45-6.2-11.18-9.3l9.16-10.85c1.25-1.48,3.01-2.39,4.94-2.55.21-.02.42-.03.62-.03,1.71,0,3.36.59,4.68,1.71,1.48,1.25,2.39,3.01,2.55,4.94.16,1.93-.43,3.82-1.69,5.31ZM82.81,47.03c-.49-.72-1.07-1.38-1.75-1.95-.69-.59-1.44-1.05-2.22-1.4l4.48-5.31,3.97,3.35-4.48,5.31ZM89.75,42.52l.14-.17c.21-.24.3-.55.28-.87-.03-.32-.18-.61-.42-.81l-5.8-4.9c-.5-.42-1.26-.36-1.69.14l-.14.17c-.76-1.11-1.06-1.93-1.03-2.26.62-.16,3.23.56,6.61,3.41,3.37,2.85,4.52,5.3,4.47,5.94-.32.08-1.18-.08-2.41-.64Z"/>
    </g>
  </g>
</svg>