<?xml version="1.0" encoding="UTF-8"?>
<svg id="Layer_2" data-name="Layer 2" xmlns="http://www.w3.org/2000/svg" viewBox="0 0 120.31 123.47">
  <defs>
    <style>
      .cls-1 {
        fill: #79868f;
      }

      .cls-2 {
        fill: #5aba47;
      }
    </style>
  </defs>
  <g id="Layer_1-2" data-name="Layer 1">
    <g>
      <g>
        <path class="cls-2" d="M49.1,58.87c.78,1.38-2.01,3.35-2.42,6.19-.41,2.84-4.47,4.96-4.47,4.96.18,1.34.23,6.75.23,6.75h2.79c.13-1.24-1.14-2.17-1.14-2.17-.4-2,1.05-3.37,1.62-3.83-.27,1.11-.57,2.41-.59,2.59-.03.31.49,2.07.49,2.07h2.84c0-.85-1.06-1.27-1.06-1.27-.85-.65.09-2.82.44-3.63.13-.3.58-1,1.1-1.75,1.78-1.21,3.56-2.53,3.56-2.53,4.17,1.14,8.57,1.13,11.46.94-.38,1.71-.82,3.85-.76,4.25.09.68,2.43,5.62,2.75,5.62h3.2c-.18-1.59-1.87-1.72-1.87-1.72-.07-.29-.84-3.23-.97-3.72-.08-.29.41-1.53.85-2.53l-.08,3.11,2.66,4.86h3.2c-.13-1.63-1.87-1.56-1.87-1.72s-1.47-4.42-1.47-4.42c.27-.74,2.1-5.54,2.1-5.54,2.67-1.69,3.26-6.52,3.99-7.96.72-1.45.02-3.94,1.53-3.73,1.51.21,2.42.1,2.68-.16.25-.25.83-.1,1.84-.16,1.01-.06,1.55-2.56,1.12-2.6-.43-.04-3.41-1.22-3.57-2.04-.16-.81-2.25-1.42-3.68-1.65-1.43-.23-3.08,1.65-3.97,2.5-.89.85-2.44,3.12-2.44,3.12,0,0-3.04,2.42-4.75,2.97-1.71.54-11.22,1.12-13.08,1.09,0,0-4.02-.53-5.29,1.72-1.28,2.25-2.91,4.8-3.78,4.95,0,0,2.04.71,3.22-.26s3.6-4.31,3.6-4.31Z"/>
        <path class="cls-2" d="M60.75,99.91l-.58-.14c-2.99-.74-6.44-2.29-9.72-4.37-4.09-2.59-7.98-6.02-11.26-9.92-3.84-4.57-6.87-9.76-9-15.43-2.44-6.5-3.68-13.59-3.68-21.08,0-4.14.18-7.64.33-9.84l.15-2.1,2.1-.13c5.5-.34,11.11-1.63,16.23-3.75,5.06-2.09,9.84-5.06,13.84-8.6l1.59-1.41,1.59,1.41c3.99,3.53,8.77,6.51,13.83,8.59,5.12,2.12,10.73,3.41,16.23,3.75l2.1.13.15,2.1c.15,2.2.33,5.7.33,9.84,0,7.49-1.24,14.58-3.68,21.08-2.13,5.67-5.16,10.86-9,15.43-3.28,3.9-7.17,7.33-11.26,9.92-3.28,2.08-6.74,3.63-9.72,4.37l-.57.14ZM29.23,39.29h0c-.15,2.16-.33,5.6-.33,9.67,0,7.2,1.19,14.01,3.53,20.24,2.03,5.42,4.92,10.37,8.59,14.73,3.12,3.71,6.83,6.98,10.71,9.44,3.07,1.95,6.27,3.39,9.01,4.07h0c2.74-.68,5.94-2.12,9.01-4.07,3.88-2.46,7.59-5.73,10.71-9.44,3.66-4.36,6.55-9.31,8.59-14.73,2.34-6.23,3.53-13.04,3.53-20.24,0-4.07-.18-7.51-.33-9.67h0c-5.76-.35-11.64-1.71-17-3.93-5.3-2.19-10.32-5.31-14.51-9.02h0c-4.19,3.71-9.21,6.83-14.51,9.02-5.36,2.21-11.24,3.57-17,3.92h0Z"/>
      </g>
      <g>
        <path class="cls-1" d="M10.13,94.25c-.42.25-.9.39-1.43.4-.53.01-1.07-.15-1.62-.49s-1.06-.9-1.54-1.69c-.27-.45-.47-.87-.6-1.25s-.22-.8-.29-1.27l2.22-1.35.48.79-1.32,1.03s-.08.1-.11.18c-.03.08-.04.15-.04.2,0,.02.03.17.07.45s.18.61.41,1c.32.53.72.9,1.2,1.09.47.19.94.14,1.41-.14.25-.15.43-.36.54-.62.1-.26.16-.54.17-.86.01-.31,0-.63-.03-.96-.03-.33-.07-.64-.09-.94-.05-.44-.06-.87-.06-1.27,0-.41.09-.79.26-1.13.17-.35.46-.65.89-.91.5-.3,1.01-.44,1.53-.41s1.02.2,1.48.52.87.75,1.2,1.3c.27.45.47.87.59,1.27.12.4.22.75.29,1.07l.03.13-1.96,1.19-.44-.72,1.09-.92c.05-.04.08-.09.08-.15,0-.06,0-.12.02-.18,0-.05,0-.18-.02-.4-.02-.22-.14-.51-.35-.86-.3-.5-.69-.81-1.14-.93-.46-.12-.9-.05-1.32.21-.38.23-.61.58-.68,1.03-.07.45-.04,1.03.08,1.73.17.93.21,1.72.1,2.35-.11.63-.47,1.14-1.1,1.52Z"/>
        <path class="cls-1" d="M11.15,100.12l-2.36-3.07.5-.38.58.66c.07.08.15.12.23.12.08,0,.15-.02.21-.07l6.21-4.76c.06-.04.1-.11.12-.18s0-.16-.06-.25l-.49-.73.51-.39,2.36,3.07-.51.39-.59-.68c-.07-.08-.14-.12-.22-.12-.08,0-.15.02-.21.06l-6.21,4.76c-.06.04-.1.11-.12.19-.02.08,0,.17.05.25l.5.75-.5.39Z"/>
        <path class="cls-1" d="M18.68,104.25c-.36.34-.79.57-1.31.7-.52.13-1.08.08-1.68-.13-.61-.21-1.23-.65-1.87-1.32-.36-.38-.65-.74-.85-1.09s-.39-.74-.56-1.17l1.88-1.8.64.67-1.07,1.29s-.06.11-.07.2c-.01.08-.01.15,0,.2.01.02.07.16.17.42.1.26.3.55.62.88.43.45.9.72,1.4.8s.95-.06,1.34-.44c.21-.21.35-.44.39-.72.05-.27.04-.56-.02-.87-.06-.31-.14-.62-.24-.93-.1-.31-.2-.61-.29-.89-.14-.42-.25-.83-.33-1.23-.08-.4-.08-.79,0-1.16.09-.37.31-.73.67-1.08.42-.4.89-.65,1.41-.73.52-.08,1.04-.02,1.56.19.52.21,1.01.54,1.46,1.01.36.38.65.75.85,1.11.2.36.37.69.52.98l.06.12-1.65,1.58-.58-.61.86-1.13c.04-.05.06-.11.04-.17-.01-.06-.02-.12-.02-.18,0-.05-.04-.18-.11-.39s-.25-.46-.53-.77c-.41-.42-.84-.65-1.32-.67-.47-.02-.89.14-1.25.49-.32.31-.47.7-.44,1.16s.18,1.01.45,1.66c.37.87.57,1.63.61,2.27.03.64-.22,1.21-.75,1.72Z"/>
        <path class="cls-1" d="M29.05,106.56l-.68-.54.69-1.21c.08-.15.06-.27-.04-.35l-1.65-1.3-5.02,6.39c-.04.06-.07.13-.07.21s.04.16.11.23l.7.63-.39.49-3.13-2.46.39-.5.77.53c.09.06.17.08.25.05.08-.02.14-.06.19-.12l5.02-6.39-1.66-1.31c-.11-.09-.23-.08-.35.04l-1.01.96-.67-.53,1.45-1.84,6.54,5.14-1.45,1.84Z"/>
        <path class="cls-1" d="M32.43,117.1l-6.63-3.75.31-.55.69.32c.1.04.18.05.27.02.08-.03.14-.08.17-.14l3.85-6.82c.03-.06.05-.14.03-.22-.01-.09-.07-.16-.15-.22l-.63-.42.31-.55,6.21,3.51-1.08,1.9-.77-.43.4-1.16c.03-.06.04-.14.02-.21s-.06-.13-.11-.16l-2.77-1.57-1.8,3.18,1.92,1.08c.06.03.13.04.2.02.08-.02.13-.06.15-.1l.63-.81.65.37-1.61,2.85-.65-.37.37-.96s.03-.11,0-.19c-.02-.08-.06-.14-.11-.17l-1.92-1.08-1.99,3.52,3.23,1.83c.05.03.12.03.2,0,.08-.03.14-.07.16-.11l.95-1.14.69.39-1.21,2.13Z"/>
        <path class="cls-1" d="M45.55,121.96l-3.51-1.19.2-.6.76.2c.1.02.19.02.26-.03.07-.05.12-.1.14-.17l2.59-7.67-6.12,7.54-.69-.23-.22-9.54-2.55,7.54c-.02.07-.02.14.01.22.03.08.09.14.19.18l.78.32-.2.6-3.01-1.02.2-.6.81.22c.1.02.19.01.26-.03s.12-.11.14-.17l2.51-7.42c.02-.07.02-.14,0-.22-.03-.08-.09-.14-.19-.18l-.78-.32.2-.6,3.12,1.06-.13.37.21,7.68,4.82-5.94.14-.41,3.2,1.08-.2.6-.77-.2c-.1-.03-.19-.02-.26.03-.07.05-.12.11-.15.17l-2.51,7.42c-.02.07-.02.14.01.22.03.08.09.14.19.19l.74.31-.2.6Z"/>
        <path class="cls-1" d="M56.94,123.47l-3.46-.44.08-.62.85.03s.08-.02.12-.06.06-.09.07-.13c0-.02,0-.03,0-.04l-.66-2.8-3.36-.43-1.3,2.5s-.01.02-.01.04c0,.06.01.12.05.18.04.06.09.09.13.1l.85.18-.08.62-2.93-.37.08-.63.87-.07,4.56-8.77,1.09.14,2.24,9.42c.02.1.05.18.07.21.02.04.09.07.2.11l.64.2-.08.62ZM53.75,118.69l-.94-4-1.9,3.64,2.85.36Z"/>
        <path class="cls-1" d="M69.39,122.73l-3.85.44-.07-.63.86-.16c.1-.02.18-.07.22-.14.04-.07.06-.15.05-.22l-.9-7.78c0-.07-.04-.14-.1-.19-.06-.06-.14-.08-.24-.08l-.87.04-.07-.64,3.85-.44.07.64-.88.16c-.1.02-.17.06-.22.13-.05.07-.06.14-.05.21l.89,7.78c0,.07.04.14.1.2.06.06.14.09.24.09l.9-.05.07.63Z"/>
        <path class="cls-1" d="M78.25,111.28l-.78.26c-.1.03-.17.08-.2.16-.03.08-.04.15-.02.22l2.18,8.57-1.11.28-7.32-6.62,1.78,6.99c.02.07.06.13.12.18s.15.07.25.05l.83-.15.16.61-3.08.78-.16-.61.8-.26c.1-.03.17-.09.2-.17s.05-.15.03-.22l-1.93-7.59c-.02-.07-.06-.13-.13-.18-.07-.05-.16-.07-.26-.05l-.86.16-.16-.61,2.82-.72.09.35,6.56,5.95-1.66-6.53c-.02-.07-.06-.13-.13-.18-.07-.05-.15-.07-.25-.05l-.83.15-.16-.61,3.04-.78.16.61Z"/>
        <path class="cls-1" d="M93.31,114.31l-3.33,1.63-.28-.57.68-.4c.09-.05.15-.12.17-.21.02-.08.01-.16-.02-.22l-3.56-7.27.98,9.66-.66.32-6.88-6.62,3.5,7.14c.03.07.09.12.17.15.08.04.17.04.27,0l.78-.32.28.57-2.85,1.4-.28-.57.73-.42c.09-.05.14-.12.16-.21.02-.08,0-.15-.02-.22l-3.45-7.03c-.03-.06-.08-.12-.16-.16-.08-.04-.16-.04-.26,0l-.78.32-.28-.57,2.95-1.45.17.35,5.56,5.31-.77-7.61-.19-.39,3.03-1.49.28.57-.69.4c-.09.05-.15.12-.17.21s-.01.16.02.23l3.45,7.03c.03.06.09.12.17.15.08.04.17.03.27,0l.74-.3.28.57Z"/>
        <path class="cls-1" d="M97.01,99.91l-.64.57c-.08.07-.12.15-.12.23s.03.16.07.21l3.42,4.41c.74.95,1.02,1.85.86,2.69s-.73,1.64-1.7,2.39c-.96.74-1.85,1.06-2.68.96-.83-.11-1.59-.61-2.3-1.52l-3.42-4.41c-.04-.06-.11-.1-.19-.12-.08-.02-.17,0-.25.05l-.65.43-.39-.5,2.95-2.29.39.5-.63.56c-.08.07-.12.15-.12.23,0,.09.03.16.07.21l3.18,4.11c.35.45.71.81,1.08,1.08s.77.38,1.2.36c.43-.03.92-.25,1.45-.66.54-.42.87-.84,1-1.26s.11-.85-.05-1.28c-.16-.43-.41-.86-.74-1.29l-3.18-4.11c-.04-.06-.11-.1-.19-.12s-.17,0-.26.06l-.7.47-.39-.5,2.52-1.95.39.5Z"/>
        <path class="cls-1" d="M103.68,92.47l-.5.65c-.07.08-.09.16-.07.25.02.08.05.15.11.2l6.6,5.89-.76.86-9.77-1.4,5.38,4.8c.05.05.12.08.2.08.08,0,.16-.02.24-.1l.6-.59.47.42-2.12,2.37-.47-.42.52-.66c.06-.08.09-.17.07-.26-.01-.08-.05-.15-.1-.2l-5.84-5.21c-.05-.05-.12-.07-.21-.08-.09,0-.17.03-.24.11l-.62.61-.47-.42,1.94-2.17.27.24,8.77,1.27-5.03-4.49c-.05-.05-.12-.08-.21-.08-.09,0-.17.02-.23.1l-.6.59-.47-.42,2.09-2.34.47.42Z"/>
        <path class="cls-1" d="M115.69,90.61l-4.06,6.44-.53-.34.36-.67c.05-.09.06-.18.03-.26-.03-.08-.07-.14-.13-.18l-6.62-4.18c-.06-.04-.13-.05-.22-.04s-.16.06-.22.14l-.45.61-.53-.34,3.81-6.03,1.85,1.17-.47.75-1.14-.45c-.06-.03-.13-.04-.21-.03-.08.02-.13.05-.17.11l-1.7,2.69,3.09,1.95,1.17-1.86c.04-.06.04-.12.03-.2-.02-.08-.05-.13-.1-.16l-.77-.67.4-.63,2.77,1.75-.4.63-.94-.42s-.11-.03-.19-.02c-.08.02-.14.05-.17.1l-1.17,1.86,3.42,2.16,1.98-3.14c.03-.05.04-.12,0-.2-.03-.08-.06-.14-.1-.17l-1.09-1,.42-.67,2.07,1.31Z"/>
      </g>
      <path class="cls-1" d="M60.17,0C26.98,0,0,27,0,60.17c0,8.39,1.72,16.39,4.85,23.66l3.52-1.58c-2.9-6.78-4.5-14.24-4.5-22.07C3.87,29.13,29.11,3.87,60.17,3.87s56.28,25.26,56.28,56.3c0,8.47-1.87,16.51-5.24,23.72l3.52,1.58c3.58-7.69,5.59-16.27,5.59-25.3C120.31,27,93.33,0,60.17,0Z"/>
    </g>
  </g>
</svg>