<svg viewBox="0 0 122.72039748953976 126.95" xmlns="http://www.w3.org/2000/svg" data-name="Layer 2" id="Layer_2" style="max-height: 500px" width="122.72039748953976" height="126.95">
  <defs>
    <style>
      .cls-1 {
        fill: #79868f;
      }

      .cls-2 {
        fill: #5aba47;
      }
    </style>
  </defs>
  <g data-name="Layer 1" id="Layer_1-2">
    <g>
      <g>
        <path d="M96.11,46.68s.05,0,.08,0c.08,0,.16.02.24.04.16.04.31.1.45.17.12.06.22.13.33.21,0-.01,0-.03,0-.04,0-.04-.01-.09-.02-.13,0-.04,0-.08,0-.12,0-.02.02-.03.03-.03,0,0,.02,0,.02,0,0,0,0,0,.01,0h0c.07,0,.13.07.17.11.06.06.12.12.17.18.11.12.2.25.29.38.04.06.08.13.12.2,0-.03,0-.07,0-.1,0-.05,0-.1,0-.16,0-.05,0-.11,0-.16,0-.02,0-.05,0-.07,0,0,0,0,0,0,0,0,0-.01,0-.02,0-.02,0-.05.03-.06,0,0,.01-.01.02-.01.01,0,.02,0,.03.02.16.07.28.26.39.4.12.16.24.33.35.5.09.14.16.29.24.44,0-.02.01-.03.02-.05.02-.04.04-.08.05-.11,0-.02.02-.04.03-.06,0,0,.01-.02.02-.03,0,0,.02-.01.03-.02,0,0,.01,0,.02,0,.02,0,.03.01.03.03,0,0,0,0,0,0,0,0,0,0,0,0h0s0,0,0,.01c0,0,0,0,0,0,0,0,0,0,0,0,.01,0,.02,0,.03.02.05.1.07.21.1.32.02.08.03.16.05.25.02-.03.05-.05.08-.07.01,0,.03-.01.04-.01.03,0,.06.02.08.04.09.17.18.34.27.51.04.09.09.17.13.25.04.08.07.18.13.25.1.14.13.34.12.51-.01.19-.01.37,0,.56.02.2.04.4.08.6.04.19.09.37.11.56.02.17-.07.29-.18.41,0,.01-.02.02-.03.03-.01.04-.03.07-.03.11,0,.06.04.18.11.18.02,0,.04,0,.06-.03.02-.02.04-.02.06-.02.07,0,.13.07.08.13-.05.07-.1.13-.13.21-.04.1,0,.13.05.21.1.15.03.28-.02.42-.12.33-.23.67-.34,1-.04.13-.1.25-.15.37,0,0,0,.02,0,.03-.1.29-.22.58-.36.85-.13.27-.29.52-.45.78-.07.11-.14.23-.16.36-.01.07.02.23.09.27.07.04.04.16-.04.16,0,0-.02,0-.03,0-.04-.01-.08-.02-.12-.02-.21,0-.4.18-.53.32-.13.14-.26.29-.38.44.03.01.06.02.08.04.09.03.09.15,0,.19-.34.12-.66.34-.95.56.08.05.17.1.25.15.06.03.07.14,0,.17-.19.08-.38.17-.56.27-.13.07-.27.15-.4.24.06.02.12.05.19.08.07.03.07.15,0,.18-.14.07-.28.13-.43.2.03.02.07.05.1.07.06.04.06.14-.02.16-.18.05-.37.18-.52.29-.16.11-.3.25-.42.4-.07.09-.13.18-.2.28-.02.17-.07.34.03.51.13.21.35.36.51.54.07.08.02.2-.08.2-.01,0-.02,0-.03,0-.07-.02-.14-.04-.21-.05.05.06.11.11.16.16.11.11.22.22.31.35.18.25.31.54.38.84.02.07-.04.12-.09.12-.02,0-.05,0-.07-.03-.09-.08-.18-.15-.27-.22.12.25.22.51.27.79.04.2.06.4.06.6,0,.06,0,.12-.01.17,0,.02.01.04.02.06.02.11.04.22.05.33.03.21.06.42.09.63.05.41.12.81.21,1.21.08.37.2.73.36,1.08.08.17.17.34.28.49.1.15.22.26.36.37.07.06.14.11.22.15.07.04.15.06.21.11.11.09.06.23-.01.34,0,0,.01,0,.02,0,.03,0,.05,0,.08.02.08.04.12.12.16.2.1.17.2.34.31.5.11.16.23.3.37.43.07.07.15.13.22.19.09.06.17.11.24.2,0,0,0,0,0,.01.02.01.03.03.04.05.04.1.04.2.05.3.01.11.04.21.06.32.05.21.12.41.19.61.15.41.34.8.49,1.21.31.82.53,1.69.58,2.57.01.24.01.48,0,.71,0,.1-.02.2-.03.3.02.03.05.06.06.09.06.09.09.19.11.29.03.22-.04.44-.09.65-.05.21-.11.42-.18.63-.07.18-.17.34-.35.43-.12.06-.24.08-.37.08-.05,0-.09,0-.14,0-.18-.02-.39-.06-.5-.22-.12-.16-.2-.38-.26-.57-.06-.17-.08-.34-.08-.51,0,0-.01-.02-.02-.04-.06-.39-.09-.77-.2-1.14-.12-.38-.28-.75-.41-1.13-.13-.36-.19-.76-.4-1.09-.17-.27-.41-.49-.65-.71-.02.03-.03.07-.05.1-.01.03-.04.04-.07.04-.02,0-.05,0-.06-.02-.13-.15-.29-.26-.48-.32,0,.02-.02.05-.03.07-.01.03-.05.05-.09.05,0,0-.02,0-.03,0-.34-.13-.65-.33-.91-.58,0,.02-.01.04-.02.06-.02.05-.05.07-.09.07-.02,0-.03,0-.05-.01-.19-.09-.39-.17-.58-.25-.07-.03-.14-.05-.21-.08,0,0,0,0,0,0-.07,0-.13-.03-.2-.05-.09-.03-.19-.07-.28-.11-.2-.08-.39-.16-.59-.25-.38-.16-.77-.32-1.15-.51-.37-.19-.74-.4-1.1-.6-.04-.02-.08-.04-.11-.06,0,.06,0,.11,0,.16,0,.17,0,.35.02.52.03.34.08.68.21.99.03.06-.04.13-.1.13-.02,0-.03,0-.05-.01-.1-.07-.19-.16-.26-.25,0,.23.03.45.06.68.02.15.05.31.07.46.01.07.03.15.03.23,0,.03,0,.08-.02.11,0,0-.01.01-.02.02-.04.1-.11.2-.18.27-.16.17-.35.32-.51.5-.16.18-.31.38-.46.57-.15.19-.31.37-.46.56-.3.38-.62.75-1,1.05-.22.18-.47.32-.71.47-.23.14-.46.28-.71.39-.29.13-.59.19-.91.19h0c-.1,0-.19,0-.29-.01-.03,0-.07,0-.1,0-.02,0-.05,0-.07,0-.21,0-.42-.02-.64-.04-.37-.04-.79-.09-1.03-.41-.1-.14-.18-.34-.09-.51.04-.08.12-.14.19-.2.08-.06.15-.13.23-.2.14-.12.29-.27.48-.31.05,0,.11-.01.17-.01.16,0,.32.03.46.05.07.01.14.02.21.04.03-.02.06-.05.08-.07.06-.07.11-.14.17-.21.12-.13.24-.25.36-.38.25-.25.52-.48.79-.7.13-.11.22-.22.26-.38.04-.15.05-.32.06-.47,0,0,0-.01,0-.02,0-.12,0-.24,0-.36,0-.07-.01-.14-.02-.22-.01.06-.03.12-.04.16-.01.05-.06.08-.11.08-.04,0-.07-.02-.09-.05-.13-.27-.2-.55-.25-.84-.02.03-.05.04-.08.04s-.06-.02-.09-.05c-.31-.5-.43-1.08-.67-1.61-.12-.26-.25-.52-.42-.75-.01-.02-.03-.04-.04-.06-.04-.03-.08-.06-.12-.09-.01,0-.07-.02-.08-.03,0,0,0,0,0,0h0s0,0,0,0c0,0,0,.01,0,.02-.09.18-.12.39-.11.59,0,.06-.05.11-.11.11-.03,0-.05,0-.07-.03-.08-.08-.15-.15-.23-.23-.04-.04-.07-.07-.11-.11-.03-.03-.07-.1-.11-.1h0s-.06.02-.07.02c-.04.01-.09.02-.13.02-.03,0-.07,0-.1,0-.04,0-.08,0-.12,0-.25-.03-.46-.13-.65-.28-.02.03-.06.05-.1.05-.03,0-.07-.01-.09-.03-.09-.08-.19-.1-.3-.1-.06,0-.12,0-.18.01-.12.02-.23.03-.35.03-.08,0-.16,0-.25-.02-.2-.03-.39-.06-.59-.07-.1,0-.2,0-.29-.02,0,0-.01,0-.02,0-.02,0-.03,0-.05,0-.13.02-.27.04-.41.04-.28.02-.56.02-.84.02h0c-.27,0-.54,0-.81-.02-.02,0-.05,0-.07,0-.11.96-.36,1.9-.55,2.85-.1.5-.2,1-.31,1.49-.11.47-.25.93-.41,1.39-.15.45-.29.91-.51,1.33-.21.38-.51.65-.95.72-.22.03-.44.03-.67.04-.18,0-.36.01-.55.01-.05,0-.11,0-.16,0-.4-.02-.84-.19-.91-.64-.06-.44.38-.84.74-1.01.1-.04.19-.06.29-.06.09,0,.18.01.27.03,0-.13.04-.26.09-.37.1-.19.31-.32.37-.53,0-.04.02-.07.02-.11-.01-.12-.01-.25-.03-.37-.02-.19-.07-.38-.13-.57-.11-.37-.23-.74-.33-1.12-.09-.37-.17-.75-.27-1.13-.05-.17-.1-.34-.17-.51-.03-.08-.07-.16-.1-.24-.02-.05-.03-.11-.05-.16,0-.02-.02-.03-.03-.05-.04-.07-.06-.15-.09-.22-.05.06-.08.13-.11.2-.01.04-.05.06-.09.06-.03,0-.05-.01-.07-.04-.06-.11-.15-.21-.22-.32-.03-.04-.06-.08-.09-.12,0,.02-.01.03-.02.05,0,.02-.01.03-.02.05,0,0,0,0,0,0h0s0,0,0,0c0,0,0,.02-.01.03-.01.03-.03.07-.05.1-.02.04-.06.05-.09.05s-.07-.02-.09-.05c0,0,0,0,0,0,0,0,0,0,0,0,0,0,0,0,0,0,0,0,0,0,0,0,0,0,0,0,0,0,0,0-.02-.02-.03-.03-.02-.02-.03-.04-.05-.06-.03-.04-.06-.08-.08-.12-.01-.02-.03-.05-.04-.08,0,0,0,0,0,.01-.02.04-.05.07-.1.07,0,0-.01,0-.02,0-.05,0-.08-.03-.11-.07-.02-.03-.04-.06-.05-.1,0,0,0-.01,0-.02-.26.3-.5.62-.7.96-.02.03-.05.04-.07.04-.05,0-.1-.05-.09-.11.01-.06.03-.11.04-.17-.27.3-.53.61-.82.89-.39.37-.82.68-1.27.98-.48.32-.93.68-1.39,1.03-.44.34-.88.69-1.35.99-.26.16-.53.3-.82.4,0,0,0,0-.01,0,.01.19-.11.37-.24.53-.09.1-.19.19-.29.29-.09.09-.17.19-.27.27-.36.3-.86.33-1.33.33-.08,0-.16,0-.23,0-.02,0-.03,0-.05,0h-.06c-.25,0-.5,0-.73-.1-.23-.1-.39-.31-.4-.56-.02-.49.4-.96.87-1.05.08-.02.16-.02.24-.02.11,0,.22.01.33.04.02-.04.06-.08.09-.12.12-.15.25-.29.37-.44.26-.3.51-.6.74-.92.24-.32.46-.65.65-.99.2-.35.37-.72.61-1.05.13-.17.27-.34.42-.5.04-.04.08-.08.12-.12,0,0-.02,0-.02,0,0,0-.02,0-.02,0-.08,0-.16-.09-.11-.18.45-.65.71-1.5.51-2.28-.2-.79-.85-1.36-1.52-1.75-.38-.23-.79-.41-1.19-.61,0,.03,0,.05,0,.08,0,.06-.06.11-.11.11-.02,0-.04,0-.05-.02-.42-.32-.91-.56-1.42-.7-.08-.02-.16-.04-.24-.06-.03,0-.07-.01-.1-.01-.03,0-.06,0-.1,0-.15,0-.29.02-.44.05-.19.04-.37.11-.55.18-.15.06-.3.12-.46.12-.03,0-.06,0-.09,0-.18-.03-.32-.15-.46-.26-.15-.12-.3-.24-.44-.37-.13-.13-.26-.26-.39-.39-.13-.13-.26-.26-.36-.41-.07-.11-.1-.22-.1-.34-.05-.23.08-.52.17-.7.14-.28.33-.53.42-.84.04-.15.03-.31.04-.47.02-.16.06-.31.13-.46.01-.03.03-.06.05-.09.01-.05.03-.1.06-.15.06-.12.13-.21.21-.31.16-.2.35-.37.56-.51.1-.07.23-.14.3-.24.08-.1.14-.21.23-.31.09-.1.2-.18.31-.25.04-.02.08-.04.12-.06-.05-.09-.09-.2-.12-.28-.05-.1-.09-.21-.13-.31-.04-.09-.07-.17-.04-.27.03-.09.12-.16.22-.16,0,0,0,0,0,0,.1,0,.17.06.25.11.03.02.06.04.1.06,0-.04,0-.08-.01-.12-.01-.18-.02-.37.02-.55.04-.16.16-.28.33-.28,0,0,.01,0,.02,0,.17.01.33.11.47.2.14.11.27.23.41.34.14.11.29.21.44.3.3.18.61.33.93.47.04,0,.07,0,.11.01.25.04.5.09.75.14.49.1.98.2,1.47.28.49.07.98.09,1.48.12.47.03.95.07,1.42.09.08,0,.15,0,.23,0,.17,0,.34,0,.52-.02,0,0,0,0,.01,0,.02,0,.03-.02.05-.03.16-.08.35-.12.52-.18.34-.11.68-.2,1.03-.27.72-.14,1.45-.16,2.18-.18.73-.02,1.44-.06,2.14-.25.35-.1.69-.21,1.04-.3.34-.09.69-.17,1.04-.24.4-.09.8-.18,1.21-.24.2-.03.41-.06.61-.07.08,0,.15-.01.23-.02.34-.05.68-.09,1.02-.13.74-.07,1.48-.11,2.22-.13,1.49-.04,2.97,0,4.46-.07.2,0,.41-.01.62-.03.07,0,.13-.02.19-.02.04,0,.07,0,.11.01.1.03.19.07.28.1.18.07.37.13.56.15.04,0,.07,0,.11,0,.06,0,.12,0,.18,0,.03,0,.06,0,.09,0,0,0,.01,0,.02,0,.26-.09.52-.2.76-.33.69-.36,1.32-.82,1.89-1.35.62-.58,1.12-1.27,1.64-1.93.5-.65,1.06-1.28,1.4-2.03.18-.41.29-.85.37-1.28.07-.38.12-.77.22-1.15-.01-.07-.03-.13-.04-.2-.09-.36-.29-.68-.52-.97-.23-.28-.48-.58-.76-.8-.2-.15-.41-.21-.64-.21-.11,0-.23.01-.35.04-.2.04-.39.1-.59.12-.08,0-.17.02-.25.02,0,0-.01,0-.02,0-.21.08-.44.17-.66.21-.04,0-.08.01-.12.01-.34,0-.63-.26-.74-.59-.13-.4.08-.83.35-1.12.25-.27.59-.46.94-.55.17-.05.36-.07.54-.07.03,0,.05,0,.08,0,0,0,.01,0,.02,0-.02-.01-.05-.03-.07-.04-.05-.03-.1-.06-.15-.09-.03-.01-.05-.03-.08-.04-.02-.02-.04-.04-.06-.06-.02-.02,0-.06.02-.06.02,0,.03,0,.04,0,.07-.12.29-.12.41-.13.04,0,.09,0,.13,0,.15,0,.29.01.44.03.15.02.31.05.47.09-.02-.03-.05-.07-.07-.1-.03-.04-.07-.09-.09-.14,0-.01,0-.02.01-.03,0,0,0-.02.01-.03.03-.03.07-.04.11-.04M96.11,45.58h0c-.31,0-.54.1-.7.21-.06,0-.11,0-.17,0-.06,0-.12,0-.18,0-.37.01-.66.1-.9.24-.18.09-.33.22-.45.39-.43.17-.81.43-1.11.75-.6.65-.82,1.47-.59,2.2.25.8.99,1.36,1.79,1.36.1,0,.21,0,.32-.03.26-.05.5-.13.69-.21.04,0,.08,0,.12-.01.24-.02.43-.07.58-.1.05-.01.11-.03.16-.04.04,0,.08-.02.12-.02.18.15.37.38.56.6.14.17.23.33.29.47-.04.21-.08.4-.11.59-.02.12-.04.24-.06.35-.07.35-.15.72-.29,1.04-.22.5-.6.97-.99,1.46l-.27.35-.22.29c-.43.55-.83,1.08-1.29,1.51-.53.49-1.08.88-1.64,1.18-.16.08-.32.15-.47.21-.02,0-.05,0-.07,0-.06,0-.13-.02-.25-.07-.16-.07-.29-.12-.43-.15-.13-.03-.26-.05-.39-.05-.08,0-.16,0-.24.02-.15.01-.28.02-.4.02h-.21c-.82.04-1.67.05-2.49.05-.65,0-1.3,0-1.95.03-.86.02-1.61.07-2.3.14-.34.03-.68.08-1.02.13-.06,0-.12,0-.19.01-.25.02-.48.05-.71.09-.41.06-.81.15-1.21.24h-.06c-.36.09-.73.17-1.09.26-.2.05-.4.11-.6.17-.15.04-.3.09-.45.13-.6.16-1.26.19-1.88.21-.79.02-1.57.04-2.37.2-.35.07-.72.17-1.14.3l-.11.03c-.12.03-.26.07-.41.13-.08,0-.17,0-.25,0-.07,0-.13,0-.2,0-.34,0-.67-.03-1.01-.06l-.37-.03-.34-.02c-.37-.02-.71-.04-1.04-.09-.35-.05-.7-.12-1.04-.19l-.39-.08c-.26-.05-.51-.1-.77-.14-.24-.11-.45-.22-.64-.33-.12-.07-.23-.15-.34-.23-.05-.04-.1-.08-.14-.12-.1-.08-.19-.16-.29-.24-.35-.26-.7-.4-1.05-.42-.02,0-.07,0-.09,0-.61,0-1.14.39-1.35.96-.29.16-.5.42-.61.74-.12.36-.06.68,0,.88-.06.07-.11.14-.16.22h0s-.02.01-.03.02c-.36.23-.63.48-.86.77-.12.15-.24.31-.34.52-.03.06-.06.12-.08.19-.01.02-.02.05-.03.07-.12.26-.2.53-.23.81,0,.09-.01.17-.02.26,0,.03,0,.06,0,.09,0,.02-.07.13-.14.24-.07.12-.14.24-.2.36-.11.23-.36.74-.28,1.3.02.3.12.59.28.84.15.22.31.39.45.52l.05.05.07.07c.11.12.23.23.35.35.17.16.35.3.53.44.21.17.51.4.95.47.09.02.19.02.28.02.37,0,.66-.12.85-.2.12-.05.27-.11.4-.14.08-.02.14-.03.19-.03h0s.1.02.15.04c.36.1.72.27,1.03.51.21.16.46.24.72.24.07,0,.14,0,.21-.02.18.09.36.18.53.28.4.23.89.61,1.01,1.07.1.4-.03.93-.35,1.38-.12.17-.19.36-.21.56-.05.07-.11.14-.16.2-.22.3-.39.62-.54.89l-.14.26c-.16.28-.34.57-.57.87-.24.32-.5.63-.7.86l-.12.14c-.09,0-.19.02-.28.04-1.02.2-1.81,1.18-1.76,2.19.03.66.44,1.24,1.06,1.52.45.2.89.2,1.18.2h.19s.15,0,.15,0c.47,0,1.33,0,2.03-.59.1-.08.19-.18.28-.27l.06-.07.08-.08c.09-.09.18-.18.27-.27.12-.13.21-.27.29-.41.18-.09.36-.19.54-.3.43-.27.82-.57,1.19-.86l.24-.18.21-.17c.38-.29.74-.57,1.11-.82.55-.36,1-.69,1.43-1.1.11-.1.21-.21.31-.32.33-.06.62-.26.8-.56,0,0,0,0,0-.01.06.02.13.03.19.04.06.04.13.08.19.11.02.07.05.15.07.22.06.21.11.43.16.64.04.15.07.31.11.46.06.25.14.5.21.75.04.14.08.27.12.41.04.13.08.28.09.4-.04.05-.09.11-.13.17-.08.02-.16.05-.24.09-.77.34-1.53,1.17-1.38,2.17.13.91.92,1.55,1.96,1.59.07,0,.13,0,.2,0,.11,0,.23,0,.34,0h.22s.07,0,.07,0c.22,0,.48,0,.76-.05.52-.08,1.25-.37,1.75-1.28.24-.45.4-.91.53-1.33l.06-.18c.16-.47.32-.97.44-1.5.11-.47.2-.94.29-1.42l.02-.1c.06-.28.12-.57.18-.85.08-.36.16-.72.23-1.09.29,0,.57,0,.85-.02.13,0,.26-.02.39-.04.08,0,.15,0,.2,0,.16,0,.28.03.4.04l.13.02c.14.02.27.03.4.03s.26,0,.39-.02c.12.06.25.09.38.11.25.12.51.2.78.23.05,0,.1,0,.15.01l.06.06c.23.23.53.36.86.36.02,0,.03,0,.05,0,.01.03.02.07.04.1.13.37.28.79.54,1.2.04.07.1.14.15.2.06.2.13.38.21.55.01.03.03.05.04.08-.23.2-.46.4-.68.62-.09.09-.18.18-.26.27-.08,0-.16-.01-.25-.01-.12,0-.25.01-.37.03-.46.08-.76.35-.94.5l-.05.04-.11.1-.11.09c-.13.1-.32.26-.47.54-.27.52-.2,1.17.19,1.69.53.7,1.32.79,1.79.84.25.03.51.04.75.05h.08s.07,0,.07,0c.11,0,.21.01.32.01.48,0,.93-.09,1.36-.28.29-.13.55-.28.78-.42l.06-.04c.26-.15.55-.33.83-.55.49-.38.87-.83,1.18-1.23.06-.08.12-.15.18-.22.1-.12.2-.24.29-.36.13-.17.27-.35.41-.51.06-.07.13-.14.2-.2.1-.09.19-.18.29-.28.1-.11.23-.27.33-.48,0,0,0-.01.01-.02.13-.24.17-.48.17-.64,0-.12-.01-.25-.04-.38v-.04s.06-.08.09-.12c.09-.14.16-.29.19-.45.12.05.24.1.36.15l.25.11c.2.09.4.17.6.25.11.04.21.09.32.13.08.03.18.07.31.09l.06.02.16.07c.13.05.26.11.38.16.11.05.26.09.4.11.24.16.5.29.76.39.11.04.25.07.37.07.14.1.3.17.47.2.02.03.04.05.05.08.06.09.11.27.16.46.04.14.08.28.13.41.05.15.11.3.17.45.08.21.16.42.23.64.06.19.09.41.12.67.01.1.03.21.04.31,0,.01,0,.03,0,.05.01.24.06.47.13.7.09.27.21.58.41.86.41.57,1.05.65,1.27.68.09.01.18.02.28.02.31,0,.6-.07.86-.2.41-.2.71-.55.89-1.03.1-.26.17-.52.22-.76.07-.3.16-.64.11-1.04-.02-.17-.06-.33-.13-.49.02-.27.02-.55,0-.83-.05-.93-.27-1.91-.65-2.91-.08-.21-.17-.41-.25-.62-.08-.19-.16-.39-.24-.58-.07-.18-.12-.33-.15-.47-.02-.07-.03-.14-.04-.21-.01-.16-.03-.34-.11-.55-.05-.13-.12-.26-.22-.37,0,0,0-.01-.01-.02-.15-.18-.3-.29-.4-.35-.08-.06-.12-.1-.17-.14-.09-.08-.16-.16-.22-.25-.09-.13-.18-.28-.26-.42-.01-.03-.03-.06-.06-.1-.06-.32-.23-.59-.43-.76-.17-.15-.34-.22-.43-.25-.07-.05-.14-.12-.17-.16-.07-.11-.14-.24-.2-.35-.12-.24-.21-.51-.28-.82-.08-.35-.14-.72-.19-1.12l-.05-.37-.04-.26v-.06c-.02-.09-.03-.18-.05-.26,0-.03,0-.06,0-.09,0-.21-.02-.43-.05-.65.15-.26.19-.56.13-.86-.09-.4-.25-.78-.47-1.12.02-.32-.1-.65-.33-.89-.03-.03-.05-.06-.08-.08.04-.03.15-.11.19-.12.33-.09.6-.33.74-.64.18-.14.31-.34.38-.55.04-.02.07-.03.11-.05.37-.16.64-.49.7-.89.37-.16.64-.49.71-.88.45-.06.83-.39.96-.84.06-.21.07-.43.02-.63.15-.24.28-.46.4-.71.17-.34.3-.65.4-.95.07-.14.13-.28.18-.43l.1-.29c.08-.23.15-.46.23-.69.06-.16.18-.5.11-.9.1-.29.08-.58-.04-.85.02-.12.03-.26.01-.4-.02-.17-.05-.34-.09-.51-.01-.05-.02-.1-.03-.15-.03-.16-.05-.33-.07-.5-.01-.12-.01-.24,0-.37.03-.44-.07-.86-.29-1.19-.03-.07-.05-.12-.08-.16l-.08-.15-.06-.11c-.1-.19-.19-.37-.29-.55-.07-.12-.15-.22-.24-.3-.02-.06-.05-.12-.08-.18-.05-.1-.12-.2-.2-.28-.14-.17-.33-.29-.55-.35-.06-.09-.13-.18-.2-.27l-.04-.05c-.14-.18-.36-.48-.74-.67-.16-.08-.34-.13-.52-.13,0,0-.01,0-.02,0-.15-.12-.41-.28-.76-.29,0,0,0,0,0,0-.02,0-.04,0-.06,0-.11,0-.21.01-.31.04-.06-.02-.13-.04-.2-.06-.14-.04-.27-.06-.41-.07-.07,0-.13-.01-.2-.01h0Z" class="cls-2"/>
        <path d="M57.31,44.64c.09,0,.19,0,.28.02,1.59.26,3.92.93,4.09,1.83.17.9,3.49,2.22,3.96,2.26.47.04-.13,2.82-1.25,2.89-.21.01-.4.02-.58.02-.3,0-.55-.01-.76-.01-.34,0-.57.03-.71.17-.18.18-.66.3-1.41.3-.43,0-.95-.04-1.56-.12-.07,0-.13-.01-.19-.01-1.43,0-.74,2.61-1.51,4.16-.8,1.61-1.46,6.98-4.43,8.85,0,0-2.03,5.34-2.33,6.16,0,0,1.64,4.74,1.64,4.91s1.94.1,2.08,1.91h-3.56l-2.96-5.4.09-3.46c-.48,1.11-1.03,2.49-.94,2.81.15.55,1.01,3.82,1.08,4.14,0,0,1.89.15,2.08,1.91h-3.56c-.35,0-2.96-5.5-3.06-6.25-.06-.44.43-2.82.85-4.72-.95.06-2.05.11-3.24.11-2.84,0-6.23-.26-9.5-1.15,0,0-1.99,1.47-3.96,2.82-.57.84-1.07,1.61-1.22,1.94-.39.9-1.44,3.32-.49,4.04,0,0,1.18.46,1.18,1.41h-3.16s-.57-1.95-.55-2.3c.02-.19.36-1.64.65-2.87-.64.51-2.24,2.03-1.8,4.25,0,0,1.41,1.03,1.26,2.41h-3.1s-.06-6-.26-7.5c0,0,4.51-2.36,4.97-5.52.46-3.16,3.56-5.35,2.69-6.88,0,0-2.7,3.72-4,4.79-.53.44-1.21.57-1.84.57-.93,0-1.73-.28-1.73-.28.96-.17,2.78-3.01,4.2-5.5.97-1.7,3.35-1.97,4.76-1.97.66,0,1.12.06,1.12.06.07,0,.14,0,.22,0,2.51,0,12.48-.62,14.31-1.21,1.9-.6,5.28-3.3,5.28-3.3,0,0,1.72-2.52,2.71-3.47.93-.89,2.61-2.8,4.14-2.8M57.31,43.53h0c-1.78,0-3.42,1.63-4.51,2.72-.14.14-.28.28-.4.39-.94.9-2.36,2.91-2.77,3.5-1,.78-3.47,2.58-4.8,3.01-1.57.5-11.21,1.16-13.98,1.16h-.15c-.17-.02-.61-.06-1.19-.06-2.76,0-4.8.9-5.73,2.53-2.39,4.21-3.35,4.89-3.49,4.97-.46.11-.81.51-.85.99-.04.5.26.97.74,1.13.1.04,1.01.34,2.1.34.88,0,1.62-.2,2.23-.59-.08.27-.14.56-.18.85-.31,2.12-3.27,4.11-4.39,4.7-.41.22-.64.67-.58,1.13.16,1.17.23,5.71.25,7.36,0,.61.5,1.09,1.1,1.09h3.1c.57,0,1.04-.43,1.1-.99.02-.17.02-.34.01-.5h2.48c.61,0,1.1-.49,1.1-1.1,0-1.16-.87-1.92-1.56-2.29-.03-.24.01-.91.77-2.69.04-.08.19-.41,1.01-1.61,1.37-.94,2.73-1.92,3.4-2.41,2.77.7,5.88,1.05,9.27,1.05.61,0,1.23-.01,1.86-.04-.64,3.07-.59,3.45-.56,3.69.09.7,1.1,2.85,1.53,3.74,1.59,3.3,1.91,3.47,2.62,3.47h3.56c.11,0,.22-.02.32-.05.1.03.21.05.32.05h3.56c.31,0,.6-.13.81-.36.21-.23.31-.53.29-.84-.11-1.33-.87-2.24-2.29-2.69-.2-.64-.59-1.81-1.36-4.03.46-1.21,1.68-4.43,2.07-5.46,2.29-1.68,3.26-5.02,3.91-7.26.22-.75.42-1.46.6-1.81.4-.8.49-1.71.56-2.51.03-.32.07-.76.14-1.02.59.08,1.11.11,1.57.11.93,0,1.58-.15,2.01-.46.02,0,.04,0,.05,0s.04,0,.06,0c.09,0,.19,0,.29,0,.14,0,.3,0,.47,0,.2,0,.41,0,.64-.02,1.67-.1,2.43-2.39,2.45-3.53.02-1.41-1.05-1.55-1.17-1.56-.53-.11-2.58-1.03-3.01-1.51-.46-1.61-3.29-2.3-4.97-2.57-.15-.02-.3-.04-.45-.04h0Z" class="cls-2"/>
      </g>
      <g>
        <path d="M7.07,86.8c-.56.19-1.12.3-1.7.31-.57.02-1.12-.08-1.65-.29-.53-.21-1.01-.56-1.44-1.04s-.78-1.13-1.06-1.93l-1.23-3.55.55-.19.28.66c.04.09.1.15.17.18.07.03.14.03.21,0l6.82-2.35c.06-.02.12-.07.16-.14.04-.07.05-.15.02-.24l-.18-.69.55-.19,1.14,3.3c.31.89.44,1.75.38,2.56s-.33,1.53-.82,2.16c-.49.63-1.22,1.11-2.21,1.45ZM6.54,85.36c.89-.31,1.56-.69,2.01-1.15.44-.46.7-.98.77-1.56.07-.58-.01-1.21-.24-1.88l-.34-.97-7.36,2.54.37,1.03c.24.65.56,1.18.97,1.59.41.4.93.65,1.56.73.63.09,1.38-.02,2.26-.32Z" class="cls-1"/>
        <path d="M6.75,96.08l-3.25-6.21.52-.27.37.59c.05.08.12.13.2.15.08.02.15,0,.2-.02l6.39-3.35c.06-.03.1-.08.14-.16.03-.07.03-.15-.01-.24l-.28-.65.52-.27,3.05,5.82-1.78.93-.38-.72.89-.7c.06-.03.1-.08.12-.15.02-.07.02-.13,0-.18l-1.36-2.6-2.99,1.56.94,1.8c.03.05.08.09.15.11.07.02.13.02.17,0l.89-.31.32.61-2.67,1.4-.32-.61.77-.56s.08-.07.1-.14c.03-.07.03-.14,0-.19l-.94-1.79-3.3,1.73,1.59,3.03s.08.08.16.1.14.02.18,0l1.3-.41.34.64-2,1.05Z" class="cls-1"/>
        <path d="M21.46,103.78l-.53-.6.82-.98c.09-.12.1-.23.02-.32l-1.28-1.45-5.61,4.95s-.08.1-.1.18c-.02.08,0,.15.06.23l.53.68-.44.39-2.43-2.75.44-.39.61.62c.07.07.14.1.22.09.08,0,.14-.03.19-.08l5.61-4.95-1.29-1.46c-.09-.1-.2-.11-.33-.02l-1.07.7-.52-.59,1.62-1.43,5.07,5.75-1.62,1.43Z" class="cls-1"/>
        <path d="M27.02,111.62c-.42.5-.89.91-1.42,1.22-.53.31-1.08.5-1.66.59s-1.15.05-1.73-.11c-.57-.16-1.12-.45-1.62-.87-.68-.57-1.14-1.22-1.38-1.97-.24-.74-.28-1.51-.1-2.3.18-.79.55-1.53,1.13-2.23.42-.51.9-.92,1.42-1.22s1.07-.51,1.65-.59,1.15-.05,1.72.11c.57.16,1.12.45,1.64.89.51.43.9.91,1.16,1.45.26.54.4,1.1.41,1.68.02.58-.08,1.16-.28,1.74-.21.58-.52,1.12-.94,1.62ZM25.81,110.63c.47-.56.82-1.15,1.04-1.75.23-.6.29-1.17.2-1.72-.09-.55-.38-1.02-.86-1.43-.5-.42-1.03-.62-1.59-.61-.56,0-1.11.18-1.66.51-.55.33-1.05.77-1.51,1.32-.46.55-.81,1.13-1.04,1.73-.23.6-.3,1.18-.22,1.73.09.55.38,1.03.87,1.44.5.42,1.03.62,1.59.61.56-.01,1.11-.18,1.66-.52.55-.33,1.05-.77,1.51-1.32Z" class="cls-1"/>
        <path d="M35.19,116.46c-.3.51-.66.96-1.08,1.34-.42.39-.91.67-1.44.85-.54.18-1.13.23-1.77.14s-1.33-.34-2.06-.77l-3.24-1.9.29-.5.64.32c.09.04.17.05.24.02.07-.03.13-.07.16-.13l3.64-6.23c.03-.06.04-.12.03-.21s-.06-.15-.14-.2l-.59-.41.29-.5,3.01,1.76c.82.48,1.47,1.04,1.95,1.7.49.65.75,1.38.79,2.17.04.79-.21,1.64-.73,2.54ZM33.85,115.71c.48-.82.74-1.55.78-2.18.04-.64-.1-1.2-.43-1.69-.33-.49-.8-.91-1.41-1.27l-.89-.52-3.93,6.72.95.54c.6.34,1.19.54,1.77.57.57.04,1.13-.12,1.66-.46.53-.34,1.03-.91,1.5-1.72Z" class="cls-1"/>
        <path d="M42.52,124.27l-3-1.16.21-.54.75.22s.07,0,.12-.03.08-.07.09-.1c0-.02,0-.03,0-.03l.03-2.65-2.91-1.13-1.72,1.95s-.01.02-.02.03c-.02.05-.02.11,0,.17.03.06.06.1.09.12l.72.35-.21.54-2.54-.98.21-.54.79.13,6.02-6.83.95.37-.09,8.92c0,.1,0,.17.02.21.01.04.06.08.15.14l.53.32-.21.54ZM40.72,119.29l.04-3.79-2.51,2.83,2.46.96Z" class="cls-1"/>
        <path d="M50.18,123.44c-.1.44-.32.84-.66,1.2-.34.36-.79.61-1.36.75-.57.15-1.28.12-2.1-.07-.47-.11-.87-.25-1.21-.41-.33-.16-.67-.37-1.02-.63l.55-2.33.83.19-.18,1.53c0,.05.01.12.04.19.03.07.07.12.11.15.02,0,.13.09.34.24.21.15.51.28.92.37.56.13,1.06.1,1.49-.09.43-.19.7-.53.82-1.02.06-.27.04-.52-.06-.75-.1-.23-.25-.45-.45-.66-.2-.21-.42-.41-.66-.6-.24-.19-.46-.37-.68-.54-.32-.26-.61-.52-.87-.79-.26-.27-.46-.57-.58-.9-.12-.33-.13-.72-.03-1.17.12-.52.36-.95.72-1.27.36-.32.79-.54,1.3-.64.51-.11,1.05-.09,1.63.05.47.11.88.25,1.22.43.34.18.64.34.89.5l.11.06-.48,2.05-.75-.18.1-1.31c0-.06-.01-.11-.05-.15-.04-.04-.07-.08-.1-.13-.03-.03-.12-.11-.28-.24-.16-.13-.42-.23-.8-.32-.53-.12-.98-.08-1.35.15-.37.22-.61.56-.72,1-.09.4-.02.78.24,1.12s.65.69,1.19,1.06c.73.49,1.26.97,1.61,1.45.35.48.44,1.05.29,1.71Z" class="cls-1"/>
        <path d="M64.24,126.95l-6.58-.11v-.58s.8-.04.8-.04c.1,0,.17-.04.22-.1s.07-.12.07-.19l.12-7.21c0-.07-.02-.13-.07-.19-.05-.07-.12-.1-.21-.11l-.79-.06v-.58s3.46.05,3.46.05v.58s-.73.04-.73.04c-.1,0-.17.04-.22.1-.05.06-.08.13-.08.19l-.12,7.48,2.84.05c.06,0,.12-.02.19-.07.07-.05.1-.1.11-.16l.24-1.62h.79s-.04,2.53-.04,2.53Z" class="cls-1"/>
        <path d="M74.14,125.72l-3.19.43-.08-.58.76-.17s.06-.03.09-.08c.02-.05.03-.09.03-.13,0-.02,0-.03,0-.03l-1.26-2.33-3.1.42-.56,2.53s0,.02,0,.04c0,.05.04.1.09.14.05.05.1.06.14.06l.8-.04.08.58-2.7.36-.08-.58.76-.27,1.98-8.89,1.01-.14,4.23,7.85c.05.09.08.14.12.17.03.03.1.04.2.05l.62.02.08.58ZM70.16,122.22l-1.79-3.34-.83,3.69,2.62-.35Z" class="cls-1"/>
        <path d="M80.46,121.29c.12.44.12.89,0,1.36-.12.47-.4.91-.83,1.32-.43.4-1.06.72-1.88.95-.47.13-.89.21-1.26.22s-.77,0-1.19-.06l-.65-2.31.82-.23.59,1.43s.06.1.13.14c.06.05.12.07.17.08.02,0,.16.02.41.05.25.03.58,0,.99-.12.55-.16.97-.42,1.26-.79.29-.37.36-.8.22-1.28-.07-.26-.21-.47-.41-.63-.2-.16-.44-.28-.72-.37-.28-.09-.56-.16-.86-.21-.3-.05-.59-.1-.86-.15-.4-.07-.79-.16-1.15-.26-.36-.11-.67-.28-.94-.51s-.46-.57-.59-1.01c-.15-.52-.14-1,.02-1.46.15-.45.43-.85.82-1.19.39-.34.88-.59,1.45-.75.47-.13.89-.2,1.27-.21s.72,0,1.02,0h.13s.57,2.03.57,2.03l-.74.21-.55-1.19c-.02-.06-.06-.09-.12-.11-.05-.02-.1-.04-.15-.06-.04-.02-.16-.04-.36-.08s-.48,0-.85.1c-.52.15-.89.41-1.11.78-.22.38-.27.78-.14,1.22.11.4.36.69.75.86s.9.29,1.55.35c.87.08,1.57.24,2.11.49.54.25.89.7,1.08,1.36Z" class="cls-1"/>
        <path d="M94.92,117.24l-6.13,3.41-.28-.51.59-.39c.08-.05.13-.12.14-.2.02-.08,0-.15-.03-.21l-3.51-6.3c-.03-.06-.08-.1-.16-.13-.08-.03-.16-.03-.24.02l-.64.29-.28-.51,5.74-3.2.98,1.76-.71.4-.72-.87c-.04-.06-.09-.09-.15-.12s-.13-.02-.18.01l-2.56,1.43,1.64,2.94,1.77-.99c.05-.03.09-.08.11-.15.02-.07.02-.13,0-.17l-.33-.88.6-.34,1.47,2.64-.6.33-.58-.75s-.07-.08-.15-.1c-.07-.02-.14-.02-.19,0l-1.77.99,1.81,3.26,2.99-1.67s.08-.08.09-.16c.01-.08.01-.14,0-.18l-.44-1.29.63-.35,1.1,1.97Z" class="cls-1"/>
        <path d="M100.21,107.63c.36.47.64.97.84,1.51.2.54.28,1.09.25,1.66-.03.57-.21,1.13-.53,1.69-.32.56-.82,1.1-1.49,1.62l-2.98,2.29-.35-.46.53-.48c.07-.07.11-.14.11-.22,0-.08-.02-.15-.06-.2l-4.4-5.72c-.04-.05-.1-.09-.18-.11-.08-.02-.16,0-.24.05l-.6.39-.35-.46,2.76-2.13c.75-.58,1.52-.97,2.31-1.17.79-.2,1.56-.17,2.31.09.75.26,1.44.81,2.08,1.63ZM99.01,108.59c-.58-.75-1.16-1.26-1.73-1.54-.58-.28-1.15-.35-1.72-.24-.57.12-1.14.4-1.71.83l-.82.63,4.75,6.16.86-.68c.55-.43.94-.91,1.19-1.43s.32-1.09.2-1.71c-.12-.62-.46-1.3-1.03-2.03Z" class="cls-1"/>
        <path d="M110.2,103.79l-2.21,2.34-.42-.4.49-.61s.03-.06.02-.12c-.01-.05-.03-.09-.06-.12-.01-.01-.02-.02-.03-.02l-2.44-1.02-2.15,2.27,1.16,2.33s.01.02.02.03c.04.04.09.05.16.05.07,0,.12-.01.14-.04l.6-.54.42.4-1.87,1.98-.42-.4.42-.69-4.06-8.16.7-.74,8.23,3.45c.09.04.16.06.2.06.04,0,.1-.03.18-.09l.49-.37.42.4ZM104.91,103.57l-3.49-1.47,1.68,3.39,1.81-1.92Z" class="cls-1"/>
        <path d="M111.98,93.24c.49.33.91.72,1.26,1.17.35.45.6.95.75,1.5.15.55.15,1.14.02,1.77-.13.63-.44,1.3-.92,2l-2.12,3.1-.48-.33.36-.62c.05-.08.06-.17.04-.24-.02-.08-.06-.13-.12-.17l-5.96-4.07c-.05-.04-.12-.05-.2-.05s-.15.05-.21.12l-.45.56-.48-.33,1.97-2.88c.53-.78,1.14-1.39,1.83-1.83.69-.44,1.43-.65,2.22-.63.79.02,1.62.32,2.48.91ZM111.14,94.52c-.78-.53-1.49-.84-2.12-.92s-1.2.02-1.71.31-.96.73-1.36,1.32l-.58.85,6.43,4.38.61-.91c.39-.58.62-1.16.69-1.73.08-.57-.04-1.13-.34-1.69-.3-.55-.84-1.09-1.61-1.62Z" class="cls-1"/>
        <path d="M119.62,87.98l-3.05,6.32-.52-.25.26-.65c.03-.09.03-.17,0-.25-.03-.07-.08-.12-.14-.15l-6.5-3.14c-.06-.03-.13-.03-.21-.02-.08.02-.14.07-.19.15l-.35.61-.52-.25,2.86-5.92,1.82.88-.35.73-1.09-.3c-.06-.02-.13-.03-.19,0-.07.02-.12.06-.14.11l-1.28,2.64,3.04,1.46.88-1.83c.03-.05.03-.12,0-.19-.03-.07-.06-.11-.1-.13l-.78-.53.3-.62,2.72,1.31-.3.62-.91-.28s-.1-.02-.18,0c-.07.02-.12.06-.15.11l-.88,1.83,3.36,1.62,1.49-3.08c.02-.05.02-.11-.02-.19-.04-.07-.07-.12-.11-.15l-1.1-.8.32-.65,2.03.98Z" class="cls-1"/>
        <path d="M119.66,80c.43.14.81.4,1.13.76.32.36.53.84.62,1.43s0,1.28-.26,2.09c-.15.46-.33.85-.52,1.16-.19.32-.43.64-.72.96l-2.27-.76.27-.81,1.51.31c.05,0,.12,0,.19-.03s.13-.06.16-.09c.01-.02.1-.12.27-.32.17-.19.32-.49.45-.88.18-.55.2-1.04.05-1.49s-.46-.75-.94-.9c-.26-.08-.51-.09-.75,0s-.48.21-.7.39c-.23.18-.45.38-.65.6-.21.22-.41.43-.6.62-.29.3-.57.56-.86.8-.29.24-.61.4-.95.49-.34.09-.73.06-1.16-.08-.51-.17-.91-.45-1.2-.83-.29-.39-.46-.83-.52-1.35-.06-.52,0-1.06.19-1.62.15-.46.33-.85.54-1.17.21-.32.4-.6.58-.85l.07-.1,2,.66-.24.73-1.29-.21c-.06-.01-.11,0-.15.03-.04.04-.09.07-.14.09-.04.02-.12.11-.27.26s-.27.4-.39.76c-.17.51-.16.97.03,1.36.19.39.5.66.93.8.39.13.77.08,1.13-.14.36-.22.75-.58,1.16-1.09.55-.68,1.08-1.17,1.59-1.47.51-.3,1.08-.35,1.73-.13Z" class="cls-1"/>
      </g>
      <g>
        <path d="M15.72,24c.51.37.84.81,1,1.29.16.49.17.99.04,1.52-.13.53-.38,1.04-.75,1.54l-.02.03c-.1.14-.22.28-.35.44-.13.16-.21.25-.23.27l1.93,1.43c.05.04.11.06.19.06.07,0,.14-.04.2-.1l.55-.66.45.33-2.02,2.73-.45-.33.36-.58c.05-.08.06-.16.05-.23-.02-.07-.05-.13-.1-.17l-5.54-4.1c-.05-.04-.12-.05-.19-.05-.08,0-.15.04-.2.11l-.5.59-.45-.33,1.84-2.49c.73-.98,1.42-1.59,2.08-1.82.66-.23,1.37-.06,2.14.5ZM14.94,25.09c-.5-.37-1-.52-1.49-.45-.49.07-.98.44-1.47,1.1-.07.09-.2.27-.38.54l3.27,2.42s.08-.09.2-.21c.12-.12.22-.23.29-.33l.02-.03c.4-.54.57-1.07.53-1.59-.05-.52-.37-1.01-.96-1.45Z" class="cls-1"/>
        <path d="M25.71,22.3l-4.68,4.79-.4-.39.43-.51c.06-.07.08-.15.08-.22s-.04-.14-.08-.18l-4.93-4.81s-.11-.07-.18-.08c-.08,0-.15.02-.22.08l-.5.44-.4-.39,4.39-4.49,1.38,1.34-.54.56-.89-.6s-.11-.06-.17-.06-.12.02-.16.06l-1.96,2,2.3,2.25,1.35-1.39s.06-.1.06-.17-.02-.12-.05-.15l-.54-.72.46-.47,2.06,2.02-.46.47-.73-.53s-.09-.05-.16-.05c-.07,0-.13.02-.17.06l-1.35,1.39,2.55,2.49,2.28-2.34s.05-.1.04-.17-.03-.13-.06-.16l-.75-1.06.48-.5,1.54,1.51Z" class="cls-1"/>
        <path d="M32.46,17.09s-.11.12-.2.26c-.09.14-.22.27-.37.39-.35.27-.67.42-.97.46-.29.04-.57,0-.83-.1-.26-.11-.51-.25-.75-.43s-.48-.36-.72-.54c-.24-.18-.49-.32-.76-.42s-.55-.13-.85-.09c-.3.05-.63.2-.99.48-.11.08-.21.16-.3.24s-.14.12-.15.13l1.79,2.34c.04.05.09.08.16.1.07.02.15,0,.22-.05l.57-.37.34.44-2.55,1.95-.34-.44.5-.45c.07-.06.1-.13.11-.21s-.02-.14-.05-.19l-4.18-5.47c-.04-.05-.1-.08-.17-.1-.08-.02-.15,0-.23.05l-.56.37-.34-.44,2.68-2.05c.78-.59,1.5-.93,2.15-1,.66-.08,1.24.23,1.76.9.27.36.42.71.43,1.06.02.35-.06.69-.21,1.02s-.35.63-.59.92c.38-.17.71-.25.99-.24s.54.06.77.18c.23.12.43.25.62.41.19.16.38.32.56.47.18.15.38.26.58.34s.42.09.67.04c.25-.05.53-.2.85-.45l.35.46ZM26.35,13.77c-.33-.44-.73-.67-1.19-.69-.46-.02-1.01.21-1.66.71l-.47.36,2.15,2.81s.09-.06.21-.15.23-.17.31-.23c.57-.44.93-.88,1.07-1.32s0-.94-.41-1.49Z" class="cls-1"/>
        <path d="M39.6,13.22s-.13.11-.24.23c-.11.12-.26.23-.43.33-.39.21-.73.31-1.03.31s-.57-.08-.81-.23c-.24-.14-.46-.32-.67-.54-.21-.21-.42-.43-.63-.64s-.44-.39-.68-.53-.52-.21-.82-.22c-.3,0-.65.1-1.05.32-.12.06-.23.13-.33.19-.1.06-.16.1-.17.11l1.41,2.59c.03.06.08.1.15.13s.14.03.23,0l.62-.28.27.49-2.82,1.54-.27-.49.56-.36c.08-.05.12-.12.14-.19.01-.08,0-.14-.02-.2l-3.3-6.05c-.03-.06-.08-.1-.15-.13-.07-.03-.15-.03-.23.02l-.61.28-.27-.49,2.96-1.61c.86-.47,1.62-.69,2.28-.67.66.03,1.19.41,1.6,1.16.22.39.3.77.26,1.12-.04.35-.16.67-.36.97-.2.3-.45.57-.73.82.4-.11.74-.14,1.02-.09.28.05.53.15.73.3.2.15.39.31.55.5.16.19.33.37.49.55s.33.32.52.43c.19.11.41.16.66.14.25-.01.55-.12.91-.31l.28.51ZM34.07,9c-.26-.48-.62-.77-1.07-.87-.45-.09-1.04.06-1.75.45l-.52.28,1.69,3.11s.1-.05.23-.12.25-.13.34-.18c.63-.34,1.05-.72,1.26-1.14.21-.41.15-.93-.18-1.53Z" class="cls-1"/>
        <path d="M46.34,6.23c.21.59.3,1.18.29,1.76s-.12,1.13-.33,1.65c-.21.51-.52.97-.94,1.36-.41.39-.91.69-1.51.9-.8.28-1.56.33-2.29.16-.73-.17-1.37-.52-1.93-1.05-.56-.53-.98-1.21-1.27-2.02-.21-.6-.31-1.18-.3-1.76s.11-1.13.33-1.64c.21-.52.52-.97.94-1.36.41-.39.92-.69,1.53-.9.6-.21,1.19-.29,1.75-.24.57.05,1.09.21,1.58.49.49.27.91.64,1.28,1.09.37.45.66.98.86,1.57ZM44.94,6.74c-.23-.66-.54-1.23-.92-1.71-.38-.48-.82-.82-1.31-1.01-.49-.19-1.02-.19-1.59,0-.59.21-1.02.54-1.29,1s-.4,1-.4,1.61.12,1.24.34,1.88c.23.65.53,1.22.91,1.71.38.49.81.83,1.31,1.03.49.2,1.03.2,1.61,0,.59-.21,1.02-.54,1.28-1,.27-.46.4-1,.4-1.61,0-.61-.11-1.24-.34-1.88Z" class="cls-1"/>
        <path d="M53.66,6.79c.08.43.04.86-.11,1.3-.15.44-.45.83-.9,1.18-.45.35-1.07.6-1.87.75-.46.08-.86.12-1.21.11-.35-.01-.73-.06-1.13-.15l-.42-2.25.8-.15.44,1.41s.05.1.11.15c.06.05.11.08.15.09.02,0,.15.03.39.08.24.05.56.04.95-.03.54-.1.96-.32,1.26-.65.3-.33.41-.73.32-1.2-.05-.26-.16-.47-.34-.63-.18-.17-.4-.3-.65-.41-.26-.11-.52-.2-.81-.27-.28-.07-.55-.14-.8-.21-.38-.1-.73-.22-1.07-.35-.33-.13-.62-.32-.85-.56-.23-.24-.39-.58-.47-1.01-.09-.5-.05-.97.14-1.39.19-.42.48-.77.88-1.06s.88-.48,1.44-.59c.45-.08.87-.12,1.23-.09.36.02.69.05.97.09l.12.02.37,1.98-.73.14-.42-1.18c-.02-.06-.05-.09-.1-.11-.05-.02-.1-.04-.14-.07-.04-.02-.15-.05-.34-.1-.19-.05-.46-.04-.82.03-.51.1-.88.31-1.12.65-.24.34-.32.72-.24,1.15.07.39.29.68.64.88.35.2.83.36,1.45.47.82.14,1.48.36,1.97.64.49.28.79.74.91,1.38Z" class="cls-1"/>
        <path d="M68.36.98l-.71.09-2.83,4.16-.15,2.79c0,.06.02.13.06.19s.11.1.2.11l.82.09-.03.56-3.48-.19.03-.56h.8c.09-.01.17-.04.22-.1.05-.06.08-.12.08-.18l.14-2.59-2.23-4.6-.74-.19.03-.55,3.06.16-.03.56-.65.03c-.12.01-.18.06-.19.14,0,.04,0,.08.02.11l1.64,3.47,2.18-3.22s.03-.06.03-.09c0-.1-.05-.17-.17-.19l-.72-.13.03-.56,2.62.14-.03.55Z" class="cls-1"/>
        <path d="M82.69,9.26l-.64-.14c-.09-.03-.16-.02-.22.02s-.1.09-.12.15l-.93,2.84c-.54,0-1.03-.02-1.45-.07s-.85-.14-1.29-.29c-.68-.22-1.25-.54-1.71-.95-.45-.41-.8-.88-1.03-1.4-.23-.53-.36-1.08-.38-1.66s.06-1.16.25-1.72c.28-.86.71-1.55,1.28-2.08s1.25-.86,2.03-1c.78-.14,1.63-.06,2.54.24.42.14.79.3,1.13.5.33.19.65.39.96.59l.19.12-.65,1.98-.74-.24.16-1.17c.01-.08,0-.15-.03-.21-.03-.06-.07-.12-.12-.16-.01,0-.04-.03-.06-.05-.1-.1-.25-.21-.44-.35s-.41-.25-.67-.33c-.59-.19-1.15-.23-1.69-.1-.54.12-1.03.41-1.45.85-.43.44-.76,1.05-1.01,1.81-.39,1.18-.4,2.18-.05,3.02.36.83,1.02,1.41,1.98,1.72.27.09.52.14.75.14.23,0,.36.01.39.02l.8-2.45c.02-.06.02-.13,0-.19-.03-.07-.08-.12-.17-.15l-.8-.33.17-.53,3.2,1.05-.17.53Z" class="cls-1"/>
        <path d="M89.28,16.71l-2.73-1.42.26-.49.69.29s.07.01.11-.01.08-.06.1-.09c0-.02,0-.03,0-.03l.3-2.51-2.65-1.38-1.84,1.67s-.01.02-.02.03c-.02.05-.03.1,0,.16s.04.1.08.12l.65.41-.26.49-2.31-1.2.26-.49.74.21,6.44-5.85.86.45-1.03,8.46c-.01.09-.01.16,0,.2s.05.09.13.15l.47.36-.26.49ZM88.1,11.78l.44-3.59-2.68,2.43,2.24,1.16Z" class="cls-1"/>
        <path d="M99.08,15.75l-.62-.45.57-1.09c.06-.14.05-.24-.04-.3l-1.49-1.09-4.22,5.77c-.04.05-.06.11-.06.19,0,.07.04.14.11.2l.64.53-.33.45-2.83-2.07.33-.45.7.45c.08.05.16.06.23.04s.12-.06.16-.11l4.22-5.77-1.5-1.1c-.1-.07-.21-.06-.31.05l-.86.87-.61-.44,1.22-1.67,5.91,4.32-1.22,1.67Z" class="cls-1"/>
        <path d="M104.54,24.23c-.44.44-.93.79-1.46,1.03-.53.24-1.07.38-1.63.41-.56.03-1.1-.05-1.63-.25s-1.02-.52-1.47-.97c-.6-.6-.98-1.26-1.14-1.99-.17-.73-.13-1.46.11-2.2.24-.73.66-1.41,1.27-2.02.45-.45.93-.79,1.46-1.04.52-.25,1.07-.39,1.62-.42.56-.03,1.1.05,1.63.25.53.2,1.02.53,1.48.99.45.45.78.95.98,1.48.2.53.28,1.08.25,1.63-.04.56-.18,1.1-.43,1.63-.25.53-.59,1.01-1.04,1.46ZM103.48,23.18c.5-.5.88-1.02,1.15-1.57.27-.55.38-1.09.34-1.62s-.27-1.01-.7-1.43c-.44-.44-.93-.68-1.46-.72s-1.07.07-1.62.34c-.55.27-1.06.64-1.55,1.13-.49.49-.87,1.01-1.14,1.56-.27.55-.39,1.09-.36,1.62.03.53.27,1.01.7,1.45.44.44.93.68,1.46.72s1.08-.08,1.63-.34c.55-.27,1.07-.64,1.55-1.12Z" class="cls-1"/>
        <path d="M107.26,31.1c-.35.26-.75.41-1.22.47-.47.05-.95-.05-1.46-.3-.51-.25-1-.7-1.48-1.36-.27-.37-.48-.72-.62-1.05-.14-.33-.26-.69-.36-1.09l1.84-1.36.48.65-1.08,1.01s-.06.09-.08.16-.03.13-.02.18c0,.02.04.15.1.39.06.24.2.52.44.84.33.44.7.73,1.13.86.43.13.84.05,1.22-.23.21-.16.35-.35.42-.58.07-.23.1-.49.08-.76-.02-.28-.05-.56-.11-.84-.06-.28-.11-.56-.16-.81-.08-.38-.13-.76-.15-1.11-.03-.36.02-.69.14-1.01.12-.32.35-.61.7-.87.41-.3.85-.47,1.31-.48s.91.1,1.34.34c.43.24.82.59,1.16,1.04.27.37.48.73.62,1.07s.25.64.34.92l.04.11-1.62,1.19-.44-.59.88-.89s.06-.09.06-.14c0-.05,0-.1,0-.16,0-.04-.02-.16-.05-.35-.04-.19-.16-.43-.38-.73-.31-.41-.67-.66-1.08-.73-.41-.07-.79.03-1.14.28-.32.24-.49.56-.52.96-.03.4.04.9.21,1.5.23.8.32,1.49.28,2.05-.04.56-.32,1.04-.85,1.42Z" class="cls-1"/>
      </g>
      <path d="M111.87,32.15l-3.4,1.86c5.37,8.62,8.48,18.81,8.48,29.69,0,4.27-.48,8.43-1.39,12.43l3.73,1.08c1.01-4.35,1.53-8.87,1.53-13.51,0-11.56-3.29-22.36-8.95-31.54ZM9.33,32.3C3.73,41.45.48,52.19.48,63.69c0,4.14.43,8.18,1.22,12.08l3.79-.81c-.75-3.63-1.14-7.4-1.14-11.27,0-10.8,3.07-20.91,8.37-29.49l-3.38-1.89Z" class="cls-1"/>
    </g>
  </g>
</svg>